<svg class="img-fluid" id="outputsvg" xmlns="http://www.w3.org/2000/svg" viewBox="0 0 7920 3200">
  <symbol
    id="logo"
    style="fill: var(--color); stroke: var(--color); transform: matrix(1, 0, 0, 1, 0, 0); transform-origin: 50% 50%; cursor: move; transition: transform 200ms ease-in-out 0s;"
    viewBox="0 0 7920 3200"
  >
  <g id="l5FX2xAXZ5c1j15UKaq2iyI" stroke-width="10" style="transform: none;">
    <g>
      <path id="p18bqgdfmg" d="M1632 2353 l3 -78 105 -5 c58 -3 104 -8 103 -12 -2 -5 -3 -242 -3 -528 l0 -520 -130 0 -129 0 -3 108 -3 107 -75 0 -75 0 -3 -178 -2 -177 300 0 300 0 0 600 0 600 100 0 100 0 0 80 0 80 -295 0 -296 0 3 -77z"></path>
      <path id="p18jxwfG8H" d="M2905 2407 c-4 -13 -5 -48 -3 -78 l3 -54 320 -5 320 -5 3 -232 2 -233 -300 0 -300 0 0 -75 0 -75 298 -2 297 -3 0 -215 0 -215 -317 -3 -317 -2 -6 -33 c-3 -17 -5 -49 -3 -69 l3 -38 408 0 407 0 -2 678 -3 677 -402 3 -403 2 -5 -23z"></path>
      <path id="p13GZCq31T" d="M4330 2350 l0 -80 320 0 320 0 0 -235 0 -235 -295 0 -295 0 0 -77 0 -78 295 3 295 3 0 -221 0 -220 -320 0 -320 0 0 -70 0 -70 405 0 405 0 0 680 0 680 -405 0 -405 0 0 -80z"></path>
      <path id="pCjel44bB" d="M6410 2423 c0 -5 -1 -278 -3 -608 l-2 -600 -268 0 -269 0 1 163 2 162 -41 1 c-22 0 -55 1 -72 2 l-33 1 -3 -237 -2 -237 430 0 430 0 0 680 0 680 -85 0 c-47 0 -85 -3 -85 -7z"></path>
    </g>
  </g>
  </symbol>
  <use href="#logo" />
</svg>
