<svg version="1.2" xmlns="http://www.w3.org/2000/svg" viewBox="0 0 4173 2278">
	<symbol
		id="logo"
		viewBox="0 0 4173 2278"
		style="fill: var(--color);"
	>
		<g id="Layer">
			<g id="Bangkok">
				<path id="pzXaXxJs5 copy 4" class="s0" d="m1596 1723.5v-248.5h18.1 18.1v248.5 248.6h-18.1-18.1z"/>
				<path id="KMITL" class="s0" aria-label="KMITL"  d="m2054.2 2230l-93.7-124.9 89.6-110.6h-69l-74.3 97.8 0.6-97.8h-58.1v235.5h58.1l-0.6-102.8 4.7-2.1 70.6 104.9zm173 0l52.8-135.9 18.1 135.9h58.7l-40-235.5h-47.1l-55.6 144.3-54.1-144.3h-47.8l-42.4 235.5h57.8l20.9-136.2 49.6 136.2zm228.6 0v-235.5h-57.7v235.5zm140.5 0v-182.1h50.9v-53.4h-160.8v53.4h50.9v182.1zm209.9 0v-53.4h-70.6v-182.1h-57.8v235.5z"/>
				<path id="Bangkok" class="s0" aria-label="BANGKOK"  d="m1932 1855c52.8 0 99-18.2 105-69.6 3.8-31.1-11.9-58.1-42.7-67.9v-0.3c18.9-8.4 32.2-27.3 34.6-49.7 6-51.1-30.8-76.3-89.5-76.3h-55l-32.1 263.8zm-1.4-220.7h12.2c25.2 0 38.8 12.9 35.7 34.6-2.8 21.7-16.8 32.9-41.6 32.9h-15.1zm-13.6 106h21.7c37.4 0 50.7 16.1 48.2 38.1-2.4 20.6-19.9 33.2-53.1 33.2h-24.9zm395 114.8l-79.8-263.8h-37.1l-147.6 263.8h57.7l30.5-57h105.2l15.4 57zm-132.9-138.6c9.1-17.4 18.2-34.9 26.9-52.4 4.2 17.5 8.8 35 13.3 52.4l10.2 38.2h-70.7zm367 51.8l-131.9-177.1h-35.7l-32.2 263.8h51.8l21-177.3 131.2 177.3h35.6l32.2-263.8h-51.7zm255-11.5h60.1c-5.6 33.6-33.2 56.7-74.5 56.7-44.4 0-80.8-34.3-77.3-88.9 3.2-51 42.7-90.2 92.7-90.2 28 0 50.4 11.9 67.5 34.6l44.5-28c-25.6-35.7-64.4-54.6-110.2-54.6-77.3 0-142.8 57.4-147.7 137.2-4.9 79.7 51.1 136.4 128.1 136.4 78.3 0 130.5-50.7 136.7-132.6l1.1-14.3h-118.2zm336.1-165.5l-107 107.4 13.6-107.4h-52.4l-32.2 263.8h52.4l13.7-115.5 8.4-3.1 76.9 118.6h61.3l-96.2-142 125.9-121.8zm178 268.7c79.4 0 142.4-58.8 147-135.8 5.2-80.1-53.9-137.8-132.3-137.8-79 0-142.3 59.8-146.9 135.7-4.9 83 56 137.9 132.2 137.9zm0.4-48.7c-44.8 0-82.6-34.6-79.4-88.1 2.8-49 41.6-88.2 93.4-88.2 47.6 0 82.5 37.1 79.4 87.8-3.2 50.1-40.6 88.5-93.4 88.5zm362.7-220l-107 107.4 13.6-107.4h-52.4l-32.2 263.8h52.5l13.6-115.5 8.4-3.1 77 118.6h61.2l-96.2-142 125.9-121.8z"/>
			</g>
			<path id="2" class="s0" d="m1580 1187v-222l225-225 225-225v-212c0-117-3-213-8-213-4 0-102 94-217 210-115 116-213 210-217 210-5 0-8-97-8-215v-215h445 445v223 222l-220 220-220 220v220 220l220-220 220-220v223 222h-445-445z"/>
			<path id="4" class="s0" d="m948 1548l-3-223-440-2-440-2-3-178-2-178 443-443 442-442 217 2 217 3-436 437-435 438h441 441v405 405h-220-220z"/>
		</g>
	</symbol>
	<use href="#logo" />
</svg>
