<svg version="1.2" xmlns="http://www.w3.org/2000/svg" viewBox="0 0 4173 2278">
	<title>42_logos</title>
	<symbol
		id="logo"
		viewBox="0 0 4173 2278"
		style="fill: var(--color); stroke: var(--color);"
	>
		<g id="Layer">
			<g id="Brussels">
				<path id="Layer" class="s0" d="m1237.8 306.3c-121 121-220 220.4-220 221 0 0.5 99.1 0.8 220.4 0.8h220.4v660.6 660.6h220.4 220.4v-881.6-881.5h-220.8-220.6z"/>
				<path id="Layer" fill-rule="evenodd" class="s0" d="m2118 86.2h703.7l330.3 330.3v1034.6h-689.5l-345.1-345.1h689.6v-342.7h-343.3l-345.7-345.7zm689 332.1h-342.2l170.8 170.8c93.9 93.9 170.9 170.7 171 170.7 0.2 0 0.4-76.8 0.4-170.7z"/>
				<path id="Layer" class="s0" d="m2133.6 1759.7c-7.4 46.4-13.7 85.5-14.1 86.9l-0.6 2.7h20.1 20.1l0.6-3.3c0.4-1.8 3.4-24.6 6.9-50.8 3.4-26.1 6.6-47.5 6.9-47.5 0.4 0 10.2 22.9 21.9 50.8l21.3 50.8h7.1 7.1l21.2-50.8c11.7-27.9 21.5-50.8 21.9-50.8 0.3 0 3.5 21.4 7 47.5 3.4 26.2 6.5 49 6.8 50.8l0.7 3.3h20 20.1l-0.6-2.7c-0.4-1.4-6.6-40.5-14.1-86.9l-13.3-84.1-16.9 0.2-16.9 0.4-21.2 50.6c-11.6 27.9-21.2 50.9-21.6 51.1-0.6 0.6-1.7-1.9-26.7-62.1l-16.6-39.6-16.9-0.4-16.8-0.2z"/>
				<path id="Layer" class="s0" d="m2359.1 1762.5v86.8h49 49.1v-17.1-17.2h-29-28.9v-18.9-18.9h27.7 27.8v-17.1-17.1h-27.8-27.7v-16.6-16.5h28.9 29v-17.2-17.1h-49.1-49z"/>
				<path id="Layer" class="s0" d="m2497.6 1759.7c-7.5 46.4-13.7 85.5-14.1 86.9l-0.6 2.7h20.1 20.1l0.6-3.3c0.3-1.8 3.4-24.6 6.8-50.8 3.5-26.1 6.7-47.5 7-47.5 0.4 0 10.2 22.9 21.9 50.8l21.2 50.8h7.1 7.1l21.3-50.8c11.7-27.9 21.5-50.8 21.9-50.8 0.3 0 3.5 21.4 6.9 47.5 3.5 26.2 6.5 49 6.9 50.8l0.7 3.3h20 20.1l-0.6-2.7c-0.4-1.4-6.6-40.5-14.1-86.9l-13.3-84.1-16.9 0.2-16.9 0.4-21.2 50.6c-11.6 27.9-21.3 50.9-21.6 51.1-0.6 0.6-1.7-1.9-26.7-62.1l-16.6-39.6-16.9-0.4-16.9-0.2z"/>
				<path id="Layer" fill-rule="evenodd" class="s0" d="m2724.2 1675.6h31.9c42.6 0 53.6 2.2 66.2 13.7 7.5 6.7 11 15.5 11.6 28.8 0.2 6.2-0.1 13.4-0.8 16-1.8 6.9-7.6 15.4-13 19.3l-4.8 3.4 5 1.4c12.1 3.5 22.7 13.2 26.5 24.1 3.2 9.2 2.8 27.5-0.7 36.5-3.2 8.4-12.7 19.1-20.1 22.8-13.3 6.7-15.3 6.9-60.1 7.5l-41.7 0.5zm50 31.9h-9.8v39.3l9.2-0.8c16.5-1.3 23.9-7.7 23.9-20.3 0-7.2-3.2-12.8-9.5-16-3-1.6-6.6-2.2-13.8-2.2zm4.2 68.7l-14-0.4v41.6h12.2c13.8 0 19.8-1.3 25.5-5.6 5.2-4 7.6-9.9 6.9-17.2-0.6-7.4-3.6-11.4-10.9-15.1-5-2.3-7.9-2.9-19.7-3.3z"/>
				<path id="Layer" class="s0" d="m2880.2 1762.5v86.8h49.1 49v-17.1-17.2h-28.9-29v-18.9-18.9h27.8 27.7v-17.1-17.1h-27.7-27.8v-16.6-16.5h29 28.9v-17.2-17.1h-49-49.1z"/>
				<path id="Layer" fill-rule="evenodd" class="s0" d="m3012.6 1675.6h35.2c39.9 0 46.2 0.8 59.4 7.8 18.1 9.6 27.3 28 25.6 51.5-1.6 18.7-11 32.2-28.4 40.1l-8.9 3.9 25.6 33.7c13.9 18.6 26 34.5 26.5 35.2 0.9 1.2-4 1.5-23.5 1.5l-24.7-0.1-46.1-67.4-0.3 33.8-0.2 33.7h-40.2zm50.1 31.9h-9.9v47.3h8c20.2 0 31-8.4 31-24.2 0-11.4-4.3-17.8-14.1-21.3-3.1-1.1-9.2-1.8-15-1.8z"/>
				<path id="Layer" fill-rule="evenodd" class="s0" d="m2575.2 1973.4c25.2 9.7 44.6 31.6 52.4 58.7 3.4 12.1 3.6 36 0.4 47.7-8.5 31.4-32.6 55.4-64.4 64-13.2 3.7-41.7 3.6-55 0-26.6-7.2-47.2-23.6-58.7-46.9-6.9-14.2-8.7-22.3-8.6-39.6 0-17.5 1.9-25.3 9.4-40.8 13.2-27.4 36.8-44.4 67.7-48.9 18.6-2.7 40.4-0.5 56.8 5.8zm-51.7 31.4c-25.1 5.4-41.5 25.9-41.5 51.6 0 34.2 28.2 58.2 62.7 53 27.1-4.1 44.8-25.2 44.8-53 0-26-16.5-46.2-42.3-51.8-9.7-2-13.9-2-23.7 0.2z"/>
				<path id="Layer" class="s0" d="m2661.6 2056.7v86.9h20.1 20.1v-36.1-36h26 26v-17.2-17.1h-26-26v-16.5-16.6h28.3 28.4v-17.1-17.1h-48.5-48.4z"/>
				<path id="Layer" class="s0" d="m2896.8 2028l-57.3 57.9-0.4 23.5-0.2 23.5h57.9 57.9v29 28.9h28.9 29v-52.5-52.6h-57.6-57.6l57-57.1c31.3-31.3 57-57.3 57-57.9 0-0.5-12.9-0.8-28.6-0.7l-28.7 0.1z"/>
				<path id="Layer" class="s0" d="m3037.4 1999v29.4l28.9-29 29-29v29 29l-29 28.9-28.9 29v28.6 28.7h28.9 29v-28.7-28.6l28.9-29 29-28.9v-29.2-29.3h-57.9-57.9z"/>
				<path id="Layer" class="s0" d="m3124.2 2115.2l-28.3 28.4h28.7 28.6v-28.4c0-15.6-0.1-28.4-0.4-28.4-0.1 0-13 12.8-28.6 28.4z"/>
			</g>
		</g>
	</symbol>
	<use href="#logo" />
</svg>
