<svg version="1.2" xmlns="http://www.w3.org/2000/svg" viewBox="0 0 4173 2278">
	<title>42_logos</title>
	<symbol
		id="logo"
		viewBox="0 0 4173 2278"
		style="fill: var(--color); stroke: var(--color);"
	>
		<g id="Layer">
			<g id="Florence">
				<path id="pPT4s8Xju" class="s0" d="m2764.4 2208.9c0-6.3 8.2-26.4 18.3-45.2 20.7-39 20.1-39.6-19.5-116.8-13.2-25.1-23.9-48.3-23.9-52.1 0-3.2 10.7-6.3 24.5-6.3 22 0 25.8 2.5 45.3 32.7 11.9 17.5 24.5 33.2 27.7 33.9 3.7 1.2 13.2-12.6 22-30.8 13.8-28.9 18.2-32.7 37.1-34.5 35.9-3.8 35.9 5 0.6 71.5-18.2 34.6-41.5 79.1-52.2 99.8-26.4 51.5-33.9 59.7-59.1 59.7-15.7 0-20.8-2.5-20.8-11.9z"/>
				<path id="p3vCjZzXG" class="s0" d="m1712 2141.7c-2.5-2.5-4.4-53.4-4.4-113.6v-108.6l15.8-7.6c29.5-13.2 34.6-0.6 34.6 89.8 0 93.5 3.1 99.8 47.8 99.8 28.3 0 28.3 0 26.4 20.7l-1.9 20.1-56.6 1.9c-31.5 0.6-59.1 0-61.7-2.5z"/>
				<path id="pKHvPaKoJ" class="s0" d="m1876.2 2129.8c-17-14.5-17.6-17-17.6-78.5 0-62.2 0-62.8 15.1-62.8 31.5 0 35.2 5 35.2 48.3 0 49.6 7 64.7 30.9 64.7 20.7 0 25.7-10.7 25.7-56.5 0-47.7 5.1-57.7 27.7-55.2l19.5 1.8 1.9 57.2c1.9 54 0.6 58.4-15.1 77.2-15.1 18.2-18.2 19.4-61 19.4-39-0.6-47.8-2.5-62.3-15.6z"/>
				<path id="peZMQlV71" class="s0" d="m2067.5 2140.4c-5.7-3.7-7.6-23.8-6.3-77.2l1.8-71.6h22.1 22l1.9 71.6c1.9 73.5-0.7 82.2-23.9 82.2-5.1 0-13.2-2.5-17.6-5z"/>
				<path id="pSEAUSaBN" class="s0" d="m2159.3 2137.9c-7.6-6.3-8.8-11.9-4.4-22.6 5-12.5 9.4-14.4 31.4-12.5 34 2.5 39-10.1 10.1-22.6-23.3-9.5-42.1-31.4-42.1-48.4 0-31.4 45.9-55.8 87.4-46.4 28.3 6.2 23.3 35.1-6.9 37.6-17 1.3-19.5 17.6-3.2 20.8 38.4 7.5 54.1 53.3 29 85.3-11.4 14.5-17 16.3-52.2 16.3-22.1 0-43.4-3.7-49.1-7.5z"/>
				<path id="pN1YoiJu8" class="s0" d="m2312.8 2137.3c-3.8-4.4-5.7-14.4-3.2-22 3.2-11.9 7-13.8 29-12.5 20.7 1.2 26.4-0.7 28.3-8.8 1.2-7.6-1.9-11.3-8.2-11.3-5.7 0-18.9-5.7-28.9-13.2-14.5-10.1-18.3-17.6-18.3-36.4 0-37.7 32.1-57.1 79.3-48.4 18.2 3.8 22 6.9 20.1 17.6-1.2 9.4-8.2 15.1-22 18.9-24.5 6.2-27.1 15.6-5.7 21.3 40.3 10 56 58.4 29 87.3-12.6 13.1-20.2 15.6-54.1 15.6-23.9 0-41.5-3.1-45.3-8.1z"/>
				<path id="ptHSKQx34" fill-rule="evenodd" class="s0" d="m2552.4 2141.1c-6.2-2.6-8.1-31.4-8.1-118.1 0-63.4 1.9-119.2 3.7-124.9 2.6-5.6 11.4-10 21.4-10 19.5 0 25.2 15 25.2 70.3v31.4l25.2-4.4c31.4-5.1 65.4 5.6 81.7 26.3 9.5 12.6 12.6 25.8 12.6 56.5 0 36.4-1.9 42.7-18.2 59-17.6 17.6-20.2 18.2-77.4 17-32.1 0-62.3-1.9-66.1-3.1zm102.6-50.3c11.9-16.3 10.7-35.1-3.8-50.8-17-18.2-28.3-17.6-47.8 1.9-15.7 16.3-16.4 32.6-1.3 52.1 9.5 11.3 43.4 9.4 52.9-3.2z"/>
				<path id="pxgeYhFzX" class="s0" d="m3050.6 2139.2c-6.9-11.3-3.1-215.3 4.5-224.1 4.4-5.7 22.6-8.2 55.9-8.2 53.5 0 65.5 7.5 57.9 36.4-2.5 10.7-8.8 13.8-32.7 15.1-27.7 1.9-28.9 2.5-28.9 20.7 0 17.6 1.8 18.8 28.3 22 26.4 3.1 28.3 4.4 30.2 23.8 1.9 20.1 1.9 20.1-26.5 20.1-33.9 0-41.5 10.1-41.5 54.6 0 17-3.1 33.9-7.5 38.3-9.5 9.4-34 10.1-39.7 1.3z"/>
				<path id="pzxBMv7Ua" class="s0" d="m3261.4 2132.3c-12.6-6.9-29.6-23.3-37.8-35.2-13.2-19.4-15.7-30.1-15.7-70.3 0-42.7 1.9-50.2 17.6-70.9 24.6-32 59.8-49 101.3-49 39 0 54.1 11.9 54.1 42.7 0 18.8-1.3 20.1-17 15.7-10.1-3.2-28.3-5-42.1-4.4-45.3 0.6-73 50.2-54.1 99.2 8.8 23.8 49.7 42.7 76.1 35.1 34-10 37.1-8.1 37.1 18.2 0 28.9-5.7 32-58.5 32-27.7 0-45.3-3.7-61-13.1z"/>
				<path id="pd7eAXOcn" fill-rule="evenodd" class="s0" d="m3428.7 2135.4c-1.9-5.6-3.8-54.6-3.8-109.2 0-115.5 1.9-119.3 49.7-119.3 40.3 0 85.6 16.3 101.9 36.4 18.9 24.5 13.9 64.7-12.6 91.7l-19.5 20.1 29 38.9c15.7 21.3 27 41.4 24.5 45.2-4.4 6.9-47.2 8.1-56.6 1.2-3.8-2.5-14.5-16.3-23.9-31.4-20.8-32-32.1-31.3-34.6 2.6-1.3 13.1-5.7 26.3-9.4 28.8-13.2 8.8-40.9 5.7-44.7-5zm81.2-123c11.9-5.7 15.7-12 15.7-27.7 0-17.5-3.2-21.9-16.4-25.1-23.3-6.2-35.8 19.5-23.9 50.3 4.4 11.9 3.8 11.9 24.6 2.5z"/>
				<path id="p13TZXz8bn" class="s0" d="m3645.7 2137.3c-8.2-10.1-6.9-209.7 1.3-222.2 3.1-5.7 22.6-8.2 57.9-8.2 55.9 0 59.7 2.5 59.7 35.2 0 13.1-2.5 15-23.9 15-28.9 0-49.1 12.6-43.4 27.6 4.4 11.3 9.4 13.9 44 19.5 21.4 3.1 23.9 5.7 22.1 20.7-1.9 15.1-5.1 17-27.1 18.9-35.8 3.1-40.9 9.4-40.9 54.6 0 30.1-2.5 40.1-10 43.3-16.4 6.3-32.1 4.4-39.7-4.4z"/>
				<path id="pCfBb97GO" class="s0" d="m2070 1942.7c-23.9-17 1.2-59.7 26.4-44.6 15.1 10.1 17.6 34.5 3.8 44.6-6.3 4.4-13.2 8.1-15.1 8.1-1.9 0-8.8-3.7-15.1-8.1z"/>
				<path id="p19F2Og73A" class="s0" d="m1478.7 1872.4c-5.7-15.7-4.4-413.1 1.2-422.5 3.2-4.4 10.1-6.3 15.8-3.8 10 3.8 10.6 22 9.4 217.9-1.9 192.1-3.2 214.7-12 216.5-5.6 1.3-11.9-2.5-14.4-8.1z"/>
				<path id="plS1WNHJ" class="s0" d="m1696.3 1763.1c-8.8-5-8.2-13.1 6.3-150 8.2-77.8 12.6-82.9 75.5-82.9 47.8 0 61.6 8.8 57.2 33.9-3.1 13.9-6.9 16.4-24.5 16.4-34 0-54.1 10.6-51.6 27 1.3 9.4 6.9 14.4 17.6 15.7 39.7 4.3 44.7 7.5 42.8 25.1-1.9 15.7-4.4 16.9-31.4 18.8-32.8 1.9-34.6 4.4-43.4 57.1-6.3 41.5-23.3 55.3-48.5 38.9z"/>
				<path id="p12ZomCOUc" class="s0" d="m1861.1 1760c-5.6-15.1 6.3-140.6 20.2-203.4 3.7-18.2 31.4-30.1 44.6-18.8 7.6 6.3 8.8 15.7 5.7 42.7-2.5 18.8-8.2 66.5-12.6 105.4q-7.6 71.6-17 77.2c-13.8 8.8-37.1 6.9-40.9-3.1z"/>
				<path id="pOlSyU0nZ" fill-rule="evenodd" class="s0" d="m1973.1 1763.1c-6.9-3.7-6.9-18.8-1.9-79.7 11.3-123 13.8-133.7 28.3-143.7 18.3-13.2 71.1-11.3 102.6 2.5 22 10 27.6 16.3 33.3 38.3 8.8 32 0 63.4-22.7 80.9-19.5 15.7-18.8 24.5 4.4 62.8 10.7 17 17.7 33.9 15.1 37.7-1.8 3.8-13.2 6.9-25.1 6.9-17.6 0-24.6-4.4-44.1-31.4-12.5-16.9-27-31.4-31.4-31.4-8.2 0-15.7 18.9-15.7 41.4 0 18.9-24.6 27.7-42.8 15.7zm95.6-133c20.8-16.4 21.4-35.2 1.3-44.6-23.9-10.7-35.3-2.5-35.3 25.1 0 36.4 7.6 40.2 34 19.5z"/>
				<path id="p19kQQZKUX" class="s0" d="m2180.1 1763.1c-7.6-5-8.2-12.5-1.9-48.9 4.4-23.2 10.7-70.3 13.8-104.2 6.3-74.1 11.3-79.1 66.1-79.8 62.2 0 80.5 10.7 66 38.3-5 8.8-13.2 12-30.2 12-28.9 0-47.8 11.9-44 28.8 1.2 8.8 8.8 12.6 30.2 15.1 26.4 3.1 28.3 4.4 28.3 22 0 17.6-1.3 18.8-28.3 20.7-35.3 2.5-45.3 10.7-42.8 35.2 1.9 18.2 3.8 19.4 31.4 21.3 23.3 1.3 32.1 5 37.2 15.1 11.9 21.3-7 30.1-66.1 30.1-28.3 0-54.7-2.5-59.7-5.7z"/>
				<path id="pgDr0QGMA" class="s0" d="m2360 1764.4c-7-6.9-5.1-49.6 6.2-136.2 5.7-45.2 13.3-84.1 17-86.7 3.8-2.5 14.5-5 23.9-5 18.3 0 27.1 9.4 80.6 83.5 22.6 32 36.4 45.8 40.2 42.1 9.4-9.4 22-62.2 22.7-91.7 0-30.7 11.3-42.7 34.6-36.4l17.6 4.4-4.4 50.9c-13.9 172.6-15.8 179.5-48.5 179.5-15.7 0-23.9-7.5-56-51.5-50.3-68.4-63.5-82.2-71-74.7-3.2 3.2-8.2 28.9-11.4 57.8-3.1 28.2-8.8 55.8-12.5 60.2-7.6 8.8-32.1 11.3-39 3.8z"/>
				<path id="p102eIapgL" class="s0" d="m2628.6 1759.4c-3.8-9.4 8.1-30.2 54.7-94.2 40.2-55.2 47.8-71.6 37.1-78.5-5-3.1-21.4-6.2-35.9-6.2-21.3 0-27-2.5-30.8-13.8-3.1-10.1-0.6-17 10.1-25.2 11.3-9.4 25.8-11.3 81.1-11.3 69.9 0 86.8 4.4 80.6 21.4-4.5 10.7-73.6 111.7-80.6 116.8-5.6 4.3-24.5 42-24.5 50.2 0 3.1 13.8 6.3 30.8 6.3 38.4 0 51 4.3 51 18.2 0 21.9-13.2 25.7-92.5 25.7-64.2 0-78.6-1.9-81.1-9.4z"/>
				<path id="p146vsorxk" class="s0" d="m2854.4 1764.4c-5.7-1.9-6.9-16.3-4.4-50.8 4.4-66.6 20.7-166.4 28.3-173.9 3.1-3.2 26.4-6.9 51.6-8.2 54.1-2.5 70.4 5.6 64.1 32-3.7 15.1-7.5 17-30.8 17-28.3 0-41.5 8.1-41.5 26.3 0 13.2 5.7 16.4 37.7 19.5 19.5 1.9 22.1 3.8 22.1 20.7 0 17.6-1.3 18.2-32.8 20.1-28.9 1.9-33.9 3.8-37.1 16.9-6.3 25.8-0.6 37.7 19.5 39.6 35.9 3.1 47.2 7.5 47.2 18.8 0 21.4-13.2 26.4-65.4 25.8-28.3 0-54.7-1.9-58.5-3.8z"/>
			</g>
			<path id="2" class="s0" d="m1580 1187v-222l225-225 225-225v-212c0-117-3-213-8-213-4 0-102 94-217 210-115 116-213 210-217 210-5 0-8-97-8-215v-215h445 445v223 222l-220 220-220 220v220 220l220-220 220-220v223 222h-445-445z"/>
			<path id="4" class="s0" d="m948 1548l-3-223-440-2-440-2-3-178-2-178 443-443 442-442 217 2 217 3-436 437-435 438h441 441v405 405h-220-220z"/>
		</g>
	</symbol>
	<use href="#logo" />
</svg>
