<svg version="1.2" xmlns="http://www.w3.org/2000/svg" viewBox="0 0 4173 2278">
	<title>42_logos</title>
	<symbol
		id="logo"
		viewBox="0 0 4173 2278"
		style="fill: var(--color); stroke: var(--color);"
	>
		<g id="Layer">
			<g id="Nice">
				<path id="pzXaXxJs5 copy 4" class="s0" d="m1596 1755.8v-280.8h20.5 20.5v280.8 280.8h-20.5-20.5z"/>
				<path id="Nice" class="s0" aria-label="NICE"  d="m2111.2 1807l-149-200h-40.3l-36.4 298h58.5l23.7-200.4 148.3 200.4h40.3l36.3-298h-58.5zm179.9 98l36.3-298h-58.9l-36.3 298zm218.6 5.5c31.6 0 57.7-8.3 77.4-20.1l7.9-66.8c-24.9 20.9-49 32-80.2 32-54.6 0-91.7-43.1-84.6-100.8 6.3-54.5 49.4-98.4 108.7-98.4 27.7 0 53.8 12.7 73.9 29.6l6.3-64.8c-22.1-12.2-50.2-19.7-81-19.7-90.1 0-158.1 66.4-167.6 150.9-10.2 90.6 52.6 158.1 139.2 158.1zm310.6-5.5l6.3-51.4h-114.6l10.3-83.8h109.5l6.3-50.6h-109.5l7.1-60.8h114.3l5.9-51.4h-172.7l-36.4 298z"/>
			</g>
			<g id="42">
				<path id="2" class="s0" d="m1580 1187v-222l225-225 225-225v-212c0-117-3-213-8-213-4 0-102 94-217 210-115 116-213 210-217 210-5 0-8-97-8-215v-215h445 445v223 222l-220 220-220 220v220 220l220-220 220-220v223 222h-445-445z"/>
				<path id="4" class="s0" d="m948 1548l-3-223-440-2-440-2-3-178-2-178 443-443 442-442 217 2 217 3-436 437-435 438h441 441v405 405h-220-220z"/>
			</g>
		</g>
	</symbol>
	<use href="#logo" />
</svg>
