<svg version="1.2" xmlns="http://www.w3.org/2000/svg" viewBox="0 0 4173 2278">
	<title>42_logos</title>
	<symbol
		id="logo"
		viewBox="0 0 4173 2278"
		style="fill: var(--color); stroke: var(--color);"
	>
		<g id="Layer">
			<g id="Quebec">
				<path id="pzXaXxJs5 copy 2" class="s0" d="m1586 1784.3v-269.3h19.6 19.7v269.3 269.3h-19.7-19.6z"/>
				<path id="Quebec" class="s0" aria-label="QUÉBEC"  d="m2169.6 1785.2c5.6-86.8-58.4-149.3-143.3-149.3-85.7 0-154.3 64.8-159.2 147.1-5.3 89.8 60.6 149.3 143.3 149.3 26.5 0 51.5-6.1 73.1-17.1l22.8 27.3 42-26.9-25-28.4c26.9-26.2 44-61.8 46.3-102zm-245.3-1.1c3-53.4 45.1-95.5 101.6-95.5 51.9 0 89.8 39.8 86.4 95.1-1.5 23.9-10.2 45.5-24.6 62.2l-30.3-36-39.1 22.7 31.1 40.2c-11.8 4.2-24.6 6.8-38.7 6.8-48.9 0-89.8-37.5-86.4-95.5zm398.4 148.2c65.2 0 112.6-35.6 121.7-110.7l21.9-180.4h-57.2l-21.2 173.2c-5.7 47.8-28.1 65.6-61.4 65.6-31.1 0-53.8-17.4-47.8-66l21.2-172.8h-57.6l-20.8 171.7c-9.9 82.3 35.2 119.4 101.2 119.4zm363.1-366.5l-42.8-29.2-58.8 65.2 27.3 18.6zm-18.9 361.2l6-49.3h-109.9l9.9-80h105l6-48.9h-105l6.8-58.3h109.6l5.7-49.3h-165.7l-34.8 285.8zm152 0c57.2 0 107.2-19.7 113.7-75.4 4.1-33.8-12.9-63-46.3-73.6v-0.4c20.5-9.1 34.9-29.5 37.6-53.8 6.4-55.3-33.4-82.6-97.1-82.6h-59.5l-34.9 285.8zm-1.5-239.2h13.3c27.3 0 42.1 14 38.6 37.5-3 23.5-18.1 35.7-45.1 35.7h-16.3zm-14.7 114.8h23.5c40.5 0 54.9 17.4 52.3 41.3-2.7 22.4-21.6 36-57.6 36h-27zm343.5 124.4l6-49.3h-109.9l9.9-80.4h104.9l6.1-48.5h-105l6.8-58.4h109.6l5.7-49.2h-165.7l-34.8 285.8zm201.6 5.3c30.3 0 55.3-8 74.3-19.4l7.6-64c-23.9 20.1-47 30.7-77 30.7-52.3 0-87.9-41.3-81.1-96.7 6.1-52.3 47.4-94.4 104.3-94.4 26.5 0 51.5 12.2 70.8 28.5l6.1-62.2c-21.2-11.7-48.1-18.9-77.7-18.9-86.4 0-151.6 63.6-160.7 144.8-9.9 86.8 50.4 151.6 133.4 151.6z"/>
			</g>
			<g id="42">
				<path id="2" class="s0" d="m1580 1187v-222l225-225 225-225v-212c0-117-3-213-8-213-4 0-102 94-217 210-115 116-213 210-217 210-5 0-8-97-8-215v-215h445 445v223 222l-220 220-220 220v220 220l220-220 220-220v223 222h-445-445z"/>
				<path id="4" class="s0" d="m948 1548l-3-223-440-2-440-2-3-178-2-178 443-443 442-442 217 2 217 3-436 437-435 438h441 441v405 405h-220-220z"/>
			</g>
		</g>
	</symbol>
	<use href="#logo" />
</svg>
