<svg version="1.2" xmlns="http://www.w3.org/2000/svg" viewBox="0 0 4173 2278">
	<title>42_logos</title>
	<symbol
		id="logo"
		viewBox="0 0 4173 2278"
		style="fill: var(--color); stroke: var(--color);"
	>
		<g id="Layer">
			<g id="Roma">
				<path id="pzXaXxJs5 copy 5" class="s0" d="m1585 1715.1v-256.1h18.7 18.7v256.1 256.2h-18.7-18.7z"/>
				<path id="Luiss" class="s0" aria-label="Luiss"  d="m1978.4 2237v-55h-72.8v-187.7h-59.5v242.7zm106.8 4.2c49 0 80.2-25.1 80.2-73.4v-92.4h-57.6v87.9c0 18.7-5.8 29.9-22.6 29.9-17 0-22.5-11.2-22.5-29.9v-87.9h-57.6v92.4c0 50.5 32.8 73.4 80.1 73.4zm152.9-196.7c18.1 0 33.8-11.3 33.8-31.2 0-18.4-14.8-30.9-33.8-30.9-18.9 0-33.8 12.9-33.8 30.9 0 19.9 15.8 31.2 33.8 31.2zm29 192.5v-161.6h-57.9v161.6zm100.4 4.5c39.6 0 67-20.9 67-55.4 0-27.6-15.8-40.2-44.1-48.9-21.3-7.4-27.1-10.6-27.1-16.4 0-5.5 4.8-8.7 13.5-8.7 10.7 0 22.2 5.2 29.3 12.2l23.2-34.7c-11.9-11.3-31.5-18.4-55.7-18.4-34.1 0-63.7 16.4-63.7 51.2 0 26.7 17 39.9 44.7 48.6 18.7 7.1 24.5 10.3 24.5 17.4 0 7.1-4.8 10.6-15.1 10.6-14.2 0-26.4-7.1-36.7-18.3l-25.8 34.4c12.9 13.9 34.5 26.4 66 26.4zm157.4 0c39.6 0 66.9-20.9 66.9-55.4 0-27.6-15.7-40.2-44-48.9-21.3-7.4-27.1-10.6-27.1-16.4 0-5.5 4.8-8.7 13.5-8.7 10.7 0 22.2 5.2 29.3 12.2l23.2-34.7c-11.9-11.3-31.5-18.4-55.7-18.4-34.1 0-63.7 16.4-63.7 51.2 0 26.7 17 39.9 44.7 48.6 18.7 7.1 24.5 10.3 24.5 17.4 0 7.1-4.8 10.6-15.1 10.6-14.2 0-26.4-7.1-36.7-18.3l-25.8 34.4c12.9 13.9 34.5 26.4 66 26.4z"/>
				<path id="Roma" class="s0" aria-label="ROMA"  d="m2043.4 1667.1c7.2-59.5-35.7-87.9-101.3-87.9h-59.8l-33.2 271.8h53.7l13-105.6 11.2-0.4 56.6 106h60.2l-66.4-111.4c39.3-12.6 62.1-36.8 66-72.5zm-99.5-41.1c32.8 0 49.1 11.9 46.2 39-2.9 25.6-24.2 37.8-57.4 37.8h-11.5l9-76.8zm276.9 230c81.8 0 146.7-60.5 151.4-139.8 5.4-82.6-55.5-142.1-136.3-142.1-81.4 0-146.7 61.7-151.4 139.9-5 85.4 57.7 142 136.3 142zm0.4-50.1c-46.2 0-85.1-35.7-81.9-90.8 2.9-50.5 42.9-90.9 96.3-90.9 49 0 85.1 38.2 81.8 90.5-3.2 51.6-41.8 91.2-96.2 91.2zm226.7 45.1l46.2-160.8 45.4 160.8h22.7l87.6-160.4 3.6 160.4h53.7l-13.7-271.8h-33.8l-97.7 178.8-50.9-178.8h-34.2l-84.4 271.8zm549.8 0l-82.2-271.8h-38.2l-152.1 271.8h59.4l31.4-58.8h108.5l15.9 58.8zm-137-142.8c9.4-18 18.7-36 27.7-54 4.4 18 9.1 36 13.7 54l10.5 39.3h-72.8z"/>
			</g>
			<g id="42">
				<path id="2" class="s0" d="m1580 1187v-222l225-225 225-225v-212c0-117-3-213-8-213-4 0-102 94-217 210-115 116-213 210-217 210-5 0-8-97-8-215v-215h445 445v223 222l-220 220-220 220v220 220l220-220 220-220v223 222h-445-445z"/>
				<path id="4" class="s0" d="m948 1548l-3-223-440-2-440-2-3-178-2-178 443-443 442-442 217 2 217 3-436 437-435 438h441 441v405 405h-220-220z"/>
			</g>
		</g>
	</symbol>
	<use href="#logo" />
</svg>
