<svg version="1.2" xmlns="http://www.w3.org/2000/svg" viewBox="0 0 4173 2278">
	<title>42_logos</title>
	<symbol
		id="logo"
		viewBox="0 0 4173 2278"
		style="fill: var(--color); stroke: var(--color);"
	>
		<g id="Layer">
			<g id="Folder 1">
				<path id="p1BwndTYpv" class="s0" d="m1606.1 2087.8c-17.7-7.3-17.1 5.1-17.1-287.2 0-148.2 1.3-271.1 2.5-273.4 4.5-7.2 25.9-14.8 32.6-11.3 16.4 8.8 15.8-3.2 15.8 282.1 0 231-0.7 266.1-4.8 276.2-6.9 16.8-13.6 19.9-29 13.6z"/>
				<path id="SEOUL" class="s0" aria-label="SEOUL"  d="m1969.4 1942.6c56 0 98-33.6 103.6-85.6 5.2-50.4-19.2-80-68.8-100.8-38.4-16.8-48.8-29.2-47.2-47.2 1.6-15.6 15.2-27.2 37.6-27.2 22 0 39.6 9.6 52 26l40-35.2c-19.2-26.4-51.2-42.8-93.2-42.8-54.8 0-93.2 30.8-97.6 77.2-4.8 47.2 22.8 72.8 70.8 93.6 39.2 17.6 48 31.6 45.2 54.4-2 21.2-17.2 35.6-42.4 35.6-25.6 0-48-12-62.8-41.6l-41.2 31.2c14.8 35.2 48 62.4 104 62.4zm332.4-5.6l6.4-52h-116l10.4-84.8h110.8l6.4-51.2h-110.8l7.2-61.6h115.6l6-52h-174.8l-36.8 301.6zm223.2 5.6c90.8 0 162.8-67.2 168-155.2 6-91.6-61.6-157.6-151.2-157.6-90.4 0-162.8 68.4-168 155.2-5.6 94.8 64 157.6 151.2 157.6zm0.4-55.6c-51.2 0-94.4-39.6-90.8-100.8 3.2-56 47.6-100.8 106.8-100.8 54.4 0 94.4 42.4 90.8 100.4-3.6 57.2-46.4 101.2-106.8 101.2zm329.2 55.6c68.8 0 118.8-37.6 128.4-116.8l23.2-190.4h-60.4l-22.4 182.8c-6 50.4-29.6 69.2-64.8 69.2-32.8 0-56.8-18.4-50.4-69.6l22.4-182.4h-60.8l-22 181.2c-10.4 86.8 37.2 126 106.8 126zm336.8-5.6l6.8-55.6h-89.6l30-246h-59.6l-36.8 301.6z"/>
			</g>
			<path id="2" class="s0" d="m1580 1187v-222l225-225 225-225v-212c0-117-3-213-8-213-4 0-102 94-217 210-115 116-213 210-217 210-5 0-8-97-8-215v-215h445 445v223 222l-220 220-220 220v220 220l220-220 220-220v223 222h-445-445z"/>
			<path id="4" class="s0" d="m948 1548l-3-223-440-2-440-2-3-178-2-178 443-443 442-442 217 2 217 3-436 437-435 438h441 441v405 405h-220-220z"/>
		</g>
	</symbol>
	<use href="#logo" />
</svg>
