<svg version="1.2" xmlns="http://www.w3.org/2000/svg" viewBox="0 0 4173 2278">
	<title>42_logos</title>
	<symbol
		id="logo"
		viewBox="0 0 4173 2278"
		style="fill: var(--color); stroke: var(--color);"
	>
		<g id="Layer">
			<g id="Heilbronn">
				<path id="Layer" class="s0" d="m1913.7 1715.6h106.9l12.6-101.1h62.2l-33 268.3h-62.2l14.5-115.7h-106.9l-14.6 115.7h-62.2l33.1-268.3h62.2z"/>
				<path id="Layer" class="s0" d="m2295.6 1667h-87.4l-6.8 51.5h84.5l-6.8 52.5h-84.5l-6.9 59.3h89.5l-6.8 52.5h-149.7l33-268.3h148.7z"/>
				<path id="Layer" class="s0" d="m2419.1 1614.5l-33.1 268.3h-62.2l33.1-268.3z"/>
				<path id="Layer" class="s0" d="m2541.5 1614.5l-26.2 216.8h83.6l-6.8 52.5h-145.8l33-268.3z"/>
				<path id="Layer" fill-rule="evenodd" class="s0" d="m2660.1 1614.5h85.5c18.5 0 42.8 2 59.3 18.5 9.8 9.7 17.5 25.3 17.5 45.7 0 17.5-4.8 31.1-12.6 41.8-8.8 11.6-19.4 17.5-28.2 20.4 13.6 2.9 23.3 9.7 30.1 16.5 12.7 11.7 17.5 25.3 17.5 42.8 0 28.2-11.6 46.6-21.3 57.3-21.4 21.4-52.5 25.3-80.7 25.3h-100.1zm35 220.6h22.3c11.7 0 30.1-1 39.9-9.7 3.9-2.9 9.7-10.7 9.7-26.2 0-5.9-1-14.6-6.8-20.5-8.8-8.7-27.2-9.7-33.1-9.7h-24.3zm13.6-111.8h12.7c10.7 0 25.2-0.9 34-9.7 5.8-5.8 9.7-15.5 9.7-24.3 0-10.7-4.8-16.5-8.7-20.4-7.8-5.8-18.5-6.8-27.2-6.8h-12.7z"/>
				<path id="Layer" fill-rule="evenodd" class="s0" d="m2983.8 1614.5c26.2 0 51.5 2 70.9 24.3 9.7 9.7 19.5 27.2 19.5 54.4 0 25.3-8.8 45.7-22.4 59.3-11.7 11.7-28.2 18.5-42.8 21.4l69.1 108.9h-72.9l-65.2-106-12.6 106h-62.2l33-268.3zm-37.9 122.5h15.6c9.7 0 25.3-1 36-9.7 10.6-8.8 13.6-20.4 13.6-31.1 0-8.8-2-19.5-12.7-26.3-7.8-4.8-19.4-6.8-34-6.8h-9.7z"/>
				<path id="Layer" fill-rule="evenodd" class="s0" d="m3369.6 1643.7c23.4 22.3 37.9 56.4 37.9 95.2 0 37.9-13.6 79.7-41.7 108.9-34.1 35-75.9 41.8-110.9 41.8-33 0-70.9-5.8-102-37.9-18.5-18.5-37.9-49.6-37.9-94.3 0-46.7 18.5-83.6 44.7-107.9 34-33 75.8-40.8 110.8-40.8 50.5 0 81.6 18.5 99.1 35zm-167.1 47.6c-15.6 16.5-24.3 38.9-24.3 61.2 0 24.3 9.7 43.8 21.3 56.4 18.5 18.5 39.9 22.4 59.3 22.4 18.5 0 39.9-2.9 60.3-23.4 14.6-14.5 25.3-37.9 25.3-66.1 0-17.4-3.9-38.8-21.4-56.3-17.5-17.5-38.9-21.4-55.4-21.4-27.2 1.9-48.6 10.7-65.1 27.2z"/>
				<path id="Layer" class="s0" d="m3436.7 1883.8l33.1-268.3h54.4l123.4 174.9 21.4-174.9h62.2l-33 268.3h-54.5l-123.4-176-21.4 176z"/>
				<path id="Layer" class="s0" d="m3757.4 1883.8l33.1-268.3h54.4l123.5 174.9 21.3-174.9h62.2l-33 268.3h-54.4l-123.5-176-21.3 176z"/>
				<path id="Layer" class="s0" d="m1590 1494h40.8v508.3h-40.8z"/>
			</g>
			<path id="2" class="s0" d="m1580 1187v-222l225-225 225-225v-212c0-117-3-213-8-213-4 0-102 94-217 210-115 116-213 210-217 210-5 0-8-97-8-215v-215h445 445v223 222l-220 220-220 220v220 220l220-220 220-220v223 222h-445-445z"/>
			<path id="4" class="s0" d="m948 1548l-3-223-440-2-440-2-3-178-2-178 443-443 442-442 217 2 217 3-436 437-435 438h441 441v405 405h-220-220z"/>
		</g>
	</symbol>
	<use href="#logo" />
</svg>
