<svg version="1.2" xmlns="http://www.w3.org/2000/svg" viewBox="0 0 4173 2278">
	<title>42_logos</title>
	<symbol
		id="logo"
		viewBox="0 0 4173 2278"
		style="fill: var(--color); stroke: var(--color);"
	>
		<g id="Layer">
			<g id="Rio">
				<path id="pzXaXxJs5 copy 4" class="s0" d="m2210 1772.8v-280.8h20.5 20.5v280.8 280.8h-20.5-20.5z"/>
				<path id="Rio" class="s0" aria-label="RIO"  d="m2712.6 1720.4c7.9-65.2-39.2-96.4-111.1-96.4h-65.6l-36.4 298h58.9l14.3-115.8 12.2-0.4 62.1 116.2h66l-72.8-122.1c43.1-13.9 68-40.3 72.4-79.5zm-109.1-45c36 0 53.7 13 50.6 42.7-3.2 28-26.5 41.5-62.9 41.5h-12.6l9.9-84.2zm212.6 246.6l36.4-298h-58.9l-36.4 298zm228.9 5.5c89.7 0 160.8-66.4 166-153.3 5.9-90.5-60.9-155.7-149.4-155.7-89.4 0-160.9 67.5-166 153.3-5.6 93.7 63.2 155.7 149.4 155.7zm0.4-54.9c-50.6 0-93.3-39.1-89.8-99.6 3.2-55.3 47.1-99.6 105.6-99.6 53.7 0 93.2 41.9 89.7 99.2-3.6 56.5-45.9 100-105.5 100z"/>
				<g id="42 copy">
					<path id="2" class="s0" d="m2141 1200v-222l225-225 225-225v-212c0-117-3-213-8-213-4 0-102 94-217 210-115 116-213 210-217 210-5 0-8-97-8-215v-215h445 445v223 222l-220 220-220 220v220 220l220-220 220-220v223 222h-445-445z"/>
					<path id="4" class="s0" d="m1509 1561l-3-223-440-2-440-2-3-178-2-178 443-443 442-442 217 2 217 3-436 437-435 438h441 441v405 405h-220-220z"/>
				</g>
			</g>
		</g>
	</symbol>
	<use href="#logo" />
</svg>
