<svg version="1.2" xmlns="http://www.w3.org/2000/svg" viewBox="0 0 4173 2278">
	<title>42_logos</title>
	<symbol
		id="logo"
		viewBox="0 0 4173 2278"
		style="fill: var(--color); stroke: var(--color);"
	>
		<g id="Layer">
			<g id="Tokyo">
				<path id="pzXaXxJs5 copy 2" class="s0" d="m1586 1792v-277h20.2 20.2v277 276.9h-20.2-20.2z"/>
				<path id="Tokyo" class="s0" aria-label="TOKYO"  d="m1963.2 1939l29.2-239.4h65.5l6.6-54.5h-189.8l-6.6 54.5h65.5l-29.3 239.4zm250.3 5.5c88.5 0 158.7-65.5 163.7-151.3 5.9-89.3-60-153.6-147.3-153.6-88.1 0-158.7 66.7-163.8 151.3-5.4 92.4 62.4 153.6 147.4 153.6zm0.4-54.2c-49.9 0-92-38.6-88.5-98.3 3.1-54.5 46.4-98.2 104.1-98.2 53 0 92 41.3 88.5 97.8-3.5 55.8-45.3 98.7-104.1 98.7zm404.2-245.2l-119.3 119.6 15.3-119.6h-58.5l-35.9 293.9h58.5l15.2-128.6 9.3-3.6 85.8 132.2h68.2l-107.2-158.3 140.4-135.6zm196.1 293.9l15.5-127.1 117.8-166.8h-68.2l-72.6 110.3-46.3-110.3h-66.3l77.2 166.8-15.6 127.1zm267.4 5.5c88.5 0 158.7-65.5 163.7-151.3 5.9-89.3-60-153.6-147.3-153.6-88.1 0-158.7 66.7-163.8 151.3-5.4 92.4 62.4 153.6 147.4 153.6zm0.4-54.2c-49.9 0-92-38.6-88.5-98.3 3.1-54.5 46.4-98.2 104.1-98.2 53 0 92 41.3 88.5 97.8-3.5 55.8-45.2 98.7-104.1 98.7z"/>
			</g>
			<path id="2" class="s0" d="m1580 1187v-222l225-225 225-225v-212c0-117-3-213-8-213-4 0-102 94-217 210-115 116-213 210-217 210-5 0-8-97-8-215v-215h445 445v223 222l-220 220-220 220v220 220l220-220 220-220v223 222h-445-445z"/>
			<path id="4" class="s0" d="m948 1548l-3-223-440-2-440-2-3-178-2-178 443-443 442-442 217 2 217 3-436 437-435 438h441 441v405 405h-220-220z"/>
		</g>
	</symbol>
	<use href="#logo" />
</svg>