<svg version="1.2" xmlns="http://www.w3.org/2000/svg" viewBox="0 0 4173 2278">
	<title>42_logos</title>
	<style>
		.s0 { fill: {{ color }} } 
	</style>
	<g id="Layer">
		<g id="angouleme">
			<path id="pXqxSDv0e" fill-rule="evenodd" class="s0" d="m3175.8 2093.9c0-32.1-1.5-35.3-14.1-28.2-19.6 10.2-54.9 1.6-68.3-17.3-17.2-24.3-14.9-69.9 4-90.3 13.3-14.1 23.5-16.5 68.2-14.9l53.4 1.6v180.5l-21.2 2.4c-21.2 2.3-22 1.6-22-33.8zm0-73.7c10.2-19.6 3.2-37.8-16.5-44-29.8-9.5-50.9 27.5-29 49.5 14.1 14.1 36.1 11 45.5-5.5z"/>
			<path id="ptJvUQuDl" fill-rule="evenodd" class="s0" d="m1924.4 2068.8c-49.5-11.7-67.5-72.9-31.4-108.3 41.6-42.4 121.6-14.2 121.6 42.4 0 42.4-46.3 75.4-90.2 65.9zm43.1-45.5c13.4-16.4-1.5-51.1-21.9-51.1-28.3 0-43.2 33.9-23.6 53.5 13.4 13.3 33.8 11.8 45.5-2.4z"/>
			<path id="p9bel4Vhe" class="s0" d="m2078.9 2068.8c-28.2-5.4-42.3-34.5-39.2-82.4 2.4-36.1 4.7-41.6 20.4-44 15.7-2.3 17.3 0.8 17.3 35.3 0 44.1 7.8 59.8 28.2 55.8 11.8-1.5 15.7-11.7 18.8-45.6 4-40 5.5-43.1 23.6-43.1 18.8 0 19.6 1.5 17.2 43.1-3.9 60.5-7 68.4-34.5 77.8-13.3 4.7-26.7 7.8-29 7.8-2.4-0.7-12.6-3.1-22.8-4.7z"/>
			<path id="pLunR7iUh" fill-rule="evenodd" class="s0" d="m2385.7 2068.8c-29-5.4-51.8-40.8-46.3-72.9 5.5-34.7 29.8-55 65.1-55 30.6 0 65.1 29 65.1 55 0 14.1-4.7 15.7-47 15.7-48.7 0-59.7 8.6-30.6 24.3 11.7 6.3 18.8 6.3 25.1 0 13.3-13.3 44.7-11 44.7 3.9 0 9.4-47.9 37.7-56.5 33.7-1.6-0.7-10.2-3.1-19.6-4.7zm36.1-92.6c-7.1-7.1-18.1-10.2-25.1-7.1-22 7.8-14.9 18.8 11.7 18.8 22.8 0 24.4-1.5 13.4-11.7z"/>
			<path id="p1AyjK5ybw" fill-rule="evenodd" class="s0" d="m2677.6 2065.7c-29.8-8.6-43.1-26.7-43.1-58.8 0-37 26.7-66 59.6-66 15.7 0 34.5 3.1 42.4 7.8 14.9 7.8 33.7 50.3 25.9 58.2-3.2 2.3-23.6 4.7-47.1 4.7-43.2 0-51 6.2-29 24.3 9.4 7.8 15.7 7.8 27.4 0.8 17.3-11 46.3-12.6 46.3-3.2 0 10.2-25.1 30.6-43.1 35.3-8.7 2.4-25.9 0.8-39.3-3.1zm43.2-89.5c-5.5-6.3-14.1-11.8-19.6-11.8-5.5 0-14.1 5.5-19.6 11.8-8.7 10.2-5.5 11.7 19.6 11.7 25.1 0 28.2-1.5 19.6-11.7z"/>
			<path id="p14taPOhJV" class="s0" d="m3280.2 2066.5c-25.1-10.2-34.6-34.5-32.2-80.9 2.4-35.3 4.7-40.8 20.4-43.2 15.7-2.3 17.3 0.8 17.3 35.3 0 44.1 7.8 59.8 28.2 55.8 11.8-1.5 15.7-11.7 18.8-45.6 3.2-38.4 6.3-43.1 22-43.1 9.4 0 17.3 2.3 17.3 6.2 0 3.2 0 26.7 0 53.5 0 46.3-0.8 47.1-27.5 58.9-30.6 12.5-40 12.5-64.3 3.1z"/>
			<path id="p1GFCJk2VK" fill-rule="evenodd" class="s0" d="m3594.9 2062.6c-38.6-15.7-47.2-64.4-18.1-101.4 14.9-18.8 20.4-20.3 66.7-18l51 1.6 1.6 61.3 1.6 62-23.6-4c-12.5-1.5-30.6-0.7-39.2 2.4-9.4 3.9-26.7 2.3-40-3.9zm59.6-42.4c10.2-19.6 3.1-37.8-16.5-44-29.8-9.5-51 27.5-29 49.5 14.1 14.1 36.1 11 45.5-5.5z"/>
			<path id="pkQppcoyn" fill-rule="evenodd" class="s0" d="m4002.8 2068.8c-45.5-8.6-63.5-84-27.4-113 38.4-31.4 110.6-5.5 110.6 40.1 0 14.1-4.7 15.7-43.1 15.7-31.4 0-43.2 3.1-43.2 11 0 14.1 23.5 23.5 34.5 12.5 11.8-11.8 44-9.4 44 3.1 0 21.2-40.1 36.9-75.4 30.6zm33.8-94.2c-12.6-12.6-14.1-12.6-26.7 0-12.6 12.5-11.8 13.3 13.3 13.3 25.1 0 25.9-0.8 13.4-13.3z"/>
			<path id="pBOsEc52t" class="s0" d="m1661.4 1976.2v-90.3h22.1c17.3 0 29.8 11 64.4 54.2 23.5 30.6 45.5 55 47.8 55 2.4 0.8 4.7-24.4 3.9-54.2-0.8-55-0.8-55 21.2-55h21.2v90.3 90.3h-18.8c-14.9 0-31.4-14.1-65.2-55.7l-45.5-55-2.3 55-2.4 55.7h-22.7-23.7z"/>
			<path id="p60U8pptH" class="s0" d="m2214.7 2010.8c-15-29.9-27.5-58.2-27.5-62.9 0-3.9 8.6-7 19.6-7 14.9 0 22 7 33.7 33.7l14.9 33 17.3-33c12.6-25.9 21.2-33.7 36.1-33.7 11 0 19.6 1.5 19.6 3.9 0 1.5-13.3 29.8-29 62.8-37.7 75.4-47.9 76.1-84.7 3.2z"/>
			<path id="p1FVqI3Qlr" class="s0" d="m2494.7 1966.7c2.4-97.2 3.2-100.4 20.4-102.7 17.3-2.4 17.3-2.4 17.3 99.6v102.9h-19.6-20.4z"/>
			<path id="pIldyYZfc" class="s0" d="m2565.3 1966.7l2.4-100.4h19.6 19.6l2.4 100.4 2.3 99.8h-24.3-24.3z"/>
			<path id="p12GyQjGj4" fill-rule="evenodd" class="s0" d="m2885.5 2064.1c0-1.5 15.7-40.8 34.6-87.9 32.1-80.1 36.1-86.3 56.5-88.7 21.9-2.4 23.5 0.8 51.7 74.5 16.5 42.5 31.4 83.3 34.5 91.2 7.1 19.6-30.5 18-44.7-1.6-7-10.2-21.9-16.5-42.3-18.1-25.9-1.5-33 0.8-39.3 15.7-5.5 11.8-14.1 17.3-29 17.3-12.5 0-22-0.8-22-2.4zm109.9-71.4c0-0.7-3.9-14.2-8.7-28.3l-9.4-25.1-10.2 25.1c-14.1 32.3-14.1 31.5 8.7 31.5 10.9 0 19.6-1.6 19.6-3.2z"/>
			<path id="pBnzCjaQx" class="s0" d="m3411.2 2002.9c0-61.3 0.8-62.8 18-60.5 15.7 2.4 17.3 7.1 19.6 63.7 2.4 60.4 2.4 60.4-18 60.4-19.6 0-19.6-0.8-19.6-63.6z"/>
			<path id="pV7M8jt8Y" class="s0" d="m3481.8 2024.9c0-22.7-3.9-45.6-9.4-51.1-7.1-7.1-7.1-14.1-0.8-26.7 4.7-10.2 11-24.3 13.3-31.4 2.4-7.8 11.8-14.1 20.4-14.1 11.8 0 15.7 5.5 15.7 19.6 0 11.8 4.7 19.7 11 19.7 6.3 0 13.3 5.4 15.7 12.5 6.3 16.5 6.3 16.5-11 21.2-13.3 3.1-15.7 11-15.7 48 0 41.5-0.8 43.9-19.6 43.9-18.8 0-19.6-2.4-19.6-41.6z"/>
			<path id="pellcrQke" class="s0" d="m3733 2002.9c0-61.3 0.7-62.8 18-60.5 15.7 2.4 17.3 7.1 19.6 63.7 2.4 60.4 2.4 60.4-18 60.4-19.6 0-19.6-0.8-19.6-63.6z"/>
			<path id="p107OzwilV" class="s0" d="m3805.1 2006.1l2.4-60.5 48.6-1.6c64.4-2.4 73 5.5 73 72.3 0 48.6-0.8 50.2-19.6 50.2-18.9 0-19.6-2.4-19.6-43.2 0-31.3-3.2-44.8-11.8-47.9-21.2-8.7-35.3 12.5-35.3 52.6 0 36.1-1.6 38.5-19.6 38.5-20.4 0-20.4 0-18.1-60.4z"/>
			<path id="p10U1FntkQ" class="s0" d="m2791.4 1995.9c0-13.5 5.5-15.8 35.3-15.8 29.8 0 35.3 2.3 35.3 15.8 0 13.3-5.5 15.7-35.3 15.7-29.8 0-35.3-2.4-35.3-15.7z"/>
			<path id="pdZV4uC2z" class="s0" d="m3412 1906.3c-13.4-15.7-1.6-37.6 18-34.5 18.8 2.4 26.7 29 11 38.5-14.1 9.4-18.8 8.6-29-4z"/>
			<path id="pszYfL0PK" class="s0" d="m3733.7 1903.2c-9.4-18.1 0.8-35.3 19.7-31.4 18 3.1 24.3 29 9.4 38.5-14.9 10.2-20.4 8.6-29.1-7.1z"/>
			<path id="ppn5vHbGS" class="s0" d="m1482.6 1688.2c2.3-149 3.9-174.9 14.1-174.9 10.2 0 11.8 24.3 11.8 172.6 0 158.5-0.8 172.6-14.2 174.9-12.5 2.4-13.3-8.6-11.7-172.6z"/>
			<path id="p01A1NPV3" class="s0" d="m2094.6 1760.4c-86.3-52.6-25.9-193.8 75.3-177.3 25.1 3.9 64.4 31.4 64.4 44.7 0 13.4-32.2 15.7-48.7 3.9-33.7-23.5-69-10.9-84.7 29.9-18.1 49.4 32.9 91.7 76.1 62.7l22-14.9-22-2.3c-18.1-2.4-22-6.3-19.6-19.7 1.5-14.1 8.6-18 36.9-19.6 43.9-3.1 50.9 4 38.4 41.6-19.6 58.9-85.5 83.2-138.1 51z"/>
			<path id="p11gs43Sas" fill-rule="evenodd" class="s0" d="m2315.1 1764.3c-73-31.4-61.2-149 17.2-174.9 41.6-14.1 79.3-5.5 108.3 22.7 21.2 21.2 22.7 26.7 19.6 65.9-3.9 47.9-19.6 70.6-58.8 87.1-31.4 13.4-54.2 13.4-86.3-0.8zm83.9-43.1c34.5-34.5 23.6-87.9-19.6-98.9-24.3-6.2-56.5 13.4-66.7 40.8-20.4 52.6 46.3 98.1 86.3 58.1z"/>
			<path id="p2Io2pGS0" class="s0" d="m2523 1764.3c-27.5-14.9-32.2-33.7-25.9-97.3 7-72.1 10.2-79.2 32.2-79.2 21.1 0 22.7 5.5 10.9 73-3.9 25.1-5.5 50.2-3.1 56.5 6.3 15.6 31.4 21.9 49.4 12.5 15.7-8.6 20.4-23.5 28.3-96.5 4.8-42.4 6.4-45.5 25.2-45.5h20.4l-4.7 53.4c-8.7 89.4-13.4 103.5-40.1 120-29.1 17.3-63.6 18.8-92.6 3.1z"/>
			<path id="p4khi0vXd" fill-rule="evenodd" class="s0" d="m1630.1 1765.9c0-0.8 19.6-39.2 43.2-83.9 23.6-44.8 43.2-84.8 43.2-87.9 0-3.9 10.2-6.3 22.7-6.3 25.1 0 27.5 4.7 51.8 102 7.1 28.2 14.1 57.3 16.5 65.1 3.1 10.2-0.8 13.4-19.6 13.4-18.9 0-24.4-3.2-24.4-15.7 0-13.4-5.5-15.7-38.4-15.7-32.2 0-40 3.1-43.9 15.7-3.2 10.9-11.8 15.7-28.4 15.7-12.5 0-22.7-0.8-22.7-2.4zm117.8-67.5c0-3.9-2.4-18-5.5-32.1l-4.7-25.9-14.2 26.6c-18.8 35.4-18 38.5 4.7 38.5 11 0 19.7-3.1 19.7-7.1z"/>
			<path id="p3CdlFS6B" class="s0" d="m1838.9 1715.7c12.5-120 13.3-124 35.3-126.3 16.4-1.6 25.9 6.3 58 53.3 40 58.1 50.2 60.4 51 7.9 0-46.3 7.9-62.8 28.3-62.8 21.9 0 21.9 0.8 9.4 104.4-9.4 73.7-10.2 76.1-29.1 76.1-16.4 0-28.2-11.8-59.6-55.8-40.8-58.8-48.6-58.8-50.2-3.1-1.6 43.9-9.4 58.9-29.8 58.9-18.8 0-19.6-0.8-13.3-52.6z"/>
			<path id="pgdlYK2wM" class="s0" d="m2686.3 1719.6c14.9-135.7 12.5-127.9 37.6-130.2 22-3.2 22-2.4 17.3 31.4-2.4 18.8-6.3 52.5-9.4 75.3l-5.5 40.8h29c22.8 0 28.3 3.1 28.3 15.7 0 14.1-5.5 15.7-51 15.7h-51.8z"/>
			<path id="pgJknJmqR" class="s0" d="m2807.1 1751.8c0-8.7 3.9-49.4 9.4-90.2l8.6-73.8h50.2c44 0 49.5 1.6 49.5 14.9 0 12.6-6.3 15.7-29.1 18.1-24.3 1.5-30.6 5.5-32.1 20.4-2.4 14.9 0.8 17.2 25.9 17.2 25.1 0 28.2 2.4 25.9 18.1-1.6 13.3-7.9 18-30.6 19.6-20.4 1.5-29.9 7-33 17.2-4.7 19.6 0 23.6 31.4 23.6 20.4 0 25.9 3.1 25.9 15.7 0 14.1-5.5 15.7-51 15.7-46.3 0-51-1.6-51-16.5z"/>
			<path id="ppP2VRB3L" class="s0" d="m2949.1 1715.7c36.1-129.5 33.7-124 54.1-124 16.5 0 20.4 6.3 33.8 51l14.9 50.2 26.6-46.3c14.2-25.8 26.7-49.4 26.7-52.5 0-3.9 8.6-6.3 18.8-6.3 22.8 0 28.3 22 28.3 114.6 0 65.1 0 65.9-19.6 65.9-18.9 0-19.6-2.4-19.6-48.7v-49.4l-15.7 19.6c-7.9 11-21.2 32.9-28.3 49.4-18.8 41.6-32.1 36.9-47-18-7.9-25.1-16.5-44.7-19.7-42.4-3.1 1.6-10.2 22.8-14.9 46.3-8.6 40-10.2 43.2-31.3 43.2h-22z"/>
			<path id="p3TnrTMca" class="s0" d="m3187.6 1747.1c1.6-12.6 7.1-52.6 12.5-90.3l8.7-69h50.2c44.7 0 50.2 1.6 50.2 15.7 0 13.3-5.5 15.7-30.6 15.7-23.5 0-31.4 3.1-34.5 14.9-4.7 20.4 0 24.3 27.4 24.3 19.7 0 22.8 3.2 20.4 18.1-1.5 14.1-7.8 18-31.3 19.6-25.9 2.3-29.9 5.5-29.9 21.9 0 17.3 3.2 18.9 32.2 18.9 25.9 0 31.4 2.3 27.5 12.5-2.4 7.1-4.7 14.1-4.7 15.7 0 1.6-22.8 3.2-51 3.2h-50.2z"/>
			<path id="pMcCGOOkP" class="s0" d="m2830.6 1554.1c0-6.3 11.8-17.3 26.7-25.1 25.1-13.4 26.7-13.4 46.3 0.8 22 15.6 27.4 34.5 11 34.5-5.5 0-14.2-4-19.6-9.4-7.1-7.1-14.2-7.1-29.1 0-26.6 12.5-35.3 11.7-35.3-0.8z"/>
		</g>
		<path id="2" class="s0" d="m1580 1187v-222l225-225 225-225v-212c0-117-3-213-8-213-4 0-102 94-217 210-115 116-213 210-217 210-5 0-8-97-8-215v-215h445 445v223 222l-220 220-220 220v220 220l220-220 220-220v223 222h-445-445z"/>
		<path id="4" class="s0" d="m948 1548l-3-223-440-2-440-2-3-178-2-178 443-443 442-442 217 2 217 3-436 437-435 438h441 441v405 405h-220-220z"/>
	</g>
</svg>
