<svg version="1.2" xmlns="http://www.w3.org/2000/svg" viewBox="0 0 4173 2278">
	<title>42_logos</title>
	<style>
		.s0 { fill: {{ color }}; stroke: {{ color }}; stroke-width: 5 } 
	</style>
	<g id="Layer">
		<g id="Barcelona">
			<path id="p1HdO2jBYD" fill-rule="evenodd" class="s0" d="m2100.2 2040.6c-6.6-3-17.3-10.8-23.3-17.9l-11.4-12.6-3-28.7-2.4-29.3 35.9-40.7h49.7l10.8 17.9 1.7-47.8 1.8-47.3h35.9v202.8l-14.3 1.8-13.8 2.4-11.9-12-15.6 8.4c-17.9 9.6-23.3 9.6-40.1 3zm62.8-54.4v-18l-23.9-23.9h-8.4c-4.8 0-13.1 4.2-17.9 9.6l-9.6 8.9v28.8l9.6 8.9c4.8 5.4 13.1 9.6 17.9 9.6h8.4z"/>
			<path id="pYelXjm1s" fill-rule="evenodd" class="s0" d="m2260.6 2037l-19.2-7.8-9-18.5-9.5-17.9v-34.7l13.7-20.4 13.2-19.7 19.1-6 19.2-5.4 28.7 19.1 12.6-12.5 13.7 2.4 14.4 1.8v119.6l-13.8 1.8-13.7 2.4-14.4-12-11.4 8.4c-14.3 10.2-19.1 10.2-43.6-0.6zm64-50.8v-18l-24-23.9h-8.3c-4.8 0-13.2 4.2-18 9.6l-9.6 8.9v28.8l9.6 8.9c4.8 5.4 13.2 9.6 18 9.6h8.3z"/>
			<path id="p10o3MaxtP" class="s0" d="m2422.1 2037l-19.2-7.8-8.9-18.5-9.6-17.9v-17.4-17.3l13.8-19.8 13.1-20.3 20.4-5.4 20.9-5.4 13.8 6.6 13.7 6.6v14.9 15l-14.3-3.6-14.4-3.6-12.6 7.2-12.5 6.6v19.7 20.3l9 7.2 8.9 7.2 18-3.6 17.9-3v14.4 14.9l-15.5 6c-18.6 7.2-19.2 7.2-42.5-3z"/>
			<path id="pWnXMQ0an" fill-rule="evenodd" class="s0" d="m3073 2029.2l-9-18.5-9.5-17.9v-34.7l27.5-40.7 22.7-6 22.8-5.4 22.1 11.4 21.5 11.9 7.2 22.8 7.8 23.3-3.6 5.4-3 5.4h-83.1v18.5l13.7 4.8 13.2 5.4 13.7-9 14.4-9 28.7 7.2v4.8c0 3-6.6 10.8-14.3 18.6l-13.8 13.1-20.3 2.4-20.4 3zm71.2-84.4l-12-3.5-11.3-3.6-25.2 13.1 3.6 6 3.6 5.4h41.3z"/>
			<path id="pqTpXsdNR" fill-rule="evenodd" class="s0" d="m3320.7 2041.8c-17.3-4.2-33.5-19.7-42.5-41.3l-7.7-18.5 5.3-21 6-20.3 15.6-15 15.5-14.3h51.5l11.9 10.8c6.6 5.9 15.6 19.1 19.2 28.7l7.2 17.3-3.6 9-3 9h-84.4v6c0 2.9 6.6 10.1 15 15.5l14.9 9.6 15-9.6c16.8-10.8 20.9-11.4 32.3-4.2l7.8 4.8-6.6 12.6-6.6 11.9-18.5 6.6c-19.8 6.6-24.5 7.2-44.3 2.4zm40.7-88.5c-0.6-3-5.4-8.4-10.2-12l-9.6-6-10.1 6.6c-5.4 3.6-11.4 9.6-12.6 13.8l-2.4 7.1 22.8-1.8 23.3-1.8z"/>
			<path id="pkkx4UKVx" fill-rule="evenodd" class="s0" d="m3552.8 2039.4l-19.1-5.4-12-17.3-12.5-17.4v-44.2l11.9-16.8 12-17.3 21.5-6.6 22.2-7.2 45.4 13.2 12 16.1 12.6 15.6v50.2l-12 15.6-12.6 15.5-22.1 6.6c-12 3-23.3 6-25.1 5.4-1.8 0-11.4-3-22.2-6zm46.1-41.3l12-11.9v-18l-12-11.9c-13.8-13.8-23.3-15-38.3-4.2l-10.7 8.3v33.5l10.7 8.4c15 10.8 24.5 9.6 38.3-4.2z"/>
			<path id="p1CVuoPTj0" class="s0" d="m3941.7 2041.8l-12.5-2.4-15-14.9-15-14.4-3.5-17.9-3.6-18.6 9.5-23.3 9.6-22.8 20.4-10.1 20.9-9.6 17.3 3.6 18 4.2v17.3 17.4l-15-3.6-15.5-3.6-11.4 10.2-12 10.7v13.2 13.2l12 10.7 11.4 10.2 15.5-3.6 15-3.6v15 14.9l-15.6 6c-8.3 3.6-15.5 5.4-16.1 5.4-0.6-0.6-7.2-2.4-14.4-3.6z"/>
			<path id="pKO1oJcUt" fill-rule="evenodd" class="s0" d="m4055.4 2041.8l-13.2-2.4-15.5-17.9-15-18.6v-41.9l9.6-20.3 9.6-19.7 19.1-6.6 19.8-6.6 28.7 10.8 25.7-3 25.1-2.4v127.4l-28.1-1.2c-16.1-1.2-34.1 0-40.7 1.8-6.6 1.8-17.9 1.8-25.1 0.6zm41.3-38.9c10.2-7.8 12.5-16.7 11.3-36.5l-0.6-10.1-14.9-7.2-14.4-6.6-15.5 10.2-15 9.5v29.4l13.2 8.9c16.1 11.4 23.3 12 35.9 2.4z"/>
			<path id="puuxHfKhg" class="s0" d="m1642.5 1947.3v-92.8h48.5 47.9l-1.8 16.8-1.8 16.2-28.8 1.8-28.7 1.7 1.8 16.2 1.8 16.2 25.7 1.7 25.2 1.8v17.4 17.3l-25.2 1.8-25.7 1.8-1.8 37.7-1.8 37.1h-17.3-18z"/>
			<path id="pXXluShlg" class="s0" d="m1777.1 2025.1l-14.9-14.4v-48.5-47.8h17.9 18v32.3 32.9l6 14.9 5.9 15.6h10.8 10.8l7.2-7.2 7.1-7.2v-41.2-40.7l19.8 1.8 19.1 1.8 1.8 42.4 1.8 42.5-15.5 19.2-16.2 18.5h-32.3-32.9z"/>
			<path id="ppi0PKIO5" class="s0" d="m1917.7 1977.2v-62.8h31.7c16.8 0 38.9-0.6 47.9-1.2l16.8-0.6 10.1 10.2 10.2 10.1 1.8 53.3 2.4 53.8h-18.6-18.5v-31.1c0-17.3-1.8-37.7-3.6-44.9l-3.6-13.1-9-3-8.3-3.6-12 6-11.4 6.6v41.2 41.9h-17.9-18z"/>
			<path id="pVEUux60R" class="s0" d="m2510 1977.2v-62.8h18 17.9v62.8 62.8h-17.9-18z"/>
			<path id="pxWxmBuv3" fill-rule="evenodd" class="s0" d="m2582.4 2011.3l-4.2-15.6-3.5-15.5 3.5-20.4 3.6-19.7 11.4-10.2c6-5.4 19.7-12.5 31.1-15.5l19.8-6 22.7 6.6 23.3 6 11.4 19.1 12 19.1v16.2c0 9-3 23.3-7.2 31.7l-7.2 15.6-16.2 8.9-16.7 8.4h-55.1zm95.2-25.1v-18l-24-23.9h-19.7l-11.4 10.2-10.7 9.6v23.9l10.1 11.4 9.6 10.7h22.1z"/>
			<path id="pKFTeJxzj" class="s0" d="m2740.4 2032.2c-1.8-4.1-3-32.3-1.8-61.6l1.8-53.2h29.9c16.7-0.6 32.9-2.4 36.5-4.8l7.2-4.2 18.5 6.6 18.6 6.6 6.5 21.5 6 22.1-1.8 35.9-1.8 35.9h-17.9-18l-3-41.3-2.9-41.2-10.2-6-9.6-6.6-9.6 7.8-8.9 7.8-1.8 39.4-1.8 40.1-16.8 1.8-16.1 1.8z"/>
			<path id="p73U8OqoM" class="s0" d="m2980.9 2035.8l-4.2-3.6v-73-72.3l-16.2 0.6h-16.7l-1.8-16.2-1.8-16.8h60.4 60.5l-1.8 16.8-1.8 16.2-19.2 1.8-19.7 1.7v74.8 74.2h-16.8c-9.5 0-19.1-1.8-20.9-4.2z"/>
			<path id="pb7Wajt4x" class="s0" d="m3210 1938.3v-102.3l9.6-3.6 10.2-3.6 9.5 6 9.6 6 1.2 86.1c1.2 47.3 0 92.2-1.2 100l-3 13.1h-17.9-18z"/>
			<path id="p9WBKOBTR" class="s0" d="m3431.4 1995.1v-45.4l-9-3-9-3.6v-10.8-10.7l9-7.2 9-7.2v-23.9-23.4l14.9-14.9 15-15 16.8 1.8 16.1 1.8 1.8 16.8 1.8 16.1h-11.4-11.9l-3.6 9.6c-1.8 5.4-3.6 16.1-3.6 23.9v14.4h14.9 15v14.3 15l-13.2 1.8-13.7 1.8-1.8 46.6-1.8 46.1h-17.4-17.9z"/>
			<path id="pPlBiiscV" class="s0" d="m3673.7 2032.2c-1.8-4.1-3-32.3-1.8-61.6l1.8-53.2 19.7-1.8 19.2-1.8v7.2 7.7l7.2-7.1 7.1-7.2h22.2 22.7l12.6 16.1 12.5 16.2-1.8 44.9-1.7 45.4h-18-17.9l-3-44.8-3-44.9-12.6-1.8-12.6-1.8-6.5 7.8-6.6 8.3-1.8 38.3-1.8 38.9-16.8 1.8-16.1 1.8z"/>
			<path id="puEA41K8O" class="s0" d="m3828.6 2032.2c-1.7-4.7-2.3-32.3-1.1-61.6l1.7-53.2 19.8-1.8 19.1-1.8v62.8 63.4h-17.9-18.6z"/>
			<path id="pnM1NzVLS" class="s0" d="m2632.7 1884.5l-3.6-6 6-10.8c3-6 9.6-14.3 14.3-17.9l8.4-7.2 10.2 3.6 9.6 3.6v7.7 8.4l-17.4 12c-19.7 14.3-22.1 14.9-27.5 6.6z"/>
			<path id="p1EcKVTSnv" class="s0" d="m3566 1884.5l-3.6-6 12.6-18 12.5-17.9h7.8c3.6 0 10.2 3 14.4 7.2l7.2 7.1-16.2 16.8-16.1 16.7h-7.2c-4.2 0-9.6-2.9-11.4-5.9z"/>
			<path id="pyIrXerPB" class="s0" d="m2513.6 1874.9c-5.4-4.8-9.5-11.4-9.5-14.4 0-6.5 17.3-23.9 23.9-23.9 6.6 0 23.9 17.4 23.9 23.3 0 5.4-19.7 24.6-25.7 24.6-1.8 0-7.8-4.2-12.6-9.6z"/>
			<path id="pqXYWya0M" class="s0" d="m3832.2 1875.5l-7.1-8.4 2.4-10.2 1.7-10.1 10.2-6 9.6-6.6 9.6 7.8 9.5 7.8v10.1c0 21.6-22.7 31.7-35.9 15.6z"/>
			<path id="pFu6FUskF" class="s0" d="m1472 1822.8c-1.8-4.1-2.4-80.1-1.8-168.7l1.8-161.5 10.8-1.8 10.2-1.8v170.5 171.1h-9-9.6z"/>
			<path id="pY7PPAzGa" class="s0" d="m2139.1 1736.1l-20.9-10.2-10.2-20.9-10.8-21v-26.9-26.9l13.8-23.9 13.1-24 21-10.1 20.9-10.8h25.2c13.7 0 28.7 1.8 34.1 3.6l9.5 3.6v23.3 23.3l-14.9-9.5-15-9.6-20.9 3.6-20.4 4.2-12.5 15.5-12 15.6v22.7 23.3l12.6 12.6 12.5 12.6 29.3-2.4 29.4-3v17.3 16.8l-15.6 6c-8.4 3.6-22.1 6-31.1 6h-16.2z"/>
			<path id="p1F1pIShYX" fill-rule="evenodd" class="s0" d="m2534 1736.1l-21-10.2-13.7-28.1-14.4-28.1 4.2-23.4 3.6-23.3 12-18.5 11.3-19.2 19.2-11.9 19.7-12h57.4l18 9 17.9 9.5 11.4 19.2 12 19.1v58.1l-26.4 46.6-49 24h-41.3zm96.3-59.9l0.6-25.7v-25.7l-15.5-13.8-16.2-13.7h-11.3c-6.6 0-18.6 2.9-27 7.1l-15.5 7.2-9 16.2-8.4 16.7v28.7l12.6 16.2 12 15.5h51.4z"/>
			<path id="poEBZGCg8" fill-rule="evenodd" class="s0" d="m1620.4 1715.7c1.8-14.3 6.6-53.2 10.8-86.7l7.1-61.6h81.4l9 9.5 9.6 9v38.9l-8.4 12-9 11.3 25.1 26.4-7.1 45.4-13.2 10.8-12.6 10.2h-96.3zm78.4-14.4c11.9-11.3 11.9-16.7 1.2-26.3l-9-7.2-13.8 2.4-13.7 1.8-1.8 19.7-1.8 19.2h29.9zm0.6-101.1l-25.1-3.6-3.6 16.7c-1.8 9-1.8 18.6-0.6 21l3 4.2 26.3-9.6z"/>
			<path id="p4zoDiQAK" fill-rule="evenodd" class="s0" d="m1750.2 1737.9c0-1.8 19.2-40.7 41.9-86.8l41.9-83.7h39.5l20.3 79.5c10.8 43.1 20.9 82.6 22.7 86.8l2.4 7.2h-37.1l-7.1-15-6.6-14.9h-64l-7.2 14.9-6.6 15h-20.3c-10.8 0-19.8-1.2-19.8-3zm107.1-76c-0.6-7.8-2.4-20.3-4.8-28.7l-4.2-15-13.1 25.2c-7.2 13.7-13.2 26.9-13.2 28.7 0 1.8 8.4 3 18 3h17.9z"/>
			<path id="ptHLBJPAY" fill-rule="evenodd" class="s0" d="m1941.7 1724.7c0-9.5 4.2-44.8 8.9-79.5 4.8-34.7 9-66.5 9-70v-7.8h83.8l23.9 23.9v52.7l-17.3 14.9-17.4 14.4 17.4 29.3c9.5 16.1 17.3 31.1 17.3 34.1v4.2h-41.3l-16.1-29.9c-9-16.2-18.6-30-21.6-30h-4.8v16.8c0 9-1.7 22.1-3.5 29.9l-3.6 13.2h-34.7zm80.1-89.2c16.2-16.1 7.2-38.3-14.9-38.3h-10.2l-3.6 13.8c-1.8 7.2-3.6 18-3.6 23.9v10.2h23.4z"/>
			<path id="pj9N3xTKE" class="s0" d="m2249.2 1730.7c1.2-6 6-44.9 10.2-86.7l7.1-76.6h47.3 47.3l-1.8 13.7-1.8 13.2-26.9 3-27 3-1.8 16.7-1.8 16.2h24 24.5v17.9 18h-26.9-26.9v8.4c0 4.7-1.8 12.5-3.6 17.9l-3.6 9.6h20.9c12 0 25.1 1.2 29.9 3.6l8.4 3-3 14.9-2.4 14.4h-47.8-47.3z"/>
			<path id="pmeC3bDlb" class="s0" d="m2374.8 1730.7c1.2-6 6-44.9 10.2-86.7l7.2-76.6h20.9 21l-4.2 28.7c-1.8 15.5-5.4 46.1-7.8 68.2l-3.6 40.1 23.3 1.8 23.4 1.8 1.8 16.7 1.8 16.2h-48.5-48.5z"/>
			<path id="pFZ9rwZDN" class="s0" d="m2698.5 1718.7c2.4-12.5 6.6-50.8 10.8-85.5l7.1-62.8 18.6-1.8 18.5-1.8 35.3 53.8c19.2 29.9 37.1 54.5 38.9 54.5h4.2l4.8-52.1 5.4-52.6 19.7-1.8 19.8-1.8-4.2 37.7c-2.4 20.9-7.2 59.2-10.8 85.5l-6.6 47.9h-17.9-18l-37.1-55.7-37.1-55.6-3.5 13.8c-1.8 7.7-5.4 32.9-7.8 55.6l-4.2 41.9-19.8 1.8-19.1 1.8z"/>
			<path id="p157V60sTK" fill-rule="evenodd" class="s0" d="m2886.4 1736.7c0-3 18.5-41.9 40.6-87.4l40.7-81.9 20.4 1.2 20.3 1.8 19.7 74.8c10.8 41.2 19.8 79.5 19.8 85.5l0.6 10.8-19.2-1.8-19.7-1.8-1.8-13.2-1.8-13.7h-69.4l-6.6 14.9-7.1 15h-35.9zm105.3-83.8c-1.8-12.5-6-25.1-8.4-27.5l-4.8-4.8-10.2 24.5c-12.5 31.2-12.5 30 9 30h18.5z"/>
		</g>
		<path id="2" class="s0" d="m1580 1187v-222l225-225 225-225v-212c0-117-3-213-8-213-4 0-102 94-217 210-115 116-213 210-217 210-5 0-8-97-8-215v-215h445 445v223 222l-220 220-220 220v220 220l220-220 220-220v223 222h-445-445z"/>
		<path id="4" class="s0" d="m948 1548l-3-223-440-2-440-2-3-178-2-178 443-443 442-442 217 2 217 3-436 437-435 438h441 441v405 405h-220-220z"/>
	</g>
</svg>
