<svg version="1.2" xmlns="http://www.w3.org/2000/svg" viewBox="0 0 4173 2278">
	<title>42_logos</title>
	<style>
		.s1 { fill: {{ color ]}; stroke: {{ color }}; stroke-width: 10 } 
	</style>
	<g id="Layer">
		<g id="Ben guerir">
			<path id="pzXaXxJs5 copy 6" class="s1" d="m1780 1696.8v-216.8h15.8 15.8v216.8 216.8h-15.8-15.8z"/>
			<path id="Ben guerir" class="s1
			" aria-label="BEN GUÉRIR"  d="m2073.1 1812c46.1 0 86.4-15.9 91.6-60.7 3.3-27.2-10.4-50.7-37.3-59.2v-0.3c16.5-7.4 28.1-23.8 30.3-43.4 5.1-44.5-26.9-66.5-78.2-66.5h-47.9l-28.1 230.1zm-1.2-192.6h10.7c22 0 33.9 11.3 31.1 30.3-2.4 18.9-14.6 28.6-36.3 28.6h-13.1zm-11.9 92.5h18.9c32.7 0 44.3 14 42.1 33.3-2.1 18-17.4 29-46.4 29h-21.6zm276.5 100l4.8-39.6h-88.5l8-64.7h84.5l4.9-39.1h-84.5l5.5-47h88.1l4.6-39.6h-133.3l-28.1 230zm227-75.6l-115-154.4h-31.1l-28.1 230h45.1l18.4-154.7 114.4 154.7h31.1l28.1-230h-45.2zm314-10.1h52.5c-4.9 29.3-29 49.4-65 49.4-38.7 0-70.5-29.9-67.4-77.5 2.7-44.5 37.2-78.7 80.9-78.7 24.4 0 43.9 10.4 58.9 30.2l38.7-24.4c-22.3-31.1-56.1-47.6-96.1-47.6-67.5 0-124.5 50-128.8 119.6-4.3 69.6 44.6 119 111.7 119 68.4 0 113.8-44.2 119.3-115.6l0.9-12.6h-103.1zm227.9 90.1c52.5 0 90.7-28.7 98-89.1l17.7-145.3h-46.1l-17.1 139.5c-4.5 38.4-22.6 52.8-49.4 52.8-25 0-43.3-14.1-38.5-53.1l17.1-139.2h-46.4l-16.7 138.2c-8 66.3 28.3 96.2 81.4 96.2zm292.4-295.1l-34.5-23.5-47.3 52.5 22 14.9zm-15.3 290.8l4.9-39.6h-88.5l7.9-64.4h84.6l4.8-39.4h-84.5l5.5-47h88.2l4.6-39.7h-133.4l-28 230.1zm217.2-155.6c6.1-50.3-30.2-74.5-85.7-74.5h-50.7l-28.1 230.1h45.5l11-89.4 9.5-0.3 47.9 89.7h50.9l-56.1-94.3c33.2-10.6 52.5-31.1 55.8-61.3zm-84.2-34.8c27.8 0 41.5 10.1 39.1 33-2.5 21.6-20.5 32-48.6 32h-9.7l7.6-65zm164.2 190.4l28.1-230.1h-45.5l-28.1 230.1zm223.1-155.6c6.1-50.3-30.2-74.5-85.8-74.5h-50.6l-28.1 230.1h45.5l11-89.4 9.4-0.3 47.9 89.7h51l-56.2-94.3c33.3-10.6 52.5-31.1 55.9-61.3zm-84.2-34.8c27.7 0 41.5 10.1 39 33-2.4 21.6-20.4 32-48.5 32h-9.8l7.7-65z"/>
		</g>
		<g id="1337">
			<path id="p18bqgdfmg" class="s1" d="m398.1 1357.5l2.2-55.6 74.8-3.6c41.3-2.1 74.1-5.7 73.4-8.5-1.4-3.6-2.1-172.5-2.1-376.4v-370.6h-92.7-91.9l-2.2 77-2.1 76.2h-53.5-53.4l-2.2-126.8-1.4-126.2h213.8 213.9v427.7 427.6h71.3 71.2v57.1 57h-210.2-211z"/>
			<path id="p18jxwfG8H" class="s1" d="m1305.5 1396c-2.9-9.3-3.6-34.2-2.1-55.6l2.1-38.5 228.1-3.6 228.1-3.5 2.1-165.4 1.4-166.1h-213.8-213.8v-53.4-53.5l212.4-1.4 211.7-2.1v-153.3-153.2l-226-2.2-225.9-1.4-4.3-23.5c-2.1-12.1-3.6-35-2.1-49.2l2.1-27.1h290.8 290.1l-1.4 483.3-2.1 482.5-286.6 2.2-287.2 1.4z"/>
			<path id="p13GZCq31T" class="s1" d="m2321.2 1355.4v-57.1h228.1 228.1v-167.5-167.5h-210.3-210.2v-54.8-55.6l210.2 2.1 210.3 2.1v-157.5-156.8h-228.1-228.1v-49.9-49.9h288.7 288.7v484.7 484.7h-288.7-288.7z"/>
			<path id="pCjel44bB" class="s1" d="m3803.8 1407.4c0-3.6-0.7-198.2-2.1-433.4l-1.4-427.6h-191.1-191.7l0.7 116.1 1.4 115.5-29.2 0.7c-15.7 0-39.2 0.7-51.3 1.4l-23.5 0.8-2.2-169-1.4-168.9h306.5 306.5v484.7 484.7h-60.6c-33.5 0-60.6-2.1-60.6-5z"/>
		</g>
	</g>
</svg>
