<svg version="1.2" xmlns="http://www.w3.org/2000/svg" viewBox="0 0 4173 2278">
	<title>42_logos</title>
	<style>
		.s0 { fill: {{ color }} } 
	</style>
	<g id="Layer">
		<g id="Berlin">
			<path id="pzXaXxJs5 copy 4" class="s0" d="m1596 1755.8v-280.8h20.5 20.5v280.8 280.8h-20.5-20.5z"/>
			<path id="Berlin" class="s0" aria-label="BERLIN"  d="m1975.7 1905c59.6 0 111.8-20.6 118.5-78.7 4.4-35.1-13.4-65.6-48.2-76.6v-0.4c21.3-9.5 36.4-30.9 39.1-56.1 6.8-57.8-34.7-86.2-101.1-86.2h-62.1l-36.4 298zm-1.5-249.4h13.8c28.4 0 43.9 14.6 40.3 39.1-3.2 24.5-19 37.2-47 37.2h-17zm-15.4 119.7h24.5c42.3 0 57.3 18.2 54.5 43.1-2.8 23.3-22.5 37.6-60.1 37.6h-28zm358.1 129.6l6.3-51.4h-114.6l10.2-83.8h109.5l6.3-50.6h-109.4l7.1-60.8h114.2l5.9-51.4h-172.7l-36.4 298zm281.5-201.6c7.9-65.2-39.2-96.4-111.1-96.4h-65.6l-36.4 298h58.9l14.2-115.8 12.3-0.4 62 116.2h66.1l-72.8-122.1c43.1-13.9 68-40.3 72.4-79.5zm-109.1-45c35.9 0 53.7 13 50.6 42.7-3.2 28-26.5 41.5-62.9 41.5h-12.6l9.9-84.2zm301.1 246.6l6.7-54.9h-88.5l29.7-243.1h-58.9l-36.4 298zm103.6 0l36.3-298h-58.9l-36.3 298zm301.5-98l-149-200h-40.3l-36.4 298h58.5l23.8-200.4 148.2 200.4h40.3l36.4-298h-58.5z"/>
		</g>
		<g id="42">
			<path id="2" class="s0" d="m1580 1187v-222l225-225 225-225v-212c0-117-3-213-8-213-4 0-102 94-217 210-115 116-213 210-217 210-5 0-8-97-8-215v-215h445 445v223 222l-220 220-220 220v220 220l220-220 220-220v223 222h-445-445z"/>
			<path id="4" class="s0" d="m948 1548l-3-223-440-2-440-2-3-178-2-178 443-443 442-442 217 2 217 3-436 437-435 438h441 441v405 405h-220-220z"/>
		</g>
	</g>
</svg>
