<svg version="1.2" xmlns="http://www.w3.org/2000/svg" viewBox="0 0 4173 2278">
	<title>42_logos</title>
	<style>
		.s0 { fill: {{ color }} } 
		.s1 { fill: #c71e8a } 
		.s2 { fill: #ff8b00 } 
		.s3 { fill: #00a3df } 
		.s4 { fill: #f9001e } 
	</style>
	<g id="Layer">
		<g id="Codam">
			<g id="l6dOJczULzVP2hX4BQGjPXV">
				<g id="Layer">
					<path id="Layer copy" class="s0" d="m1985.3 1888.8l-22.5 22.8-0.1 9.2-0.1 9.2h22.7 22.8v11.4 11.3h11.3 11.4v-20.6-20.6h-22.6-22.6l22.4-22.4c12.3-12.3 22.3-22.5 22.3-22.8 0-0.2-5-0.3-11.2-0.3l-11.3 0.1z"/>
					<path id="Layer copy 2" class="s0" d="m2040.5 1877.5v11.5l11.4-11.4 11.4-11.4v11.4 11.4l-11.4 11.3-11.4 11.4v11.2 11.3h11.4 11.4v-11.3-11.2l11.3-11.4 11.4-11.3v-11.5-11.5h-22.7-22.8z"/>
					<path id="Layer copy 3" class="s0" d="m2074.6 1923.1l-11.1 11.1h11.3 11.2v-11.1c0-6.2 0-11.2-0.1-11.2-0.1 0-5.1 5-11.3 11.2z"/>
					<path id="AMSTERDAM" class="s0" aria-label="AMSTERDAM"  d="m1460.8 1933l-15.3-50.5h-7.1l-28.3 50.5h11.1l5.8-10.9h20.2l2.9 10.9zm-25.4-26.5c1.7-3.4 3.4-6.7 5.1-10.1 0.8 3.4 1.7 6.7 2.6 10.1l1.9 7.3h-13.5zm39.4 26.5l8.6-29.9 8.5 29.9h4.2l16.3-29.8 0.6 29.8h10l-2.5-50.5h-6.3l-18.2 33.2-9.4-33.2h-6.4l-15.7 50.5zm73.5 0.9c9.4 0 16.4-5.6 17.4-14.3 0.8-8.4-3.2-13.4-11.5-16.9-6.5-2.8-8.2-4.9-8-7.9 0.3-2.6 2.6-4.5 6.3-4.5 3.7 0 6.7 1.6 8.8 4.3l6.7-5.9c-3.3-4.4-8.6-7.2-15.7-7.2-9.1 0-15.6 5.2-16.3 13-0.8 7.9 3.8 12.2 11.9 15.7 6.5 2.9 8 5.2 7.5 9.1-0.3 3.5-2.9 5.9-7.1 5.9-4.3 0-8-2-10.5-6.9l-6.9 5.2c2.5 5.9 8 10.4 17.4 10.4zm40.7-0.9l5-41.1h11.3l1.1-9.4h-32.6l-1.2 9.4h11.3l-5 41.1zm47.8 0l1.1-8.7h-19.4l1.7-14.2h18.6l1-8.6h-18.5l1.2-10.3h19.3l1-8.7h-29.2l-6.2 50.5zm47.7-34.2c1.3-11-6.6-16.3-18.8-16.3h-11.1l-6.2 50.5h10l2.4-19.6 2.1-0.1 10.5 19.7h11.2l-12.4-20.7c7.3-2.3 11.6-6.8 12.3-13.5zm-18.5-7.6c6.1 0 9.1 2.2 8.6 7.2-0.6 4.8-4.5 7.1-10.7 7.1h-2.1l1.7-14.3zm40.1 41.8c16.6 0 28.3-8.8 30.1-23.4 2.3-17.7-8.8-27.1-25.9-27.1h-12.1l-6.2 50.5zm1-41.3h2.7c12.5 0 17.7 6.1 16.4 16.6-1.2 10.1-8.5 15.7-20 15.7h-3zm79.6 41.2l-15.3-50.5h-7.1l-28.3 50.5h11.1l5.8-10.9h20.2l2.9 10.9zm-25.4-26.5c1.7-3.4 3.4-6.7 5.1-10.1 0.8 3.4 1.7 6.7 2.6 10.1l1.9 7.3h-13.5zm39.4 26.5l8.6-29.8 8.5 29.8h4.2l16.3-29.8 0.6 29.8h10l-2.5-50.5h-6.3l-18.2 33.2-9.4-33.2h-6.4l-15.7 50.5z"/>
					<path id="NETWORK" class="s0" aria-label="NETWORK"  d="m2179.7 1916.4l-25.3-33.9h-6.8l-6.2 50.5h9.9l4.1-34 25.1 34h6.8l6.2-50.5h-9.9zm49.9 16.6l1.1-8.7h-19.5l1.8-14.2h18.5l1.1-8.6h-18.6l1.2-10.3h19.4l1-8.7h-29.3l-6.1 50.5zm27.3 0l5-41.1h11.3l1.1-9.4h-32.6l-1.1 9.4h11.2l-5 41.1zm38 0l14.7-31.4 6.8 31.4h5.5l26.6-50.5h-10.9l-16.3 32.9-7.2-32.9h-4.5l-15.5 32.9-7.6-32.9h-10.6l13.5 50.5zm79.2 0.9c15.2 0 27.2-11.2 28.1-26 1-15.3-10.3-26.4-25.3-26.4-15.2 0-27.3 11.5-28.2 26-0.9 15.9 10.8 26.4 25.4 26.4zm0-9.3c-8.5 0-15.8-6.6-15.2-16.9 0.6-9.3 8-16.8 17.9-16.8 9.1 0 15.8 7.1 15.2 16.8-0.6 9.6-7.7 16.9-17.9 16.9zm71.5-25.8c1.4-11-6.6-16.3-18.8-16.3h-11.1l-6.2 50.5h10l2.4-19.6 2.1-0.1 10.5 19.7h11.2l-12.3-20.7c7.3-2.4 11.5-6.8 12.2-13.5zm-18.5-7.6c6.1 0 9.2 2.2 8.6 7.2-0.5 4.8-4.5 7.1-10.6 7.1h-2.2l1.7-14.3zm60.2-8.7l-20.5 20.5 2.6-20.5h-10.1l-6.1 50.5h10l2.6-22.1 1.6-0.6 14.8 22.7h11.7l-18.4-27.2 24.1-23.3z"/>
					<path id="p14k4VYkPl" fill-rule="evenodd" class="s0" d="m736.1 1751.2c-1.3-1.3-2.6-83.3-2.6-182.2 0-156.1-0.9-179.1-6.6-179.1-5.6 0-6.5-9.1-6.5-54.2 0-45.2 1.3-54.3 6.5-54.3 5.3 0 6.6-12.5 7.4-78.9l1.3-79.4 112.8-1.3c182.2-1.7 244.2 7.4 310.1 45.6 33.8 19.9 80.7 65.5 95.4 93.7 8.3 15.1 13.5 20.3 20.9 20.3 12.1 0 19 14.4 28.6 61.6 8.7 41.2 8.7 46.9 0.4 46.9-5.2 0-6.5 8.2-6.5 47.7 0 64.6-8.7 105.8-33.4 156.1-39.5 80.7-110.2 132.3-209.5 152.3-25.6 5.2-313.6 9.9-318.3 5.2zm322.2-116.3c72-22.5 115.8-86.7 118-173.5 1.3-60.2 0-71.5-8.7-71.5-6 0-9.1-4.4-11.3-16.1-3.4-19.5-19.5-52-34.2-69.8-13-14.8-14.3-22.6-4.4-22.6 10.5 0 0.5-10.8-21.6-23.8-33.9-19.5-66.8-25.2-156.6-25.2h-82.4l-1.3 24.7c-0.9 19.6 0 24.3 5.6 24.3 5.6 0 6.5 8.3 6.5 54.3 0 45.1-0.9 54.2-6.5 54.2-5.6 0-6.5 17.3-6.5 128.4v128.3l90.2-2.1c67.7-1.3 95.4-3.9 113.2-9.6z"/>
					<path id="p4PphiEQv" class="s0" d="m1418.8 1699.1v-53.3h145.3c79.8 0 145.3-1.3 145.3-2.6 0-1.3-65.5-79.4-145.3-174l-145.3-171.3v-91.5-91.5l16.4 19.1c248.6 289.7 521 612.8 519.2 615.9-1.3 2.1-115.8 3.9-268.9 3.4l-266.7-0.4z"/>
					<path id="p7uP6q9n0" class="s0" d="m2357.8 1748.6c-1.3-3.1-2.6-74.2-3-157.9l-1.3-153.1-95.5 114.9c-52.4 62.9-97.1 114.1-99.7 113.2-3.5-0.8-261.6-300.5-302.8-351.7l-13.8-16.9-0.5-90.3c0-49.4 1.3-88.9 3.1-87.6 2.1 1.3 71.5 81.6 153.9 178.7 82.9 97.2 152.7 179.2 155.7 182.2 4 4.3 36.9-31.7 156.6-171.3 83.3-97.2 154.9-180.5 158.8-185.7 7.3-8.2 7.3 8.3 6.5 310.1l-0.9 318.8-57.7 0.9c-41.6 0.4-58.1-0.4-59.4-4.3z"/>
					<path id="pBr6MGc6A" class="s0" d="m965.5 1016.4c-47.7-6.9-110.6-32.9-110.6-45.5 0-3.5 2.2-5.2 4.3-3.9 2.6 1.3 4.4 0.8 4.4-0.9 0-2.2-5.7-6.9-12.6-11.3-59-34.7-111.9-104.1-136.6-179.5-5.7-16.5-10-23-15.2-23-9.1 0-13.5-24.7-13.5-76.8 0-28.2 0.9-31.7 8.3-31.7 6.1 0 8.7-4.3 10.8-20.3 4.4-30.8 21.3-75.9 41.7-109.8 62-104.9 180.4-167 301.8-159.2 65.1 4.4 140.6 34.3 185.7 73.3l17.3 15.2-38.1 44.3-38.2 44.2-19.1-15.6c-46.8-38.6-105.4-55.5-158.7-46.4-73.3 12.6-139.3 69.4-164 141.8-10.4 29.9-10.4 32.5-2.6 32.5 4.8 0 6.1 6.5 5.6 29.5-0.4 16.1 2.2 39.5 5.7 52.1 5.2 19.9 5.2 23.4 0 26.9-10.4 6.5 17.3 55.1 47.3 83.7 75.9 72.4 187.3 77.2 261.9 11.7 10.9-9.5 21.3-17.3 23.5-16.9 1.7 0 19.9 19.9 39.9 43.8l36.8 43.8-17.3 14.3c-9.1 7.8-23.4 17.8-30.8 22.1-13.9 7.4-18.7 14.3-10 14.3 2.6 0 4.4 2.6 4.4 6.1 0 6.1-24.8 17.8-62.9 30.4-45.6 14.3-113.2 19.1-169.2 10.8z"/>
					<path id="pLuCXPoJG" fill-rule="evenodd" class="s0" d="m1583.6 1016.9c-43.8-6.1-112.8-32.1-112.8-42.1 0-3.1 2.2-5.7 4.3-5.7 9.2 0 3.9-6.9-12.5-16-25.2-14.3-63.8-51.2-85.5-82-119.3-167-62.4-393.4 121.5-483.2 108-52.9 225.1-45.1 325.7 22.2 71.1 47.7 127.1 133.1 138.8 213.4 2.6 16 4.8 20.3 11.3 20.3 7.4 0 8.2 3.5 8.2 31.7 0 52.1-4.3 76.8-13.4 76.8-5.2 0-9.6 6.5-14.8 23-11.7 35.1-39 85-61.6 112.3-18.6 22.1-53.3 52.9-83.7 73.7-8.7 5.7-9.1 7.4-3.4 7.4 25.5 0.9-23 28.6-72.5 41.2-32.9 8.3-112.3 12.2-149.6 7zm91.5-125.8c40.3-7.8 75.9-27.8 107.6-59.9 32.1-32.5 54.2-72.4 43.8-78.9-4.8-3.1-4.8-8.7 1.3-36.5 4.3-19.9 6-40.3 4.3-52.4-2.2-16.5-1.3-19.6 4.8-19.6 8.7 0 8.7-2.1-1.8-32.5-32.5-94.5-132.2-157.9-224.2-142.3-118.4 20.4-198.6 146.2-168.3 263.8 20.8 78.9 86.8 143.1 162.7 157.8 27.3 5.2 42.9 5.7 69.8 0.5z"/>
				</g>
			</g>
			<g id="l3ChEMrRBsNNV3LUZZvDgw7">
				<g id="Layer">
					<path id="p1HfxuAiuX" class="s1" d="m382.1 1335.7v-54.3h175.7 175.7v54.3 54.2h-175.7-175.7z"/>
					<path id="p192IAE4bU" class="s1" d="m854.9 1335.7v-54.3h136.2 136.6l10.4 14.4c14.8 19 27.4 45.5 31.3 63.7 1.3 8.3 3.9 18.7 4.7 23 2.2 6.9-7.3 7.4-158.3 7.4h-160.9z"/>
					<path id="p26mYtxDv" class="s1" d="m1295.1 1378.2c-8.6-40.8-16.4-69-21.6-79.8-3.5-6.6-6.5-13.1-6.5-14.8 0-1.3 15.6-2.2 34.6-2.2h34.7v54.3 54.2h-19.5c-17.8 0-19.5-0.9-21.7-11.7z"/>
					<path id="pKUXOj2gv" class="s1" d="m1635.6 1043.3v-34.7l25.2-2.2c39-4.3 83.7-15.1 108.9-26.4l22.9-10.9 546.1-1.3 546.1-0.8v55.5 55.1h-624.6-624.6z"/>
					<path id="p5iXtnnTP" class="s1" d="m2607.2 698.1v-54.3h606.4c333.5 0 607.6 0.9 608.5 1.8 0.9 0.8 1.3 25.6 0.4 54.2l-1.3 52.5h-607.2-606.8z"/>
					<path id="pcUIhnls6" class="s1" d="m0.4 437.8c-0.4-1.3-0.4-24.7-0.4-52 0-27.4 0-51.6 0.4-54.2 0-6.1 740.4-6.1 742.6 0 0.9 2.1 0.9 27.7 0 56.3l-1.3 52.1h-370.9c-203.8 0-370.4-0.9-370.4-2.2z"/>
				</g>
			</g>
			<g id="l5FXnHEJ0zebrOYxZFnmEHp">
				<g id="Layer">
					<path id="pQtyKE0xo" class="s2" d="m378.7 1022.5l1.3-55.5 244.1-0.9 244.2-0.9 26.9 12.6c43.4 20.4 77.7 27.8 131 27.8 52.1 0 85-7 129.7-26.5l26.5-11.7 150-1.3c123.2-0.9 151.9 0 161.8 5.2 35.6 18.7 109.3 36.9 148.8 36.9 4.3 0 5.6 9.5 5.6 34.7v34.7h-635.4-635.8z"/>
				</g>
			</g>
			<g id="l3gLQdCXPrfhF4noZBM8OBf">
				<g id="Layer">
					<path id="pCHaBzlc5" class="s3" d="m1658.6 753.1l-174.8-0.8v-54.2-54.3h180 179.6l3 15.7c3.5 18.2 0 52.9-7.8 77.6l-5.6 17.3z"/>
					<path id="p11ScYM09y" class="s3" d="m1964.4 731.9c1.7-11.7 3-36 3-54.2v-33.9h326.2 326.6v54.3 54.2h-329.6-329.7z"/>
				</g>
			</g>
			<g id="lEuJGSYCnklsZJ8fKwpW9A">
				<g id="Layer">
					<path id="pxJHsf9Mp" class="s4" d="m829.3 739.3c-6.9-23.5-10.4-62.5-7.4-79.8l3.1-15.7h99.3 99.8v54.3 53.7l-95 1.3-95 1.3z"/>
					<path id="pdyKBZYN4" class="s4" d="m200 698.1v-54.3h250.7 250.2v33.4c0 18.7 1.3 43 3.1 54.7l3.4 20.4h-253.7-253.7z"/>
					<path id="pLf5DdyC2" class="s4" d="m3986.5 698.1v-54.3h93.2 93.3v54.3 54.2h-93.3-93.2z"/>
				</g>
			</g>
		</g>
	</g>
</svg>
