<svg version="1.2" xmlns="http://www.w3.org/2000/svg" viewBox="0 0 4173 2278">
	<title>42_logos</title>
	<style>
		.s1 { fill: {{ color }}; stroke: {{ color }}; stroke-width: 10 } 
	</style>
	<g id="Layer">
		<g id="khouribga">
			<path id="pzXaXxJs5 copy 6" class="s1" d="m1780 1696.8v-216.8h15.8 15.8v216.8 216.8h-15.8-15.8z"/>
			<path id="Khouribga" class="s1" aria-label="KHOURIBGA"  d="m2158.9 1581.9l-93.4 93.7 11.9-93.7h-45.8l-28.1 230.1h45.8l11.9-100.7 7.3-2.8 67.2 103.5h53.4l-83.9-123.9 109.8-106.2zm107.4 230.1l12.6-101h87.8l-12.5 101h45.8l28.1-230.1h-45.8l-10.7 87h-87.9l10.7-87h-45.5l-28 230.1zm310 4.3c69.3 0 124.2-51.3 128.2-118.4 4.6-69.9-47-120.3-115.4-120.3-68.9 0-124.2 52.2-128.1 118.4-4.3 72.4 48.8 120.3 115.3 120.3zm0.3-42.4c-39 0-72-30.3-69.2-76.9 2.4-42.8 36.3-76.9 81.4-76.9 41.5 0 72.1 32.3 69.3 76.5-2.7 43.7-35.4 77.3-81.5 77.3zm251.2 42.4c52.5 0 90.6-28.7 97.9-89.1l17.7-145.3h-46l-17.1 139.5c-4.6 38.4-22.6 52.8-49.5 52.8-25 0-43.3-14.1-38.4-53.1l17.1-139.2h-46.4l-16.8 138.2c-7.9 66.3 28.4 96.2 81.5 96.2zm307.6-159.9c6.1-50.4-30.2-74.5-85.8-74.5h-50.6l-28.1 230.1h45.5l11-89.4 9.4-0.3 47.9 89.7h51l-56.2-94.3c33.3-10.7 52.5-31.1 55.9-61.3zm-84.2-34.8c27.7 0 41.5 10 39 32.9-2.4 21.7-20.4 32.1-48.5 32.1h-9.8l7.7-65zm164.1 190.4l28.1-230.1h-45.5l-28 230.1zm128.1 0c46.1 0 86.4-15.9 91.6-60.7 3.3-27.2-10.4-50.7-37.2-59.2v-0.3c16.4-7.4 28-23.8 30.2-43.4 5.2-44.5-26.9-66.5-78.2-66.5h-47.9l-28 230.1zm-1.3-192.6h10.7c22 0 33.9 11.3 31.1 30.3-2.4 18.9-14.6 28.6-36.3 28.6h-13.1zm-11.9 92.5h18.9c32.7 0 44.3 14 42.1 33.3-2.1 18-17.4 29-46.3 29h-21.7zm271.6 14.3h52.5c-4.9 29.3-29 49.4-65 49.4-38.8 0-70.5-29.9-67.5-77.5 2.8-44.5 37.3-78.7 80.9-78.7 24.4 0 43.9 10.4 58.9 30.2l38.7-24.4c-22.2-31.1-56.1-47.6-96.1-47.6-67.4 0-124.5 50-128.8 119.6-4.2 69.6 44.6 119 111.7 119 68.4 0 113.9-44.2 119.4-115.6l0.9-12.5h-103.2zm333.9 85.7l-69.6-230.1h-32.4l-128.7 230.1h50.3l26.6-49.7h91.8l13.4 49.7zm-115.9-120.8c7.9-15.3 15.9-30.6 23.5-45.8 3.6 15.2 7.6 30.5 11.6 45.8l8.8 33.2h-61.6z"/>
		</g>
		<g id="1337">
			<path id="p18bqgdfmg" class="s1" d="m398.1 1357.5l2.2-55.6 74.8-3.6c41.3-2.1 74.1-5.7 73.4-8.5-1.4-3.6-2.1-172.5-2.1-376.4v-370.6h-92.7-91.9l-2.2 77-2.1 76.2h-53.5-53.4l-2.2-126.8-1.4-126.2h213.8 213.9v427.7 427.6h71.3 71.2v57.1 57h-210.2-211z"/>
			<path id="p18jxwfG8H" class="s1" d="m1305.5 1396c-2.9-9.3-3.6-34.2-2.1-55.6l2.1-38.5 228.1-3.6 228.1-3.5 2.1-165.4 1.4-166.1h-213.8-213.8v-53.4-53.5l212.4-1.4 211.7-2.1v-153.3-153.2l-226-2.2-225.9-1.4-4.3-23.5c-2.1-12.1-3.6-35-2.1-49.2l2.1-27.1h290.8 290.1l-1.4 483.3-2.1 482.5-286.6 2.2-287.2 1.4z"/>
			<path id="p13GZCq31T" class="s1" d="m2321.2 1355.4v-57.1h228.1 228.1v-167.5-167.5h-210.3-210.2v-54.8-55.6l210.2 2.1 210.3 2.1v-157.5-156.8h-228.1-228.1v-49.9-49.9h288.7 288.7v484.7 484.7h-288.7-288.7z"/>
			<path id="pCjel44bB" class="s1" d="m3803.8 1407.4c0-3.6-0.7-198.2-2.1-433.4l-1.4-427.6h-191.1-191.7l0.7 116.1 1.4 115.5-29.2 0.7c-15.7 0-39.2 0.7-51.3 1.4l-23.5 0.8-2.2-169-1.4-168.9h306.5 306.5v484.7 484.7h-60.6c-33.5 0-60.6-2.1-60.6-5z"/>
		</g>
	</g>
</svg>
