<svg version="1.2" xmlns="http://www.w3.org/2000/svg" viewBox="0 0 4173 2278">
	<title>42_logos</title>
	<style>
		.s0 { fill: {{ color }} } 
	</style>
	<g id="Layer">
		<g id="Kuala Lumpur">
			<path id="pzXaXxJs5 copy 3" class="s0" d="m1470 1632.9v-154.9h11.3 11.3v154.9 154.9h-11.3-11.3z"/>
			<path id="Sunway Education Group" class="s0" aria-label="Sunway Education Group"  d="m1674.1 1950.5c29.9 0 51.7-17.9 51.7-45.7 0-24.9-13.8-37-38.3-46.6-16.9-7-24-10.9-24-17.9 0-7.2 6.5-12 15.4-12 10.9 0 19.3 5 25.3 12.8l18.7-23c-10.7-11.8-25.5-19.6-46.5-19.6-28.8 0-49.7 18.3-49.7 43.6 0 24.3 16.6 34.6 39.8 43.8 16.3 6.8 22.4 11.5 22.4 20.2 0 9.2-6.5 14.8-17.2 14.8-11.7 0-23.1-6-32.3-19l-19.5 21.6c10.2 15.7 28.5 27 54.2 27zm123.6 0c29.6 0 48.5-15.2 48.5-44.4v-55.8h-34.9v53.1c0 11.3-3.5 18.1-13.6 18.1-10.3 0-13.6-6.8-13.6-18.1v-53.1h-34.9v55.8c0 30.6 19.9 44.4 48.5 44.4zm110.2-2.5v-47.9c0-15.4 4.6-23 15.6-23 9.9 0 12.8 6.8 12.8 19.7v51.2h35v-60.2c0-23.3-10.3-40.1-33.6-40.1-14.4 0-22.6 6.1-30.6 15.6h-0.4l0.6-13h-34.5v97.7zm142 0l17.9-49.6 17.7 49.6h22.8l43.6-97.7h-37.6l-18.1 55.1-18.9-55.1h-19.3l-18.5 55.1-18.5-55.1h-37.5l43.4 97.7zm150.3 2.5c12.6 0 21.4-5 30.7-14.4h0.2l-0.2 11.9h34.5v-97.7h-34.5l0.2 11.3h-0.2c-8.5-9.8-18.3-13.7-30.3-13.7-28.1 0-46.2 23.8-46.2 51.4 0 27.9 17.7 51.2 45.8 51.2zm10.3-28.6c-13 0-21-9.5-21-22.8 0-12.8 8.3-22.6 21.2-22.6 12.8 0 21.6 9.8 21.6 22.8 0 13.1-8.8 22.6-21.8 22.6zm128.7-16.1l-21.8-55.5h-38.8l43.1 82.9-31.8 61.5h38l70.1-144.4h-37.6zm223.5 42.2v-30h-54.1v-32.9h50.6v-29h-50.6v-24.9h53.3v-30h-89.3v146.8zm69.7 2.4c12.2 0 22.4-5.3 30.3-15h0.4l-0.2 12.6h34.5v-158.9h-35v55.1c0 4.7 0.1 12.5 0.3 18h-0.2c-7.7-9.2-17.9-14.5-30.5-14.5-28.4 0-45.6 23.6-45.6 51.4 0 27.5 17.5 51.3 46 51.3zm10.3-28.7c-13.1 0-21.2-9.7-21.2-22.6 0-13.2 7.8-22.5 21-22.5 13 0 21.6 9.3 21.6 22.4 0 13-8.6 22.7-21.4 22.7zm129.7 28.8c29.5 0 48.4-15.1 48.4-44.3v-55.9h-34.8v53.1c0 11.3-3.5 18.1-13.6 18.1-10.4 0-13.7-6.8-13.7-18.1v-53.1h-34.8v55.9c0 30.5 19.8 44.3 48.5 44.3zm123.4 0c9.5 0 19.3-2.5 25.7-6l1-32.3c-7.6 6.2-14.3 9.7-23 9.7-14 0-22-10.1-22-22.8 0-13.4 8.7-22.9 22.2-22.9 9.1 0 15.9 3.9 22.8 10.3v-32.7c-6.7-3.3-17.2-6.1-28.5-6.1-30.7 0-51.9 22.6-51.9 51.8 0 31.2 21.8 51 53.7 51zm89 0c12.6 0 21.4-5 30.7-14.4h0.2l-0.2 11.9h34.5v-97.7h-34.5l0.2 11.3h-0.2c-8.5-9.8-18.3-13.7-30.4-13.7-28 0-46.1 23.8-46.1 51.4 0 27.9 17.7 51.2 45.8 51.2zm10.3-28.6c-13.1 0-21.1-9.5-21.1-22.8 0-12.8 8.4-22.5 21.3-22.5 12.8 0 21.6 9.7 21.6 22.7 0 13.1-8.8 22.6-21.8 22.6zm122.2 26.1v-68.1h17v-29.6h-17v-33.7h-35v33.7h-15.8v29.6h15.8v68.1zm50.8-116.4c10.9 0 20.5-6.8 20.5-18.9 0-11.1-9-18.7-20.5-18.7-11.5 0-20.4 7.8-20.4 18.7 0 12.1 9.5 18.9 20.4 18.9zm17.5 116.4v-97.7h-35v97.7zm77.9 2.5c32.1 0 56.2-19.4 56.2-51.4 0-31.3-24.3-51.4-56-51.4-32 0-55.9 20.3-55.9 51.1 0 32.3 23.9 51.7 55.7 51.7zm0.2-28.8c-12.9 0-21.1-9.1-21.1-22.7 0-12.9 8.4-22.2 21.1-22.2 12.8 0 21.2 9.3 21.2 22.3 0 13.5-8.4 22.6-21.2 22.6zm113.3 26.3v-47.9c0-15.4 4.6-23 15.5-23 10 0 12.9 6.9 12.9 19.7v51.2h35v-60.1c0-23.4-10.3-40.2-33.6-40.2-14.5 0-22.6 6.1-30.6 15.6h-0.4l0.6-13h-34.5v97.7zm222.5 2.5c45.6 0 74.2-29.9 74.2-77.8v-6.3h-71v27.7h30.7v0.2c-2.3 14.4-15.4 25.3-33.5 25.3-22 0-40.8-19.1-40.8-44.2 0-25.3 17.3-44.6 42-44.6 14 0 25.1 6.2 33.7 17.9l31.7-16.5c-15.4-23-39.3-33.7-65.8-33.7-44 0-78.8 31.1-78.8 76.7 0 44.4 34.6 75.3 77.6 75.3zm133.2-2.5v-44.2c0-15.4 6.2-23.5 17.9-23.5 5.5 0 10 2.1 14.2 4.8l5.1-34.2c-3.7-2-7.4-3.2-10.9-3.2-11.9 0-18.5 3.7-26.1 13.5h-0.8l0.6-10.9h-35v97.7zm101 2.5c32.1 0 56.3-19.4 56.3-51.4 0-31.3-24.4-51.4-56.1-51.4-31.9 0-55.9 20.3-55.9 51.1 0 32.3 24 51.7 55.7 51.7zm0.2-28.8c-12.8 0-21-9.1-21-22.7 0-12.9 8.4-22.2 21-22.2 12.9 0 21.2 9.3 21.2 22.3 0 13.5-8.3 22.6-21.2 22.6zm125.8 28.8c29.6 0 48.5-15.1 48.5-44.3v-55.9h-34.9v53.1c0 11.3-3.5 18.1-13.6 18.1-10.3 0-13.7-6.8-13.7-18.1v-53.1h-34.8v55.9c0 30.5 19.9 44.3 48.5 44.3zm110.2 44.2v-40.7c0-5.6 0-10.5-0.6-18.1h0.2c7.6 9.2 18.1 14.5 30.4 14.5 28 0 45.7-23.8 45.7-51.3 0-27.8-16.9-51.4-45.4-51.4-12.6 0-22.9 5.3-30.7 14.5h-0.4l0.2-11.9h-34.5v144.4zm19.7-73c-12.9 0-21.6-9.7-21.6-22.7 0-13.1 8.7-22.6 21.6-22.6 13.2 0 21.2 9.5 21.2 22.7 0 12.9-8.4 22.6-21.2 22.6z"/>
			<path id="Kuala Lumpur" class="s0" aria-label="KUALA LUMPUR"  d="m1740.7 1550.6l-66.7 66.9 8.5-66.9h-32.7l-20.1 164.4h32.7l8.6-72 5.2-1.9 48 73.9h38.1l-59.9-88.5 78.5-75.9zm108.5 167.5c37.6 0 64.8-20.5 70-63.7l12.7-103.8h-32.9l-12.2 99.6c-3.3 27.5-16.2 37.8-35.4 37.8-17.9 0-30.9-10.1-27.4-38l12.2-99.4h-33.2l-12 98.8c-5.6 47.3 20.3 68.7 58.2 68.7zm244.5-3.1l-49.7-164.4h-23.1l-92.1 164.4h36l19-35.5h65.6l9.6 35.5zm-82.8-86.4c5.6-10.9 11.3-21.8 16.8-32.7 2.6 10.9 5.4 21.8 8.2 32.7l6.4 23.8h-44.1zm185.6 86.4l3.7-30.3h-48.9l16.4-134.1h-32.5l-20.1 164.4zm173.4 0l-49.7-164.4h-23.1l-92.1 164.4h36l19-35.6h65.6l9.6 35.6zm-82.8-86.4c5.6-10.9 11.3-21.8 16.8-32.7 2.6 10.9 5.4 21.8 8.2 32.7l6.4 23.8h-44.1zm242.7 86.3l3.7-30.3h-48.8l16.3-134.1h-32.5l-20 164.4zm86.8 3.1c37.5 0 64.7-20.5 70-63.7l12.6-103.8h-32.9l-12.2 99.7c-3.3 27.4-16.2 37.7-35.3 37.7-17.9 0-31-10-27.5-37.9l12.2-99.5h-33.2l-12 98.8c-5.6 47.3 20.3 68.7 58.3 68.7zm125.4-3.1l27.9-97.2 27.4 97.2h13.8l53-97 2.1 97h32.5l-8.2-164.4h-20.5l-59.1 108.2-30.8-108.2h-20.7l-51 164.4zm220.7 0l7.6-62.1h13.1c34.4 0 60.6-16.1 64.5-48.2 4.6-37.3-22.2-54.1-60.8-54.1h-36.9l-20 164.4zm16.5-136.3h8.3c20.3 0 30.5 8.8 28.6 24.5-2.2 15.5-13.5 21.8-33.4 21.8h-8.9zm148 139.3c37.5 0 64.8-20.5 70-63.7l12.7-103.8h-32.9l-12.3 99.7c-3.2 27.5-16.1 37.7-35.3 37.7-17.9 0-30.9-10-27.5-37.9l12.3-99.5h-33.2l-12 98.8c-5.6 47.3 20.3 68.7 58.2 68.7zm219.8-114.2c4.4-36-21.5-53.3-61.2-53.3h-36.2l-20.1 164.5h32.5l7.9-63.9 6.7-0.2 34.2 64.1h36.5l-40.2-67.4c23.8-7.6 37.5-22.3 39.9-43.8zm-60.1-24.9c19.8 0 29.6 7.2 27.9 23.5-1.8 15.5-14.6 22.9-34.7 22.9h-7l5.5-46.4z"/>
		</g>
		<path id="2" class="s0" d="m1580 1187v-222l225-225 225-225v-212c0-117-3-213-8-213-4 0-102 94-217 210-115 116-213 210-217 210-5 0-8-97-8-215v-215h445 445v223 222l-220 220-220 220v220 220l220-220 220-220v223 222h-445-445z"/>
		<path id="4" class="s0" d="m948 1548l-3-223-440-2-440-2-3-178-2-178 443-443 442-442 217 2 217 3-436 437-435 438h441 441v405 405h-220-220z"/>
	</g>
</svg>
