<svg version="1.2" xmlns="http://www.w3.org/2000/svg" viewBox="0 0 4173 2278">
	<title>42_logos</title>
	<style>
		.s0 { fill: {{ color }} }
	</style>
	<g id="Layer">
		<g id="Lausanne">
			<path id="Layer" class="s0" d="m1590.3 1497.9h41.9v527.1h-41.9z"/>
			<path id="Layer" class="s0" d="m1920.5 1601.5l-27.6 224.8h87l-6.6 54.4h-151.4l34.2-279.2z"/>
			<path id="Layer" fill-rule="evenodd" class="s0" d="m2190.9 1828h-105.9l-26.7 52.7h-69.5l147.7-279.2h59.4l75.2 279.2h-66.1zm-11.7-49.4l-22.7-98.4-46.8 98.4z"/>
			<path id="Layer" class="s0" d="m2390.6 1601.5l-18.5 152.4c-0.5 4.5-1 8.1-1.4 11.1q-0.2 1.6-0.3 3.3-0.1 1.6-0.2 3.3-0.1 1.6-0.1 3.3 0 1.6 0 3.3 0 2.3 0.1 4.6 0.2 2.3 0.4 4.5 0.3 2.3 0.7 4.6 0.3 2.3 0.8 4.5 0.6 2.5 1.5 5 1 2.4 2.3 4.7 1.2 2.2 2.8 4.3 1.6 2 3.5 3.8 1.6 1.5 3.4 2.8 1.7 1.3 3.6 2.4 1.9 1.1 3.8 2.1 2 0.9 4.1 1.6 2.6 1 5.3 1.7 2.7 0.7 5.5 1.2 2.8 0.4 5.6 0.6 2.8 0.2 5.6 0.1 3.2 0.1 6.5-0.1 3.3-0.2 6.5-0.7 3.3-0.5 6.4-1.4 3.2-0.8 6.3-2 2.1-0.8 4.1-1.8 2-1.1 4-2.3 1.9-1.2 3.7-2.6 1.8-1.4 3.4-2.9 1.3-1.3 2.5-2.7 1.1-1.3 2.2-2.8 1-1.5 2-3 0.9-1.6 1.7-3.2 0.8-1.7 1.6-3.4 0.8-1.7 1.4-3.5 0.7-1.7 1.3-3.5 0.6-1.8 1.1-3.6 0.5-1.8 1-3.6 0.5-1.8 0.9-3.6 0.4-1.8 0.7-3.6 0.3-1.8 0.6-3.7c0.6-4.7 1.3-8.9 1.9-13l19.2-158.2h64.5l-20.1 162.4c-1.1 8.4-2.4 16.8-3.6 25.1q-0.5 3.1-1 6.2-0.6 3.1-1.2 6.1-0.6 3.1-1.4 6.2-0.7 3-1.6 6-0.8 3-1.7 5.9-1 2.9-2.1 5.8-1.1 2.9-2.4 5.7-1.2 2.8-2.7 5.5-1.5 2.8-3.2 5.5-1.7 2.7-3.6 5.2-1.9 2.6-3.9 5-2.1 2.5-4.3 4.8-2.5 2.6-5.1 4.9-2.7 2.4-5.6 4.5-2.8 2.2-5.9 4-3 1.9-6.2 3.5-3 1.5-6 2.7-3.1 1.3-6.2 2.5-3.1 1.1-6.3 2-3.2 0.9-6.4 1.7-3 0.7-5.9 1.3-3 0.6-6 1-3 0.5-6 0.8-3 0.3-6 0.5c-7.6 0.4-14.2 0.6-20.1 0.6-5.9 0-14.3 0-21.9-0.8q-2.9-0.2-5.9-0.6-2.9-0.3-5.8-0.8-2.8-0.5-5.7-1.2-2.9-0.6-5.7-1.4-2.9-0.8-5.8-1.8-2.9-1-5.7-2.1-2.9-1.1-5.6-2.4-2.8-1.2-5.5-2.6-2.9-1.5-5.6-3.3-2.7-1.7-5.3-3.6-2.6-1.9-5.1-4-2.4-2.1-4.7-4.4-3.1-3-6-6.4-2.8-3.3-5.2-6.9-2.4-3.7-4.4-7.6-1.9-3.9-3.4-8-1.5-4.3-2.6-8.7-1.1-4.4-1.8-8.9-0.7-4.4-1-9-0.4-4.5-0.3-9c0-3 0-6.6 0.4-10.4l0.8-12q0-6.1 1.1-11.7 1.1-5.6 1.1-9.9l17.8-148.2z"/>
			<path id="Layer" class="s0" d="m2759.7 1669.8q-2.7-2.6-5.6-5-3-2.3-6.2-4.4-3.2-2-6.6-3.7-3.3-1.7-6.9-3-2.6-0.9-5.2-1.7-2.7-0.7-5.4-1.2-2.7-0.5-5.4-0.8-2.8-0.2-5.5-0.3-1.7 0-3.4 0.1-1.7 0.1-3.4 0.2-1.7 0.2-3.3 0.4-1.7 0.2-3.4 0.5-1.8 0.3-3.5 0.8-1.7 0.5-3.4 1.3-1.6 0.7-3.2 1.7-1.5 0.9-2.9 2.1-1.1 0.9-2.2 1.9-1 1-1.9 2.1-0.9 1.1-1.7 2.4-0.7 1.2-1.3 2.5-0.6 1.3-1.1 2.7-0.4 1.4-0.7 2.8-0.3 1.4-0.5 2.8-0.2 1.5-0.2 2.9 0 1.4 0.1 2.9 0.2 1.4 0.5 2.8 0.3 1.3 0.8 2.7 0.5 1.3 1.1 2.6 0.7 1.1 1.5 2.2 0.7 1.1 1.6 2.1 0.9 1 1.9 1.9 1 0.9 2.1 1.7 1.3 1 2.6 1.9 1.3 1 2.6 1.8 1.4 0.9 2.7 1.7 1.4 0.8 2.8 1.6 6.2 3 16.6 7.7l16.3 7.5q2.5 1.1 4.9 2.4 2.5 1.2 4.9 2.6 2.4 1.3 4.8 2.7 2.4 1.5 4.7 3 2.5 1.7 4.9 3.5 2.3 1.9 4.6 3.9 2.2 2 4.3 4.2 2.1 2.2 4 4.5 1.8 2.2 3.3 4.6 1.6 2.3 3 4.8 1.3 2.5 2.5 5.1 1.1 2.6 2.1 5.3 0.8 2.9 1.5 5.8 0.7 3 1.1 5.9 0.4 3 0.6 6 0.2 3 0.1 6 0.1 5.2-0.4 10.5-0.5 5.2-1.5 10.3-1 5.2-2.5 10.2-1.5 5-3.6 9.8-1.7 4.3-3.8 8.4-2.2 4.1-4.7 8-2.5 3.8-5.4 7.5-2.9 3.6-6.1 6.9-3.9 3.9-8.3 7.3-4.4 3.4-9.2 6.2-4.8 2.8-9.9 4.9-5.2 2.1-10.5 3.6-5.2 1.3-10.4 2.3-5.2 0.9-10.5 1.6-5.3 0.6-10.5 0.9-5.3 0.4-10.7 0.4-3.5 0-7.1-0.2-3.6-0.1-7.2-0.4-3.5-0.3-7.1-0.8-3.5-0.5-7-1.1-3.6-0.8-7.1-1.8-3.5-1-6.9-2.2-3.4-1.3-6.7-2.8-3.3-1.5-6.5-3.3-2.7-1.5-5.3-3.1-2.6-1.6-5.1-3.3-2.5-1.7-4.9-3.5-2.5-1.8-4.8-3.7-2.3-1.9-4.6-3.8-2.2-1.9-4.3-3.9-2.2-2-4.3-4.1-2-2.1-4-4.2l36.1-46.2q1.2 1.6 2.5 3.2 1.3 1.5 2.7 3 1.3 1.5 2.7 2.9 1.4 1.5 2.9 2.9 1.5 1.4 3 2.8 1.5 1.3 3.1 2.6 1.5 1.3 3.2 2.5 1.6 1.2 3.3 2.4 1.7 1.1 3.6 2 1.8 1 3.7 1.8 1.9 0.9 3.8 1.6 1.9 0.7 3.9 1.3 2.2 0.6 4.4 1.1 2.2 0.5 4.4 0.8 2.3 0.3 4.5 0.4 2.3 0.2 4.5 0.2 2.1-0.1 4.1-0.2 2-0.2 4-0.4 2.1-0.3 4.1-0.7 2-0.3 3.9-0.8 2-0.4 4-1.1 1.9-0.6 3.8-1.5 1.9-0.8 3.6-1.9 1.8-1 3.4-2.3 2.9-2.3 5.2-5.2 2.3-2.9 3.8-6.3 1.6-3.4 2.3-7 0.7-3.7 0.5-7.4 0.1-1.5-0.1-3.1-0.1-1.6-0.5-3.1-0.3-1.5-0.9-3-0.5-1.5-1.3-2.9-0.5-0.9-1.1-1.9-0.6-0.9-1.2-1.8-0.7-0.9-1.4-1.8-0.7-0.8-1.5-1.6-0.7-0.7-1.5-1.3-0.8-0.7-1.6-1.3-0.8-0.6-1.6-1.1-0.9-0.6-1.8-1.1-1.8-1.1-3.7-2.2-2-1-3.9-2-2-1-4-1.9-2-0.9-4-1.6l-16.4-6.8q-0.8-0.3-1.6-0.5-0.8-0.3-1.6-0.6-0.8-0.3-1.5-0.7-0.8-0.3-1.5-0.7c-3.2-1.4-6.5-3.1-10.3-5.3q-1.5-0.8-3-1.7-1.5-0.9-3-1.8-1.5-0.9-2.9-1.9-1.4-1-2.8-2-1.5-1.1-3-2.2-1.4-1.2-2.8-2.3-1.4-1.2-2.7-2.5-1.4-1.2-2.7-2.5-2.3-2.3-4.4-4.9-2.1-2.6-3.8-5.4-1.8-2.8-3.3-5.8-1.5-2.9-2.6-6-1.1-3.1-1.9-6.2-0.8-3.1-1.3-6.2-0.5-3.2-0.8-6.4-0.2-3.2-0.2-6.4-0.1-4.8 0.3-9.6 0.4-4.8 1.3-9.5 1-4.7 2.5-9.3 1.4-4.6 3.4-9 1.6-3.6 3.6-7 2-3.4 4.2-6.7 2.2-3.2 4.7-6.2 2.5-3.1 5.3-5.9 3.8-3.9 8.1-7.2 4.3-3.4 9-6.1 4.7-2.7 9.8-4.8 5-2.1 10.3-3.4 4.7-1.2 9.4-2.1 4.7-0.8 9.5-1.4 4.8-0.6 9.6-1 4.8-0.3 9.6-0.3 4.9 0 9.7 0.4 4.8 0.3 9.6 1 4.8 0.6 9.6 1.6 4.7 1 9.4 2.2 5.8 1.7 11.4 4 5.6 2.2 11 5.1 5.3 2.8 10.3 6.1 5.1 3.3 9.8 7.2z"/>
			<path id="Layer" fill-rule="evenodd" class="s0" d="m2992.3 1828h-105.4l-26.7 52.7h-69.4l148-279.2h59.5l74.1 279.2h-66.1zm-11.7-49.4l-22.6-98.4-46.9 98.4z"/>
			<path id="Layer" class="s0" d="m3102.9 1880.7l34.8-279.2h56.1l128.4 181.7 22.7-181.7h64.4l-34.2 279.2h-56.1l-129.2-182.5-22.2 182.5z"/>
			<path id="Layer" class="s0" d="m3436.1 1880.7l34.7-279.2h56.1l128.5 181.7 22.4-181.7h64.5l-34.4 279.2h-56.1l-129.2-182.5-22.3 182.5z"/>
			<path id="Layer" class="s0" d="m3950.9 1655.9h-91.2l-6.7 54.1h87.9l-6.7 54.4h-88l-7.5 62.3h92.9l-6.7 54.4h-155.7l34.4-279.6h154z"/>
		</g>
		<path id="2" class="s0" d="m1580 1187v-222l225-225 225-225v-212c0-117-3-213-8-213-4 0-102 94-217 210-115 116-213 210-217 210-5 0-8-97-8-215v-215h445 445v223 222l-220 220-220 220v220 220l220-220 220-220v223 222h-445-445z"/>
		<path id="4" class="s0" d="m948 1548l-3-223-440-2-440-2-3-178-2-178 443-443 442-442 217 2 217 3-436 437-435 438h441 441v405 405h-220-220z"/>
	</g>
</svg>
