<svg version="1.2" xmlns="http://www.w3.org/2000/svg" viewBox="0 0 4173 2278">
	<title>42_logos</title>
	<style>
		.s0 { fill: {{ color }} } 
	</style>
	<g id="Layer">
		<g id="Lisboa">
			<path id="p1BwndTYpv" class="s0" d="m1606.1 2087.8c-17.7-7.3-17.1 5.1-17.1-287.2 0-148.2 1.3-271.1 2.5-273.4 4.5-7.2 25.9-14.8 32.6-11.3 16.4 8.8 15.8-3.2 15.8 282.1 0 231-0.7 266.1-4.8 276.2-6.9 16.8-13.6 19.9-29 13.6z"/>
			<path id="Lisboa" class="s0" aria-label="LISBOA"  d="m2025 1937l6.8-55.6h-89.6l30-246h-59.6l-36.8 301.6zm104.8 0l36.8-301.6h-59.6l-36.8 301.6zm170.4 5.6c56 0 98-33.6 103.6-85.6 5.2-50.4-19.2-80-68.8-100.8-38.4-16.8-48.8-29.2-47.2-47.2 1.6-15.6 15.2-27.2 37.6-27.2 22 0 39.6 9.6 52 26l40-35.2c-19.2-26.4-51.2-42.8-93.2-42.8-54.8 0-93.2 30.8-97.6 77.2-4.8 47.2 22.8 72.8 70.8 93.6 39.2 17.6 48 31.6 45.2 54.4-2 21.2-17.2 35.6-42.4 35.6-25.6 0-48-12-62.8-41.6l-41.2 31.2c14.8 35.2 48 62.4 104 62.4zm248-5.6c60.4 0 113.2-20.8 120-79.6 4.4-35.6-13.6-66.4-48.8-77.6v-0.4c21.6-9.6 36.8-31.2 39.6-56.8 6.8-58.4-35.2-87.2-102.4-87.2h-62.8l-36.8 301.6zm-1.6-252.4h14c28.8 0 44.4 14.8 40.8 39.6-3.2 24.8-19.2 37.6-47.6 37.6h-17.2zm-15.6 121.2h24.8c42.8 0 58 18.4 55.2 43.6-2.8 23.6-22.8 38-60.8 38h-28.4zm341.6 136.8c90.8 0 162.8-67.2 168-155.2 6-91.6-61.6-157.6-151.2-157.6-90.4 0-162.8 68.4-168 155.2-5.6 94.8 64 157.6 151.2 157.6zm0.4-55.6c-51.2 0-94.4-39.6-90.8-100.8 3.2-56 47.6-100.8 106.8-100.8 54.4 0 94.4 42.4 90.8 100.4-3.6 57.2-46.4 101.2-106.8 101.2zm468 50l-91.2-301.6h-42.4l-168.8 301.6h66l34.8-65.2h120.4l17.6 65.2zm-152-158.4c10.4-20 20.8-40 30.8-60 4.8 20 10 40 15.2 60l11.6 43.6h-80.8z"/>
		</g>
		<g id="42">
			<path id="2" class="s0" d="m1580 1187v-222l225-225 225-225v-212c0-117-3-213-8-213-4 0-102 94-217 210-115 116-213 210-217 210-5 0-8-97-8-215v-215h445 445v223 222l-220 220-220 220v220 220l220-220 220-220v223 222h-445-445z"/>
			<path id="4" class="s0" d="m948 1548l-3-223-440-2-440-2-3-178-2-178 443-443 442-442 217 2 217 3-436 437-435 438h441 441v405 405h-220-220z"/>
		</g>
	</g>
</svg>
