<svg version="1.2" xmlns="http://www.w3.org/2000/svg" viewBox="0 0 4173 2278" width="469" height="256">
	<title>42_logos</title>
	<style>
		.s0 { fill: #000000 } 
	</style>
	<g id="Layer">
		<g id="Lyon">
			<path id="Layer" class="s0" d="m1663.4 1592.9l-15.9 130.1h50.3l-3.8 31.5h-87.7l19.8-161.6h37.3z"/>
			<path id="Layer" class="s0" d="m1748.3 1679.2l-47.3-86.3h42.7l26.4 50.2 38.5-50.2h45.5l-68.6 86.3-9.2 75.3h-37.3z"/>
			<path id="Layer" fill-rule="evenodd" class="s0" d="m1998.5 1610.4c15 15.3 23.2 36 22.7 57.5 0 23-8 47.9-25 65.4-20.3 20.8-45.8 24.9-66.8 24.9-21.1 0-42.4-3.6-61.6-23.1-14.8-15-22.9-35.3-22.7-56.4-0.5-24.4 9.1-47.9 26.6-64.9 20.6-19.6 45.6-24.5 66.4-24.5 31.1 0.1 49.6 10.9 60.4 21.1zm-100.3 28.8c-9.4 10.1-14.7 23.3-14.7 37-1.1 25.2 18.4 46.6 43.6 47.7h0.1q2.4 0.2 4.7 0c10.9 0 24.2-1.7 36.2-13.8 9.9-10.8 15.3-24.9 15.1-39.6 0.5-12.6-4.1-24.8-12.9-33.9-9-8.5-21-13-33.4-12.6-14.5-0.7-28.6 4.8-38.8 15.2z"/>
			<path id="Layer" class="s0" d="m2038.8 1754.5l20.2-161.6h32.4l74.4 105.3 13.1-105.1h37.2l-19.8 161.6h-32.7l-74.8-105.5-12.8 105.5z"/>
			<path id="Layer" fill-rule="evenodd" class="s0" d="m1714.1 1976h-61.1l-12.3 30.5h-38.8l65.2-161.5h34.1l63.7 161.5h-38.7zm-10.2-28.5l-19.8-54.3-20.1 54.3z"/>
			<path id="Layer" class="s0" d="m1813.8 1898.7v59.3c0 4.9 0.5 12.3 6.1 17.5 4 3.5 9.2 5.3 14.5 5 5.4 0.2 10.7-1.6 14.8-5 5.1-4.9 5.8-12.2 5.8-17.5v-59.3h35v62.9c0 12.4-1.2 24-12.1 34.7-12.4 12.1-30.5 14-43.4 14-12.8 0-31.2-1.9-43.6-14-9.9-9.7-11.8-20.6-11.8-32.5v-65.1z"/>
			<path id="Layer" class="s0" d="m1942.2 1898.7l27.4 57.8 27.3-57.8h38.2l-54.7 108h-21.8l-54.7-108z"/>
			<path id="Layer" fill-rule="evenodd" class="s0" d="m2156.3 1958.7h-80.6c0 6.7 2.3 13.2 6.6 18.4 4.7 4.7 11.2 7.1 17.9 6.6 4.9 0.1 9.7-1 14-3.3 3.3-2.2 5.9-5.3 7.5-9l33 3.3c-3.4 11.3-10.8 21-20.8 27.2-10.4 5.7-22.3 8.5-34.2 7.9-16.2 0-30.5-2.9-43.1-15.5-10.7-11.1-16.6-26.1-16.2-41.6-0.2-15.8 5.7-31.1 16.5-42.6 13.2-13.2 29.3-15.5 41.4-15.5 12.1 0 29.7 2.2 42.9 16.2 13.1 14 15.2 30.5 15.2 43.8zm-32.2-21c-1.1-4.7-3.5-9.1-7-12.6-9.9-8.5-24.6-8.1-34.1 0.9-3 3.3-5.2 7.3-6.1 11.6z"/>
			<path id="Layer" class="s0" d="m2178.1 1898.7h35.1v16.9c3.1-6.1 7.7-11.3 13.5-15 5.7-3.3 12.2-4.9 18.7-4.6 3.8-0.1 7.7 0.5 11.4 1.7l-2 32.7c-4.8-2.6-10.2-4-15.7-4-6.5-0.3-12.9 2.4-17.4 7.2-7.7 8.3-8.5 19.8-8.5 29.1v43.8h-35.1z"/>
			<path id="Layer" fill-rule="evenodd" class="s0" d="m2353.2 1898.7h34.9v101.5c0 15.2-0.7 32.4-13.2 46.1-13.2 14.3-33.7 16-45.5 16-14.3 0-31.5-2.2-45.1-13.8-8.6-7.3-14.3-17.4-16.2-28.6h38c1.1 4.5 3.9 8.2 7.8 10.7 4.5 2.6 9.8 3.8 15 3.6 6.3 0.4 12.6-1.7 17.4-5.8 6.6-6.6 7.1-17.9 7.1-22.5v-12.4c-4.2 6.8-12.4 16.2-32.3 16.2-16.7 0-29.6-5.3-39.5-15.2-10.6-11-16.2-25.7-15.7-40.9-0.4-15.9 5.4-31.4 16.1-43.2 10.4-10.4 24.6-16.1 39.2-15.5 19.8 0 28.4 10.4 32.3 16.2zm-43.4 33.8c-5.2 5.4-8.1 12.6-8.2 20.1 0 7.2 2.6 14.1 7.5 19.4 5.1 5.2 12.2 8.1 19.6 7.7 7 0.2 13.7-2.3 18.9-7 5.5-5.4 8.5-12.8 8.5-20.6 0-7.4-3-14.5-8.3-19.7-5.3-4.5-12-6.8-18.9-6.8-7-0.2-13.8 2.2-19.1 6.8z"/>
			<path id="Layer" class="s0" d="m2415.2 1898.7h35v12.8c7.8-10.5 20.3-16.3 33.4-15.7 9.5 0 21.8 1.6 31 10.8 10.2 10.2 10.9 23.1 10.9 31.8v68.3h-35v-55.6c0-7.1-0.2-16-5.8-21.6-3.6-3.3-8.3-5.1-13.2-4.9-5.4-0.2-10.7 1.9-14.5 5.8-5.8 5.9-6.6 13.6-6.6 20.7v55.4h-35.2z"/>
			<path id="Layer" fill-rule="evenodd" class="s0" d="m2663.2 1958.7h-80.7c0 6.7 2.3 13.2 6.5 18.4 4.8 4.7 11.3 7.1 18 6.6 4.9 0.1 9.7-1 14-3.3 3.3-2.2 5.9-5.3 7.5-9l33 3.3c-3.4 11.3-10.8 21-20.8 27.2-10.4 5.7-22.3 8.5-34.2 7.9-16.2 0-30.5-2.9-43.1-15.5-10.8-11.1-16.6-26.1-16.2-41.6-0.2-15.8 5.7-31.1 16.5-42.6 13.1-13.2 29.3-15.5 41.4-15.5 12.1 0 29.6 2.2 42.8 16.2 13.2 14 15.3 30.5 15.3 43.8 0 0 0 4.1 0 4.1zm-32.1-20.8c-1.2-4.8-3.7-9.1-7.1-12.6-9.9-8.5-24.7-8.1-34.1 0.9-3.1 3.3-5.2 7.3-6.1 11.7z"/>
			<path id="Layer" class="s0" d="m2688.7 1930h61.9v30.5h-62c0 0 0-30.5 0.1-30.5z"/>
			<path id="Layer" fill-rule="evenodd" class="s0" d="m2837.1 1845c20.6 0 33.5 6.7 41.2 14 9.5 9.6 14.6 22.7 14.1 36.1 0.5 12.3-4 24.2-12.6 33-6.4 6-14.1 10.2-22.6 12.3l49.7 66.1h-45.6l-43.6-63.7v63.7h-37.2v-161.5zm-19.4 73.4h8.4c6.8 0 16-0.7 22.3-7 4.1-4.2 6.3-9.9 6.1-15.7 0.3-6.4-2.5-12.5-7.5-16.5-6.1-4.6-15.8-5.1-20.6-5.1h-8.7z"/>
			<path id="Layer" class="s0" d="m2924.3 1830.1h34.9v81.4c3.6-4.6 8.1-8.4 13.2-11.2 6.5-3.4 13.7-4.9 21.1-4.5 8.4 0 21 1.1 30.5 10.8 9.4 9.7 10.6 23.1 10.6 31.5v68.4h-34.9v-55.4c0-7.6-0.2-16.3-5.8-21.6-3.7-3.3-8.6-5-13.5-4.9-5.2-0.1-10.2 1.8-13.9 5.4-7 6.6-7.2 17.2-7.2 22.5v54h-34.9z"/>
			<path id="Layer" fill-rule="evenodd" class="s0" d="m3164.3 1992.7c-9.6 9.7-26.1 17.4-47.2 17.4-21.1 0-37.5-7.7-47.2-17.4-21.6-22.4-21.6-58 0-80.4 9.7-9.7 26.1-17.4 47.2-17.4 21.1 0 37.6 7.7 47.2 17.4 21.7 22.4 21.7 58 0 80.4zm-76-110.9l-15.5-16.7 44.3-34.4 44.6 34.4-16 16.7-28.6-23.1zm9.2 91.2c5.2 5.2 12.4 8 19.8 7.8 7.2 0.2 14.2-2.6 19.3-7.8 10.8-11.4 10.8-29.2 0-40.7-11-10.2-28.1-10.2-39.1 0-10.6 11.5-10.6 29.3 0 40.7zm-0.1-40.7h0.1q-0.1 0-0.1 0z"/>
			<path id="Layer" class="s0" d="m3202.3 1898.7h34.9v12.8c7.9-10.4 20.4-16.3 33.4-15.7 9.5 0 21.8 1.6 31 10.8 10.2 10.2 10.9 23.1 10.9 31.8v68.3h-34.7v-55.6c0-7.1-0.3-16-5.8-21.6-3.6-3.3-8.3-5.1-13.2-4.9-5.5-0.2-10.8 1.9-14.6 5.8-5.8 5.9-6.6 13.6-6.6 20.7v55.4h-35z"/>
			<path id="Layer" fill-rule="evenodd" class="s0" d="m3450.4 1958.7h-80.7c0.1 6.7 2.4 13.2 6.6 18.4 4.8 4.7 11.3 7.1 18 6.6 4.8 0.1 9.7-1 14-3.3 3.3-2.2 5.9-5.3 7.5-9l33 3.3c-3.4 11.3-10.8 21-20.8 27.2-10.5 5.8-22.4 8.6-34.4 8.1-16.3 0-30.6-2.9-43.2-15.5-10.7-11.2-16.5-26.2-16.2-41.7-0.2-15.8 5.7-31 16.5-42.6 13.2-13.2 29.3-15.5 41.4-15.5 12.1 0 29.7 2.2 42.9 16.2 13.2 14.1 15.2 30.5 15.2 43.8zm-32.2-20.8c-1.2-4.7-3.6-9.1-7-12.6-9.9-8.4-24.7-8-34.1 1-3.1 3.2-5.2 7.3-6.1 11.6z"/>
			<path id="Layer" class="s0" d="m3475.8 1930h62v30.5h-62z"/>
			<path id="Layer" fill-rule="evenodd" class="s0" d="m3667.6 1976h-61l-12.4 30.5h-38.7l65.1-161.5h34.2l63.7 161.5h-38.8zm-10.2-28.5l-19.7-54.3-20.2 54.3z"/>
			<path id="Layer" class="s0" d="m3733.5 1830.1h34.9v176.4h-34.9z"/>
			<path id="Layer" fill-rule="evenodd" class="s0" d="m3831.3 2062h-34.8v-163.3h34.8v12.8c7.9-10.7 20.4-16.9 33.7-16.5 14.3-0.4 28.1 5.1 38.3 15.2 22 24.4 21.5 61.7-1 85.5-9.5 9.9-22.9 15.2-36.6 14.6-21.5 0-30.7-10.9-34.4-16zm5.8-129.1c-5.1 5.3-8.1 12.4-8.2 19.8 0 7.1 2.8 14 7.8 19.1 5.3 5.2 12.3 8.2 19.8 8.2 6.9 0 13.5-2.7 18.6-7.4 5.4-5.5 8.5-12.9 8.5-20.6 0.2-14.8-11.7-27-26.5-27.1h-0.6c-7.3-0.1-14.3 2.8-19.4 8z"/>
			<path id="Layer" fill-rule="evenodd" class="s0" d="m4052 1958.7h-80.7c0.1 6.7 2.4 13.2 6.6 18.4 4.8 4.7 11.3 7.1 18 6.6 4.9 0.1 9.7-1 14-3.3 3.3-2.2 5.9-5.3 7.5-9l33 3.3c-3.4 11.3-10.8 21-20.8 27.2-10.5 5.7-22.3 8.5-34.2 7.9-16.2 0-30.5-2.9-43.1-15.5-10.8-11.1-16.6-26.1-16.2-41.6-0.2-15.8 5.7-31.1 16.4-42.6 13.2-13.2 29.4-15.5 41.5-15.5 12.1 0 29.6 2.2 42.8 16.2 13.2 14 15.3 30.5 15.3 43.8zm-32.2-20.8c-1.2-4.8-3.6-9.1-7-12.6-10-8.5-24.7-8.1-34.2 0.9-3 3.3-5.2 7.3-6 11.7z"/>
			<path id="Layer" class="s0" d="m4139.9 1926.1c-5.7-3.6-12.3-5.7-19.1-6-3.6-0.2-7.1 1-9.9 3.3-1.4 1.3-2.1 3.1-2.2 4.9 0.1 2.1 1.4 4 3.3 4.9q5 2.3 10.4 3.6l9.2 2.9c6.6 1.8 12.7 5 17.9 9.5 5.8 5.2 8.9 12.8 8.5 20.6 0.2 10.5-3.8 20.8-11.2 28.3-10.6 10.7-23.7 12.3-35.1 12.3-16.2 0.7-32-4.9-44.3-15.5l14.9-23.7c3.6 3.1 7.6 5.8 11.9 8 4.5 2.2 9.5 3.3 14.5 3.3 3.8 0.2 7.6-0.6 10.9-2.5 2.2-1.6 3.5-4.2 3.6-7 0-2.7-1.5-5.1-3.8-6.3q-5.2-2.6-10.7-3.8l-8.7-2.7c-6.5-1.9-12.5-5.3-17.5-9.9-5.2-5.2-8-12.3-7.7-19.6-0.2-9.5 3.6-18.5 10.4-25 9.7-8.9 22.8-10.9 32.7-10.9 12.6-0.3 25 2.9 35.8 9.2z"/>
			<path id="Layer" class="s0" d="m1465.9 1515h24.2v302.8h-24.2z"/>
		</g>
		<path id="2" class="s0" d="m1580 1187v-222l225-225 225-225v-212c0-117-3-213-8-213-4 0-102 94-217 210-115 116-213 210-217 210-5 0-8-97-8-215v-215h445 445v223 222l-220 220-220 220v220 220l220-220 220-220v223 222h-445-445z"/>
		<path id="4" class="s0" d="m948 1548l-3-223-440-2-440-2-3-178-2-178 443-443 442-442 217 2 217 3-436 437-435 438h441 441v405 405h-220-220z"/>
	</g>
</svg>