<svg version="1.2" xmlns="http://www.w3.org/2000/svg" viewBox="0 0 4173 2278">
	<title>42_logos</title>
	<style>
		.s0 { fill: {{ color }} } 
	</style>
	<g id="Layer">
		<g id="Madrid">
			<path id="pzXaXxJs5 copy" class="s0" d="m1468 1665v-181h13.2 13.2v181 181.1h-13.2-13.2z"/>
			<path id="Fundaci贸n Telef贸nica" class="s0" aria-label="Fundaci贸n Telef贸nica"  d="m1700.7 2038v-72.5h54.4v-34.7h-54.4v-30.6h58.6v-36.8h-101.5v174.6zm136.9 3c35.2 0 57.6-18.1 57.6-52.8v-66.4h-41.4v63.2c0 13.4-4.2 21.5-16.2 21.5-12.3 0-16.2-8.1-16.2-21.5v-63.2h-41.5v66.4c0 36.4 23.6 52.8 57.7 52.8zm131.1-3v-57c0-18.3 5.5-27.3 18.5-27.3 11.8 0 15.3 8.1 15.3 23.4v60.9h41.6v-71.6c0-27.7-12.2-47.7-40-47.7-17.2 0-26.9 7.2-36.4 18.6h-0.4l0.7-15.5h-41v116.2zm155.4 2.8c14.5 0 26.6-6.3 36.1-17.9h0.4l-0.2 15.1h41v-189h-41.7v65.6c0 5.5 0.2 14.8 0.5 21.3h-0.3c-9.2-10.9-21.3-17.2-36.3-17.2-33.8 0-54.2 28.1-54.2 61.2 0 32.6 20.8 60.9 54.7 60.9zm12.2-34.1c-15.5 0-25.2-11.5-25.2-26.8 0-15.8 9.3-26.9 25-26.9 15.5 0 25.7 11.1 25.7 26.6 0 15.6-10.2 27.1-25.5 27.1zm145.7 34.3c15 0 25.5-6 36.6-17.1h0.2l-0.2 14.1h41v-116.2h-41l0.2 13.4h-0.2c-10.2-11.6-21.8-16.2-36.2-16.2-33.3 0-54.8 28.2-54.8 61.1 0 33.1 21 60.9 54.4 60.9zm12.3-34c-15.6 0-25.1-11.4-25.1-27.1 0-15.3 10-26.9 25.3-26.9 15.3 0 25.7 11.6 25.7 27.1 0 15.5-10.4 26.9-25.9 26.9zm155.6 34c11.3 0 22.9-3 30.5-7.2l1.2-38.4c-9 7.4-16.9 11.6-27.3 11.6-16.7 0-26.2-12.1-26.2-27.1 0-16 10.4-27.3 26.4-27.3 10.9 0 19 4.6 27.1 12.2v-38.9c-7.9-3.9-20.4-7.2-33.8-7.2-36.6 0-61.8 26.9-61.8 61.6 0 37.1 25.9 60.7 63.9 60.7zm78.5-141.5c12.9 0 24.3-8.1 24.3-22.4 0-13.2-10.7-22.3-24.3-22.3-13.7 0-24.3 9.3-24.3 22.3 0 14.3 11.3 22.4 24.3 22.4zm20.8 138.5v-116.2h-41.7v116.2zm132.7-164.6l-31.7-20.2-32.9 43.1 21.6 12.5zm-40.1 167.6c38.2 0 66.9-23.1 66.9-61.1 0-37.3-28.9-61.1-66.7-61.1-38 0-66.4 24.1-66.4 60.6 0 38.5 28.4 61.6 66.2 61.6zm0.2-34.2c-15.3 0-25-10.9-25-27.1 0-15.3 10-26.4 25-26.4 15.3 0 25.3 11.1 25.3 26.6 0 16-10 26.9-25.3 26.9zm134.8 31.2v-56.9c0-18.3 5.6-27.4 18.5-27.4 11.8 0 15.3 8.1 15.3 23.4v60.9h41.7v-71.5c0-27.8-12.3-47.7-40.1-47.7-17.1 0-26.8 7.2-36.3 18.5h-0.5l0.7-15.5h-41v116.2zm236.2 0v-135h37.8v-39.6h-119.3v39.6h37.7v135zm162.6-56c0-40.1-25.5-63.2-62.5-63.2-35.4 0-62.3 23.6-62.3 61.8 0 38.2 26.9 60.4 63.7 60.4 26.1 0 49.3-11.3 58.3-34.5l-37.7-6.4c-4.4 8.3-10.9 13.4-20.6 13.4-14.2 0-21.1-10.4-21.8-25.7h82.7c0.2-1.9 0.2-3.7 0.2-5.8zm-82-17.1c1.9-10.9 8.8-18.6 20.2-18.6 11.3 0 18.7 7.2 20.1 18.6zm150.1 73.1v-188.9h-41.7v188.9zm151.2-56c0-40.1-25.5-63.2-62.5-63.2-35.4 0-62.3 23.6-62.3 61.8 0 38.2 26.9 60.4 63.7 60.4 26.1 0 49.3-11.3 58.3-34.5l-37.7-6.4c-4.4 8.3-10.9 13.4-20.6 13.4-14.1 0-21.1-10.4-21.8-25.7h82.7c0.2-1.9 0.2-3.7 0.2-5.8zm-82-17.1c1.9-10.9 8.8-18.6 20.2-18.6 11.3 0 18.7 7.2 20.1 18.6zm155.4 73.1v-81h24.3v-35.2h-24.7v-19.5c0-14.3 6.2-20.3 15.7-20.3 4.4 0 7.9 0.9 11.1 2.5v-35.2c-5.8-1.4-13.6-2.5-22.7-2.5-28.7 0-45.4 15.5-45.4 50v25h-18.5v35.2h18.5v81zm142.7-164.6l-31.7-20.2-32.9 43.1 21.5 12.5zm-40.1 167.7c38.3 0 67-23.2 67-61.2 0-37.2-29-61.1-66.7-61.1-38 0-66.5 24.1-66.5 60.7 0 38.4 28.5 61.6 66.2 61.6zm0.3-34.3c-15.3 0-25-10.9-25-27.1 0-15.3 9.9-26.4 25-26.4 15.3 0 25.2 11.1 25.2 26.6 0 16-9.9 26.9-25.2 26.9zm134.8 31.3v-57c0-18.3 5.5-27.3 18.5-27.3 11.8 0 15.3 8.1 15.3 23.4v60.9h41.6v-71.6c0-27.8-12.2-47.7-40-47.7-17.2 0-26.9 7.2-36.4 18.5h-0.4l0.7-15.5h-41v116.3zm127.8-138.5c13 0 24.3-8.1 24.3-22.5 0-13.2-10.6-22.2-24.3-22.2-13.7 0-24.3 9.3-24.3 22.2 0 14.4 11.3 22.5 24.3 22.5zm20.8 138.5v-116.3h-41.6v116.3zm90.3 3c11.3 0 22.9-3 30.5-7.2l1.2-38.4c-9 7.4-16.9 11.5-27.3 11.5-16.7 0-26.2-12-26.2-27.1 0-15.9 10.4-27.3 26.4-27.3 10.9 0 19 4.6 27.1 12.3v-38.9c-7.9-4-20.4-7.2-33.8-7.2-36.6 0-61.8 26.9-61.8 61.6 0 37.1 25.9 60.7 63.9 60.7zm105.8 0c15 0 25.5-6.1 36.6-17.2h0.2l-0.2 14.2h41v-116.3h-41l0.2 13.4h-0.2c-10.2-11.5-21.8-16.2-36.1-16.2-33.4 0-54.9 28.3-54.9 61.2 0 33.1 21 60.9 54.4 60.9zm12.3-34.1c-15.6 0-25-11.3-25-27.1 0-15.2 9.9-26.8 25.2-26.8 15.3 0 25.7 11.6 25.7 27.1 0 15.5-10.4 26.8-25.9 26.8z"/>
			<path id="MADRID" class="s0" aria-label="MADRID"  d="m1682.9 1761l32.7-113.6 32.1 113.6h16l61.9-113.4 2.6 113.4h37.9l-9.6-192.1h-24l-69 126.4-36-126.4h-24.2l-59.6 192.1zm388.6 0l-58.1-192.1h-27l-107.6 192.1h42.1l22.2-41.5h76.6l11.3 41.5zm-96.9-100.9c6.7-12.7 13.3-25.5 19.7-38.2 3 12.7 6.3 25.5 9.6 38.2l7.4 27.8h-51.4zm175.3 100.9c63.1 0 107.7-33.7 114.6-89 8.4-67.5-33.6-103.1-98.8-103.1h-45.9l-23.4 192.1zm3.8-157h10.2c47.6 0 67.2 23.2 62.4 63-4.9 38.4-32.6 59.6-76.2 59.6h-11.5zm276.5 27c5.1-42.1-25.2-62.2-71.6-62.2h-42.3l-23.4 192.1h37.9l9.2-74.6 7.9-0.3 40 74.9h42.6l-46.9-78.7c27.7-8.9 43.8-26 46.6-51.2zm-70.3-29.1c23.2 0 34.6 8.4 32.6 27.6-2.1 18-17.1 26.7-40.5 26.7h-8.2l6.4-54.3zm137.1 159l23.4-192.1h-38l-23.4 192.1zm102.4 0c63.2 0 107.8-33.6 114.7-88.9 8.4-67.5-33.6-103.2-98.9-103.2h-45.8l-23.5 192.1zm3.9-156.9h10.1c47.7 0 67.3 23.2 62.5 62.9-4.9 38.5-32.6 59.6-76.2 59.6h-11.5z"/>
		</g>
		<path id="2" class="s0" d="m1580 1187v-222l225-225 225-225v-212c0-117-3-213-8-213-4 0-102 94-217 210-115 116-213 210-217 210-5 0-8-97-8-215v-215h445 445v223 222l-220 220-220 220v220 220l220-220 220-220v223 222h-445-445z"/>
		<path id="4" class="s0" d="m948 1548l-3-223-440-2-440-2-3-178-2-178 443-443 442-442 217 2 217 3-436 437-435 438h441 441v405 405h-220-220z"/>
	</g>
</svg>
