<svg version="1.2" xmlns="http://www.w3.org/2000/svg" viewBox="0 0 4173 2278">
	<title>42_logos</title>
	<style>
		.s0 { fill: {{ color }} } 
	</style>
	<g id="Layer">
		<g id="Mulhouse">
			<path id="path9285" class="s0" d="m1592 1489h35.3v443.9h-35.3z"/>
			<path id="path9287" class="s0" d="m1806.4 1829.5l66.8-234.6h45.4l40.4 140 75.7-140h46.6l7.6 234.6h-54.2l-1.3-140-74.4 140h-21.4l-40.4-140-36.6 140z"/>
			<path id="path9289" class="s0" d="m2211.2 1594.9l-15.1 128.7c-1.3 7.5-1.3 10.1-1.3 20.2 0 10 1.3 21.4 10.1 30.2 6.3 6.3 16.4 10.1 31.6 10.1 17.6 0 29-5 34-11.3 11.4-11.4 13.9-31.6 16.4-45.4l16.4-133.7h54.2l-17.6 137.4c-3.8 27.8-6.3 56.8-27.8 78.2-23.9 24-58 25.3-76.9 25.3-22.7 0-53-2.6-74.4-24-15.1-13.9-20.2-32.8-20.2-54.2 0-10.1 1.3-27.8 2.5-36.6l15.2-124.9z"/>
			<path id="path9292" class="s0" d="m2462.2 1594.9l-22.7 189.2h73.2l-5.1 45.4h-128.6l29-234.6z"/>
			<path id="path9296" class="s0" d="m2609.8 1683.2h93.3l11.4-88.3h54.2l-29 234.6h-54.2l12.6-100.9h-93.4l-12.6 100.9h-54.2l29-234.6h54.2z"/>
			<path id="path9300" fill-rule="evenodd" class="s0" d="m3018.4 1620.2c20.2 18.9 32.8 49.1 32.8 83.2 0 34.1-11.4 69.4-36.6 95.9-30.2 30.2-66.8 36.5-97.1 36.5-29 0-61.8-5-89.5-34-16.4-16.4-32.8-44.2-32.8-82 0-41.6 16.4-73.2 39.1-94.6 30.2-29 66.8-35.3 97.1-35.3 44.1 0 71.9 15.1 87 30.3zm-146.3 41.6c-13.9 13.9-21.4 34-21.4 54.2 0 21.5 7.5 37.8 18.9 49.2 16.4 16.4 35.3 20.2 51.7 20.2 16.4 0 35.3-2.5 53-20.2 12.6-12.6 21.4-34.1 21.4-58 0-15.1-3.8-34.1-18.9-49.2-15.1-15.1-34.1-18.9-49.2-18.9-22.7 0-41.6 7.5-55.5 22.7z"/>
			<path id="path9304" class="s0" d="m3160.9 1594.9l-15.1 128.7c-1.3 7.5-1.3 10.1-1.3 20.2 0 10 1.3 21.4 10.1 30.2 6.3 6.3 16.4 10.1 31.5 10.1 17.7 0 29-5 34.1-11.3 11.3-11.4 13.9-31.6 16.4-45.4l16.4-133.7h54.2l-18.9 137.4c-3.8 27.8-6.3 56.8-27.7 78.2-24 24-58.1 25.3-77 25.3-22.7 0-53-2.6-74.4-24-15.1-13.9-20.2-32.8-20.2-54.2 0-10.1 1.3-27.8 2.6-36.6l15.1-124.9z"/>
			<path id="path9308" class="s0" d="m3471.2 1651.7c-15.2-13.9-29-16.4-39.1-16.4-6.3 0-16.4 1.3-22.7 6.3-5.1 3.8-7.6 10.1-7.6 16.4 0 7.6 3.8 12.6 7.6 16.4 5 3.8 11.3 7.6 22.7 12.6l13.8 6.3c11.4 5.1 21.5 11.4 31.6 22.7 8.8 10.1 12.6 21.5 12.6 36.6 0 25.2-10.1 46.7-24 60.5-18.9 18.9-42.9 22.7-66.8 22.7-17.7 0-31.5-2.5-46.7-10.1-11.3-6.3-22.7-16.4-31.5-25.2l30.3-39.1c5 6.3 12.6 13.9 20.1 18.9 7.6 5.1 17.7 7.6 27.8 7.6 7.5 0 18.9-2.5 26.5-7.6 6.3-5 10.1-12.6 10.1-21.4 0-8.8-3.8-13.9-6.3-16.4-1.3-1.3-6.4-5-19-10.1l-13.8-5c-3.8-1.3-21.5-8.9-32.8-21.5-11.4-11.3-15.2-25.2-15.2-40.3 0-24 10.1-41.7 21.5-53 18.9-18.9 42.9-22.7 63-22.7 20.2 0 42.9 3.8 68.1 22.7z"/>
			<path id="path9312" class="s0" d="m3675.5 1640.3h-76.9l-6.4 45.4h74.5l-5.1 46.7h-74.4l-6.3 51.7h78.2l-6.3 45.4h-131.2l29-234.6h129.9z"/>
			<path id="path9316" class="s0" d="m1928.7 2066.6h121.1c0 46.7-10.1 79.5-37.8 106-25.2 22.7-53 30.2-83.3 30.2-42.8 0-71.9-15.1-90.8-35.3-17.6-17.6-34-46.6-34-84.5 0-37.8 15.1-68.1 35.3-88.3 18.9-18.9 49.2-34 90.8-34 21.4 0 45.4 5 63.1 16.4 18.9 11.3 34 30.2 41.6 47.9l-58 24c-3.8-11.4-11.4-19-16.4-24-10.1-8.8-21.5-11.3-32.8-11.3-13.9 0-29 5-40.4 16.3-13.9 13.9-20.2 35.4-20.2 54.3 0 21.4 7.6 39.1 19 50.4 11.3 12.6 25.2 17.7 42.8 17.7 10.1 0 22.7-1.3 34.1-11.4 5-5 12.6-12.6 13.9-26.5h-50.5v-47.9z"/>
			<path id="path9320" class="s0" d="m2083.9 2042.7h56.7v25.2c5.1-10.1 13.9-17.7 22.7-21.5 8.8-5 18.9-6.3 29-6.3 1.3 0 3.8 0 11.4 1.3v53c-2.5-1.3-10.1-5.1-24-5.1-7.6 0-17.6 1.3-25.2 8.9-12.6 11.3-12.6 27.7-12.6 36.5v66.9h-56.8v-158.9z"/>
			<path id="path9324" fill-rule="evenodd" class="s0" d="m2350 2042.7h56.7v157.6h-56.7v-17.6c-12.6 17.6-34.1 22.7-49.2 22.7-16.4 0-37.8-5.1-56.8-25.3-15.1-16.4-22.7-34-22.7-58 0-30.3 11.4-50.4 24-63 13.9-13.9 34-22.7 56.7-22.7 25.3 0 40.4 12.6 48 20.1zm-59.3 53c-7.6 7.6-11.4 17.7-11.4 25.2 0 8.9 3.8 18.9 11.4 25.3 6.3 5 16.4 10 25.2 10 8.9 0 18.9-3.7 25.2-11.3 5.1-5.1 10.1-12.6 10.1-25.2 0-7.6-2.5-17.7-11.3-25.3-5.1-5-13.9-10-25.2-10-6.3 1.2-15.2 3.7-24 11.3z"/>
			<path id="path9328" class="s0" d="m2445.8 2042.7h56.8v20.1c15.1-20.1 36.6-22.7 50.4-22.7 16.4 0 34.1 3.8 46.7 16.4 13.9 13.9 15.1 26.5 15.1 44.2v99.6h-56.7v-79.4c0-8.9 0-22.7-7.6-30.3-5-5.1-12.6-6.3-17.7-6.3-8.8 0-16.3 3.8-21.4 7.5-5 5.1-8.8 15.2-8.8 25.3v84.5h-56.8z"/>
			<path id="path9332" fill-rule="evenodd" class="s0" d="m2773.7 2200.3v-17.6c-16.4 20.1-36.5 22.7-47.9 22.7-22.7 0-40.3-7.6-55.5-21.5-16.4-15.1-25.2-37.8-25.2-63 0-26.5 11.3-49.2 25.2-63.1 15.2-15.1 36.6-21.4 55.5-21.4 21.4 0 36.6 10 46.7 20.1v-114.7h56.7v258.5zm-10.1-51.7c7.6-6.3 12.6-17.7 12.6-26.5 0-8.8-5-18.9-10-25.2-6.3-6.3-15.2-10.1-25.3-10.1-12.6 0-20.1 5-25.2 10.1-6.3 6.3-11.3 16.4-11.3 26.5 0 7.5 3.7 17.6 11.3 25.2 7.6 7.6 16.4 10.1 25.2 10.1 7.6-1.3 17.7-5.1 22.7-10.1z"/>
			<path id="path9336" class="s0" d="m3090.3 2017.4h-71.9v39.1h68.1v51.7h-68.1v40.4h71.9v51.7h-133.7v-234.6h133.7z"/>
			<path id="path9340" class="s0" d="m3134.4 2148.6c6.3 5 15.2 8.8 22.7 11.4 7.6 2.5 16.4 3.7 21.5 3.7 3.8 0 11.3-1.2 13.8-3.7 2.6-2.6 2.6-5.1 2.6-7.6 0-2.5 0-5.1-2.6-7.6-3.7-3.8-8.8-3.8-15.1-5l-15.1-3.8c-7.6-1.3-18.9-5.1-27.8-13.9-6.3-6.3-10.1-15.1-10.1-27.7 0-15.2 6.3-29 15.2-39.1 12.6-12.6 32.8-18.9 56.7-18.9 22.7 0 41.7 6.3 50.5 10l-18.9 36.6c-7.6-3.8-19-7.5-30.3-7.5-5.1 0-10.1 1.2-12.6 3.7-3.8 1.3-5.1 3.8-5.1 7.6 0 5 3.8 7.6 6.3 8.8 5.1 2.6 10.1 2.6 19 5.1l10 2.5c7.6 2.5 19 7.6 22.8 12.6 7.5 7.6 12.6 20.2 12.6 31.5 0 19-7.6 31.6-16.4 39.1-19 19-45.4 20.2-58 20.2-13.9 0-36.6-1.2-63.1-18.9z"/>
			<path id="path9344" class="s0" d="m3343.8 2089.3v111h-56.8v-111h-17.6v-46.6h17.6v-51.7h56.8v51.7h31.5v46.6z"/>
		</g>
		<path id="2" class="s0" d="m1580 1187v-222l225-225 225-225v-212c0-117-3-213-8-213-4 0-102 94-217 210-115 116-213 210-217 210-5 0-8-97-8-215v-215h445 445v223 222l-220 220-220 220v220 220l220-220 220-220v223 222h-445-445z"/>
		<path id="4" class="s0" d="m948 1548l-3-223-440-2-440-2-3-178-2-178 443-443 442-442 217 2 217 3-436 437-435 438h441 441v405 405h-220-220z"/>
	</g>
</svg>
