<svg version="1.2" xmlns="http://www.w3.org/2000/svg" viewBox="0 0 4173 2278">
	<title>42_logos</title>
	<style>
		.s0 { fill: {{ color }} } 
	</style>
	<g id="Layer">
		<g id="Paris">
			<path id="pzXaXxJs5" class="s0" d="m2138 1838.2v-284.2h20.7 20.7v284.2 284.2h-20.7-20.7z"/>
			<path id="pbkBRt4mi" class="s0" d="m3408 1974.4c-9.5-3-26.7-13.1-37.3-21.9l-20.2-16.6 17.2-21.3 16.6-20.8 20.1 13.7c37.9 25.4 89.4 13 89.4-21.4 0-20.1-7.1-26.6-55.1-50.3-26.6-13.6-39.6-23.7-47.3-39.1-19-36.7-5.9-79.3 33.1-108.9 22.5-16.6 79.4-20.1 113.7-6.5 29.6 11.2 32.6 19.5 14.8 44.4-11.2 16-13 16.6-28.4 8.3-8.9-4.2-26.1-8.3-37.9-8.3-17.2 0-24.3 3.5-32.6 15.4-13.6 21.3-7.1 29.6 45 58.6 23.7 13 46.8 30.2 51 38.5 21.3 37.9 2.3 101.2-36.8 124.9-22.5 14.2-78.1 20.1-105.3 11.3z"/>
			<path id="p24CZJK7V" fill-rule="evenodd" class="s0" d="m2410.9 1955.4c0-10.6 7.1-77 16-146.8l16-127.3 71.6-1.8c66.4-1.2 72.9-0.6 91.8 12.4 11.3 7.2 23.7 21.4 28.4 30.8 11.9 24.9 10.1 69.3-3.5 95.9-16.6 32-41.5 44.5-98.3 48.6l-48.5 3.6-11.9 100.6-30.8 1.8-31.4 1.8zm153.4-152.8c7.7-7.7 11.8-19.5 11.8-35.5 0-27.8-10.6-35.5-49.7-35.5-24.9 0-27.2 1.1-27.2 14.2 0 7.7-1.8 26-3.6 41.4l-4.1 27.2h30.8c22.5 0 33.1-2.9 42-11.8z"/>
			<path id="p2jVI11wO" fill-rule="evenodd" class="s0" d="m2643 1914c17.8-33.8 52.7-100.1 77.6-148l46.2-87.7h62.1l37.3 140.9c20.8 77 38.5 143.9 40.3 148.1 1.8 5.3-6.5 7.1-30.8 7.1h-32.6l-8.2-27.9-8.3-28.4-59.2-1.8-58.7-1.7-14.2 30.2-13.6 29.6h-70.4zm169.9-51.5c0-8.3-22.5-102.5-25.5-104.8-2.3-2.4-51.5 98.2-51.5 105.9 0 2.4 17.2 4.2 38.5 4.2 21.3 0 38.5-2.4 38.5-5.3z"/>
			<path id="pNXOyUL3s" fill-rule="evenodd" class="s0" d="m2949.7 1955.4c0-10.6 7.1-77 16-146.8l16-127.3 65.1-1.8c75.2-1.8 98.3 6.5 116.6 40.9 11.9 22.5 14.3 58.6 4.2 78.1-8.9 17.8-35.5 45.6-43.2 45.6-3.6 0-10.1 2.4-14.8 5.3-7.1 4.8-1.2 16.6 27.8 62.8 20.1 31.4 36.7 58 36.7 59.8 0 1.8-16.6 2.4-36.7 1.2l-36.1-1.8-35.5-58c-19.6-31.4-36.8-56.3-38.5-54.5-2.4 1.8-6.5 27.8-10.1 58l-5.9 54.5-30.8 1.8-31.4 1.8zm148.6-158.7c25.5-31.4 4.8-71.1-36.7-71.1-20.7 0-23.7 1.8-23.7 13.7 0 7.1-1.7 27.2-4.1 44.9l-3.6 32 29-3.5c19.6-1.8 32-7.1 39.1-16z"/>
			<path id="ppcXYPbBL" class="s0" d="m3223.8 1961.3c1.8-7.7 10.1-74 19-148l16-135h31.9c17.2 0 31.4 3 31.4 6 0 8.8-29 248-32.5 271.1-3.6 19-4.2 19-36.2 19-30.2 0-31.9-0.6-29.6-13.1z"/>
			<path id="2 copy" class="s0" d="m2128 1262v-222l225-225 225-225v-212c0-117-3-213-8-213-4 0-102 94-217 210-115 116-213 210-217 210-5 0-8-97-8-215v-215h445 445v223 222l-220 220-220 220v220 220l220-220 220-220v223 222h-445-445z"/>
			<path id="4 copy" class="s0" d="m1496 1623l-3-223-440-2-440-2-3-178-2-178 443-443 442-442 217 2 217 3-436 437-435 438h441 441v405 405h-220-220z"/>
		</g>
	</g>
</svg>
