<svg version="1.2" xmlns="http://www.w3.org/2000/svg" viewBox="0 0 4173 2278">
	<title>42_logos</title>
	<style>
		.s0 { fill: {{ color }} } 
	</style>
	<g id="Layer">
		<g id="Perpignan">
			<path id="pzXaXxJs5 copy 5" class="s0" d="m1585 1715.1v-256.1h18.7 18.7v256.1 256.2h-18.7-18.7z"/>
			<path id="Luiss" class="s0" aria-label="Occitanie"  d="m1964.9 2241.2c71.7 0 131-51.5 131-125.2 0-72.8-58.9-125.9-130.1-125.9-71.4 0-130.7 53.4-130.7 125.2 0 75.3 59.6 125.9 129.8 125.9zm0-55.1c-37.1 0-68.3-28.9-68.3-70.4 0-39.3 30-70.5 68.9-70.5 39.6 0 68.9 30.9 68.9 70.8 0 40.2-30 70.1-69.5 70.1zm250.4 55.1c15.8 0 31.8-4.2 42.5-10l1.6-53.4c-12.6 10.3-23.5 16.1-38 16.1-23.2 0-36.4-16.8-36.4-37.7 0-22.2 14.5-38 36.7-38 15.1 0 26.4 6.5 37.7 17.1v-54.1c-11-5.5-28.3-10-47-10-50.9 0-86 37.4-86 85.7 0 51.5 36.1 84.3 88.9 84.3zm160.3 0c15.7 0 31.8-4.2 42.5-10l1.6-53.4c-12.6 10.3-23.5 16.1-38 16.1-23.2 0-36.4-16.8-36.4-37.7 0-22.2 14.5-38 36.7-38 15.1 0 26.4 6.5 37.7 17.1v-54.1c-11-5.5-28.4-10-47-10-50.9 0-86 37.4-86 85.7 0 51.5 36.1 84.3 88.9 84.3zm109.1-196.7c18 0 33.8-11.3 33.8-31.2 0-18.4-14.8-30.9-33.8-30.9-19 0-33.8 12.9-33.8 30.9 0 19.9 15.8 31.2 33.8 31.2zm29 192.5v-161.6h-58v161.6zm111.4 0v-112.7h28v-48.9h-28v-55.7h-57.9v55.7h-26.1v48.9h26.1v112.7zm119.1 4.2c20.9 0 35.4-8.4 50.8-23.8h0.3l-0.3 19.6h57v-161.6h-57l0.3 18.7h-0.3c-14.2-16.1-30.2-22.5-50.2-22.5-46.4 0-76.3 39.2-76.3 84.9 0 46.1 29.3 84.7 75.7 84.7zm17-47.3c-21.6 0-34.7-15.8-34.7-37.7 0-21.2 13.8-37.3 35-37.3 21.3 0 35.8 16.1 35.8 37.6 0 21.6-14.5 37.4-36.1 37.4zm194.4 43.1v-79.2c0-25.4 7.8-38 25.8-38 16.4 0 21.2 11.3 21.2 32.5v84.7h58v-99.5c0-38.6-17.1-66.3-55.7-66.3-23.8 0-37.4 10-50.6 25.8h-0.6l1-21.6h-57v161.6zm177.7-192.5c18 0 33.8-11.3 33.8-31.2 0-18.4-14.8-30.9-33.8-30.9-19 0-33.8 12.9-33.8 30.9 0 19.9 15.7 31.2 33.8 31.2zm28.9 192.5v-161.6h-57.9v161.6zm210.2-77.9c0-55.7-35.4-87.9-86.9-87.9-49.3 0-86.6 32.9-86.6 86 0 53.1 37.3 84 88.5 84 36.4 0 68.6-15.8 81.1-48l-52.4-9c-6.2 11.6-15.2 18.7-28.7 18.7-19.6 0-29.3-14.5-30.2-35.7h114.9c0.3-2.6 0.3-5.2 0.3-8.1zm-114-23.8c2.6-15.1 12.3-25.8 28-25.8 15.8 0 26.1 10 28.1 25.8z"/>
			<path id="Roma" class="s0" aria-label="PERPIGNAN"  d="m1902.8 1851l12.6-102.7h21.7c56.9 0 100.2-26.7 106.7-79.7 7.6-61.7-36.8-89.4-100.6-89.4h-60.9l-33.2 271.8zm27.4-225.3h13.7c33.5 0 50.5 14.4 47.2 40.4-3.6 25.5-22.3 36-55.1 36h-14.8zm296.7 225.3l5.8-46.8h-104.6l9.4-76.5h99.9l5.7-46.1h-99.8l6.4-55.5h104.2l5.4-46.9h-157.5l-33.2 271.8zm256.7-183.8c7.2-59.5-35.7-88-101.3-88h-59.8l-33.2 271.8h53.7l13-105.6 11.2-0.4 56.6 106h60.2l-66.4-111.4c39.3-12.6 62.1-36.7 66-72.4zm-99.5-41.1c32.8 0 49 11.9 46.2 38.9-2.9 25.6-24.2 37.9-57.4 37.9h-11.5l9-76.8zm194 224.9l12.6-102.7h21.6c57 0 100.3-26.7 106.7-79.7 7.6-61.6-36.7-89.4-100.5-89.4h-61l-33.1 271.8zm27.4-225.3h13.7c33.5 0 50.4 14.4 47.2 40.4-3.6 25.6-22.4 36-55.2 36h-14.8zm192.2 225.4l33.2-271.9h-53.7l-33.2 271.9zm221.7-101.3h62c-5.8 34.6-34.2 58.4-76.8 58.4-45.8 0-83.3-35.4-79.6-91.6 3.2-52.6 43.9-93 95.5-93 28.8 0 51.9 12.2 69.6 35.7l45.8-28.9c-26.4-36.8-66.4-56.2-113.6-56.2-79.7 0-147.1 59.1-152.1 141.3-5.1 82.2 52.6 140.6 131.9 140.6 80.8 0 134.5-52.3 141-136.6l1-14.8h-121.8zm368.8 11.9l-135.9-182.4h-36.8l-33.2 271.8h53.4l21.6-182.8 135.2 182.8h36.8l33.2-271.8h-53.4zm349 89.4l-82.2-271.9h-38.2l-152.2 271.9h59.5l31.4-58.8h108.5l15.9 58.8zm-137-142.8c9.4-18 18.7-36 27.7-54.1 4.4 18.1 9.1 36.1 13.7 54.1l10.5 39.3h-72.8zm378.2 53.4l-136-182.5h-36.7l-33.2 271.9h53.4l21.6-182.8 135.2 182.8h36.8l33.1-271.9h-53.3z"/>
		</g>
		<g id="42">
			<path id="2" class="s0" d="m1580 1187v-222l225-225 225-225v-212c0-117-3-213-8-213-4 0-102 94-217 210-115 116-213 210-217 210-5 0-8-97-8-215v-215h445 445v223 222l-220 220-220 220v220 220l220-220 220-220v223 222h-445-445z"/>
			<path id="4" class="s0" d="m948 1548l-3-223-440-2-440-2-3-178-2-178 443-443 442-442 217 2 217 3-436 437-435 438h441 441v405 405h-220-220z"/>
		</g>
	</g>
</svg>
