<svg version="1.2" xmlns="http://www.w3.org/2000/svg" viewBox="0 0 4173 2278">
	<title>42_logos</title>
	<style>
		.s0 { fill: {{ color }} } 
	</style>
	<g id="Layer">
		<g id="Porto">
			<path id="Layer" class="s0" d="m1587 1798.2v274.2l24.7-3.2 23.7-3.3 3.2-272 2.2-270.9h-26.9-26.9z"/>
			<path id="Layer" fill-rule="evenodd" class="s0" d="m2345 1645.6c95.6 40.8 97.8 206.4 2.1 264.4-46.2 29.1-130.1 28-177.4 0-94.6-58-79.5-219.3 23.7-264.4 44-18.3 105.3-18.3 151.6 0zm-166.7 140.8c0 49.5 31.2 80.6 79.6 80.6 78.5 0 121.5-90.3 67.7-144-57-57-147.3-18.3-147.3 63.4z"/>
			<path id="Layer" fill-rule="evenodd" class="s0" d="m3195.4 1838c-23.7 55.9-63.5 84.9-123.7 91.4-69.9 6.4-98.9-2.2-133.3-36.6-75.2-75.2-48.4-202.1 51.6-247.2 134.4-59.2 262.3 60.2 205.4 192.4zm-201.1-111.8c-38.7 38.7-39.8 78.5-4.3 114 36.6 37.6 92.5 36.5 122.6-1.1 29-36.6 29-94.6 1.1-122.6-32.3-32.2-81.7-27.9-119.4 9.7z"/>
			<path id="Layer" fill-rule="evenodd" class="s0" d="m1879.4 1641.3h78.5c93.5 0 118.3 18.2 118.3 88.1 0 57-40.9 94.6-102.2 94.6-45.1 0-48.3 4.3-55.9 75.3-2.1 21.5-9.6 27.9-39.7 30.1l-36.6 3.2 6.5-40.8c3.2-22.6 11.8-88.2 19.3-146.3zm62.4 74.2c0 11.9-3.3 28-6.5 37.7-5.4 12.9 0 17.2 21.5 17.2 34.4 0 57-36.6 37.6-60.2-18.2-22.6-52.6-19.4-52.6 5.3z"/>
			<path id="Layer" fill-rule="evenodd" class="s0" d="m2482.6 1641.3h74.2c59.1 0 77.4 4.3 94.6 21.5 33.3 33.3 29 92.4-8.6 127.9l-31.2 28 30.1 48.3c17.2 26.9 31.2 51.6 31.2 55.9 0 5.4-17.2 8.6-37.7 8.6-32.2 0-39.7-5.3-65.5-48.3-15.1-26.9-31.2-46.3-34.5-44.1-3.2 3.2-8.6 24.7-11.8 46.2-5.4 32.3-11.8 41.9-32.2 44.1-14 2.1-29.1 0-33.4-5.4-5.3-4.3-1-69.9 7.6-146.2zm82.7 53.8c-17.2 0-21.5 6.4-21.5 38.7 0 30.1 4.3 37.6 17.2 34.4 24.8-4.3 42-34.4 33.4-55.9-4.3-9.7-17.2-17.2-29.1-17.2z"/>
			<path id="Layer" class="s0" d="m2700.8 1658.5c-11.8 30.1-7.5 36.5 25.8 36.5 18.3 0 32.3 3.2 32.3 7.5-1.1 5.4-7.6 55.9-15.1 114-7.5 57-10.7 106.4-8.6 109.7 9.7 9.6 54.9 5.3 61.3-5.4 4.3-6.5 11.8-59.1 18.3-118.3l11.8-106.4 33.3-3.2c24.8-2.2 34.4-9.7 36.6-28 3.2-22.6 1.1-23.6-92.5-23.6-78.5 0-97.8 3.2-103.2 17.2z"/>
		</g>
		<path id="2" class="s0" d="m1580 1187v-222l225-225 225-225v-212c0-117-3-213-8-213-4 0-102 94-217 210-115 116-213 210-217 210-5 0-8-97-8-215v-215h445 445v223 222l-220 220-220 220v220 220l220-220 220-220v223 222h-445-445z"/>
		<path id="4" class="s0" d="m948 1548l-3-223-440-2-440-2-3-178-2-178 443-443 442-442 217 2 217 3-436 437-435 438h441 441v405 405h-220-220z"/>
	</g>
</svg>
