<svg version="1.2" xmlns="http://www.w3.org/2000/svg" viewBox="0 0 4173 2278">
	<title>42_logos</title>
	<style>
		.s0 { fill: {{ color }} } 
	</style>
	<g id="Layer">
		<g id="Sao paulo">
			<path id="pzXaXxJs5 copy 2" class="s0" d="m1586 1742.3v-227.3h16.6 16.6v227.3 227.3h-16.6-16.6z"/>
			<path id="Sao paulo" class="s0" aria-label="SÃO PAULO"  d="m1895.3 1867.5c44.7 0 78.3-26.9 82.8-68.5 4.2-40.3-15.3-64-55-80.6-30.7-13.5-39-23.4-37.8-37.8 1.3-12.4 12.2-21.7 30.1-21.7 17.6 0 31.7 7.7 41.6 20.8l32-28.2c-15.4-21.1-41-34.2-74.6-34.2-43.8 0-74.5 24.6-78 61.7-3.9 37.8 18.2 58.3 56.6 74.9 31.4 14.1 38.4 25.3 36.2 43.5-1.6 17-13.8 28.5-33.9 28.5-20.5 0-38.4-9.6-50.3-33.3l-32.9 25c11.8 28.1 38.4 49.9 83.2 49.9zm228.4-281.9c11.8 0 34.6 16.6 50.2 16.6 19.2 0 33.3-13.4 43.9-33.6l-22.8-17.2c-6.4 10.2-12.8 17.2-19.5 17.2-11.5 0-33.6-17.6-49.2-17.6-18 0-29.5 10.3-43.6 32.4l22.4 18.5c5.8-9.9 11.9-16.3 18.6-16.3zm108.8 277.4l-73-241.2h-33.9l-135 241.2h52.8l27.8-52.2h96.3l14.1 52.2zm-121.6-126.7c8.3-16 16.7-32 24.7-48 3.8 16 8 32 12.1 48l9.3 34.9h-64.6zm266.5 131.2c72.6 0 130.2-53.8 134.4-124.2 4.8-73.3-49.3-126-121-126-72.3 0-130.2 54.7-134.4 124.1-4.4 75.8 51.2 126.1 121 126.1zm0.3-44.5c-40.9 0-75.5-31.7-72.6-80.6 2.5-44.8 38.1-80.7 85.4-80.7 43.5 0 75.5 33.9 72.6 80.3-2.8 45.8-37.1 81-85.4 81zm312.6 40l11.2-91.2h19.2c50.5 0 88.9-23.7 94.7-70.7 6.7-54.7-32.6-79.4-89.3-79.4h-54l-29.5 241.3zm24.3-200h12.2c29.8 0 44.8 12.8 41.9 35.8-3.2 22.8-19.8 32-48.9 32h-13.2zm315.5 200l-72.9-241.2h-33.9l-135.1 241.2h52.8l27.9-52.1h96.3l14 52.1zm-121.5-126.7c8.3-16 16.6-32 24.6-48 3.8 16 8 32 12.2 48l9.2 34.9h-64.6zm245.7 131.2c55.1 0 95.1-30.1 102.7-93.5l18.6-152.3h-48.3l-17.9 146.3c-4.8 40.3-23.7 55.3-51.9 55.3-26.2 0-45.4-14.7-40.3-55.7l17.9-145.9h-48.6l-17.6 145c-8.3 69.4 29.8 100.8 85.4 100.8zm269.4-4.5l5.5-44.5h-71.7l24-196.8h-47.7l-29.4 241.3zm151 4.5c72.6 0 130.2-53.8 134.4-124.2 4.8-73.3-49.3-126-121-126-72.3 0-130.2 54.7-134.3 124.1-4.5 75.8 51.2 126.1 120.9 126.1zm0.3-44.5c-40.9 0-75.5-31.7-72.6-80.6 2.6-44.8 38.1-80.7 85.4-80.7 43.5 0 75.5 33.9 72.6 80.3-2.8 45.8-37.1 81-85.4 81z"/>
		</g>
		<g id="42">
			<path id="2" class="s0" d="m1580 1187v-222l225-225 225-225v-212c0-117-3-213-8-213-4 0-102 94-217 210-115 116-213 210-217 210-5 0-8-97-8-215v-215h445 445v223 222l-220 220-220 220v220 220l220-220 220-220v223 222h-445-445z"/>
			<path id="4" class="s0" d="m948 1548l-3-223-440-2-440-2-3-178-2-178 443-443 442-442 217 2 217 3-436 437-435 438h441 441v405 405h-220-220z"/>
		</g>
	</g>
</svg>
