<svg version="1.2" xmlns="http://www.w3.org/2000/svg" viewBox="0 0 4173 2278">
	<title>42_logos</title>
	<style>
		.s0 { fill: {{ color }} } 
	</style>
	<g id="Layer">
		<g id="Wolfsburg">
			<path id="p1BwndTYpv" class="s0" d="m1601.9 1949.5c-13.4-5.6-12.9 3.8-12.9-217.9 0-112.4 1-205.6 1.9-207.3 3.4-5.5 19.7-11.3 24.7-8.6 12.5 6.7 12-2.4 12 214 0 175.2-0.5 201.8-3.6 209.5-5.3 12.7-10.3 15.1-22.1 10.3z"/>
			<path id="Wolfsburg" class="s0" aria-label="WOLFSBURG"  d="m1892.1 1835l66.7-142 31 142h24.8l120.5-228.8h-49.5l-74 149.3-32.5-149.3h-20.3l-70.4 149.3-34.2-149.3h-48l61 228.8zm358.6 4.2c68.9 0 123.5-50.9 127.4-117.7 4.6-69.4-46.7-119.5-114.7-119.5-68.5 0-123.4 51.9-127.4 117.7-4.2 71.9 48.6 119.5 114.7 119.5zm0.3-42.1c-38.8 0-71.6-30.1-68.9-76.5 2.5-42.5 36.1-76.4 81-76.4 41.3 0 71.6 32.1 68.9 76.1-2.7 43.4-35.2 76.8-81 76.8zm273.4 37.9l5.1-42.2h-67.9l22.7-186.6h-45.2l-27.9 228.8zm79.5 0l12.4-101.9h74.4l4.5-39.2h-74l5.7-47.3h78.3l4.9-40.4h-123.5l-27.9 228.8zm196 4.2c42.4 0 74.3-25.4 78.5-64.9 4-38.2-14.5-60.7-52.1-76.4-29.2-12.8-37-22.2-35.8-35.8 1.2-11.9 11.5-20.7 28.5-20.7 16.7 0 30 7.3 39.4 19.8l30.4-26.7c-14.6-20.1-38.9-32.5-70.7-32.5-41.6 0-70.7 23.4-74.1 58.6-3.6 35.8 17.3 55.2 53.7 70.9 29.8 13.4 36.5 24 34.3 41.3-1.5 16.1-13 27-32.1 27-19.4 0-36.4-9.1-47.7-31.5l-31.2 23.6c11.2 26.7 36.4 47.3 78.9 47.3zm188.1-4.2c45.8 0 85.8-15.8 91-60.4 3.3-27-10.3-50.3-37-58.8v-0.3c16.4-7.3 27.9-23.7 30-43.1 5.2-44.3-26.7-66.2-77.7-66.2h-47.6l-27.9 228.8zm-1.2-191.4h10.6c21.8 0 33.7 11.2 31 30-2.5 18.8-14.6 28.5-36.2 28.5h-13zm-11.8 91.9h18.8c32.4 0 44 14 41.8 33.1-2.1 17.9-17.2 28.8-46.1 28.8h-21.5zm231.2 103.8c52.2 0 90.1-28.5 97.4-88.6l17.6-144.4h-45.9l-16.9 138.6c-4.6 38.3-22.5 52.5-49.2 52.5-24.9 0-43.1-13.9-38.2-52.8l17-138.3h-46.1l-16.7 137.4c-7.9 65.9 28.2 95.6 81 95.6zm305.8-159c6.1-50-30-74-85.3-74h-50.3l-27.9 228.7h45.2l10.9-88.8 9.4-0.4 47.6 89.2h50.7l-55.8-93.7c33-10.6 52.2-30.9 55.5-61zm-83.7-34.6c27.6 0 41.2 10 38.8 32.8-2.4 21.5-20.3 31.9-48.2 31.9h-9.8l7.6-64.7zm244 104.1h52.1c-4.8 29.1-28.8 49.1-64.6 49.1-38.5 0-70.1-29.7-67-77 2.7-44.3 37-78.3 80.4-78.3 24.2 0 43.7 10.3 58.5 30l38.5-24.2c-22.1-31-55.8-47.4-95.5-47.4-67.1 0-123.8 49.8-128 119-4.3 69.1 44.2 118.3 111 118.3 68 0 113.2-44 118.6-115l0.9-12.4h-102.5z"/>
		</g>
		<g id="42">
			<path id="2" class="s0" d="m1580 1187v-222l225-225 225-225v-212c0-117-3-213-8-213-4 0-102 94-217 210-115 116-213 210-217 210-5 0-8-97-8-215v-215h445 445v223 222l-220 220-220 220v220 220l220-220 220-220v223 222h-445-445z"/>
			<path id="4" class="s0" d="m948 1548l-3-223-440-2-440-2-3-178-2-178 443-443 442-442 217 2 217 3-436 437-435 438h441 441v405 405h-220-220z"/>
		</g>
	</g>
</svg>
