<svg version="1.2" xmlns="http://www.w3.org/2000/svg" viewBox="0 0 4173 2278" width="469" height="256">
	<title>42_logos</title>
	<style>
		.s0 { fill: #000000 } 
	</style>
	<g id="Layer">
		<g id="Yerevan">
			<path id="pzXaXxJs5 copy 2" class="s0" d="m1586 1756.2v-241.2h17.6 17.6v241.2 241.3h-17.6-17.6z"/>
			<path id="Yerevan" class="s0" aria-label="YEREVAN"  d="m1936.6 1884l13.6-110.7 102.5-145.3h-59.4l-63.1 96.1-40.5-96.1h-57.7l67.3 145.3-13.6 110.7zm264.8 0l5.5-44.1h-98.5l8.8-72h94.1l5.4-43.5h-94.1l6.2-52.3h98.1l5.1-44.1h-148.4l-31.2 256zm241.7-173.2c6.8-56-33.6-82.8-95.4-82.8h-56.4l-31.2 256h50.6l12.2-99.5 10.5-0.3 53.4 99.8h56.7l-62.5-104.9c37-11.9 58.4-34.7 62.1-68.3zm-93.7-38.7c30.9 0 46.2 11.2 43.5 36.7-2.7 24.1-22.8 35.6-54 35.6h-10.9l8.5-72.3zm281.2 211.9l5.4-44.1h-98.5l8.8-72h94.1l5.4-43.5h-94l6.1-52.3h98.1l5.1-44.1h-148.4l-31.2 256zm154.8-81.8l-42.8-174.2h-54.6l72.6 256h29.6l136.5-256h-55.4zm343.7 81.8l-77.5-256h-36l-143.2 256h56l29.5-55.3h102.2l15 55.3zm-129.1-134.5c8.9-16.9 17.7-33.9 26.2-50.9 4.1 17 8.5 34 12.9 50.9l9.8 37.1h-68.6zm356.2 50.2l-128-171.8h-34.6l-31.2 256h50.2l20.4-172.1 127.3 172.1h34.6l31.3-256h-50.3z"/>
		</g>
		<g id="42">
			<path id="2" class="s0" d="m1580 1187v-222l225-225 225-225v-212c0-117-3-213-8-213-4 0-102 94-217 210-115 116-213 210-217 210-5 0-8-97-8-215v-215h445 445v223 222l-220 220-220 220v220 220l220-220 220-220v223 222h-445-445z"/>
			<path id="4" class="s0" d="m948 1548l-3-223-440-2-440-2-3-178-2-178 443-443 442-442 217 2 217 3-436 437-435 438h441 441v405 405h-220-220z"/>
		</g>
	</g>
</svg>